<svg width="1600" height="960" viewBox="0 0 1600 960" fill="none" xmlns="http://www.w3.org/2000/svg">
<g clip-path="url(#clip0_1_2)">
<rect width="1600" height="960" fill="url(#paint0_linear_1_2)"/>
<circle cx="6.68315" cy="6.68315" r="6.68315" transform="matrix(4.37114e-08 -1 -1 -4.37114e-08 696.366 194.366)" fill="#E77E42"/>
<circle cx="134.683" cy="907.683" r="6.68315" transform="rotate(-90 134.683 907.683)" fill="#1BEAFF"/>
<circle cx="6.68315" cy="6.68315" r="6.68315" transform="matrix(4.37114e-08 -1 -1 -4.37114e-08 744.228 573.664)" fill="#1BEAFF"/>
<circle cx="6.68315" cy="6.68315" r="6.68315" transform="matrix(-4.37114e-08 1 1 4.37114e-08 860.706 770.836)" fill="#1BEAFF"/>
<circle cx="6.68315" cy="6.68315" r="6.68315" transform="matrix(4.37114e-08 -1 -1 -4.37114e-08 1024.92 117.301)" fill="#E77E42"/>
<circle cx="254.449" cy="523.063" r="6.68315" transform="rotate(90 254.449 523.063)" fill="#E77E42"/>
<circle cx="1430.68" cy="307.293" r="4.77368" transform="rotate(90 1430.68 307.293)" fill="white"/>
<circle cx="4.77368" cy="4.77368" r="4.77368" transform="matrix(4.37114e-08 -1 -1 -4.37114e-08 635.389 273.878)" fill="white"/>
<circle cx="4.77368" cy="4.77368" r="4.77368" transform="matrix(4.37114e-08 -1 -1 -4.37114e-08 1063.11 520.199)" fill="white"/>
<circle cx="4.77368" cy="4.77368" r="4.77368" transform="matrix(-4.37114e-08 1 1 4.37114e-08 541.825 824.301)" fill="white"/>
<circle cx="294.548" cy="118.256" r="4.77368" transform="rotate(90 294.548 118.256)" fill="white"/>
<circle cx="1453.77" cy="599.774" r="4.77368" transform="rotate(90 1453.77 599.774)" fill="white"/>
<circle cx="217.774" cy="778.774" r="4.77368" transform="rotate(-90 217.774 778.774)" fill="white"/>
<circle cx="4.77368" cy="4.77368" r="4.77368" transform="matrix(4.37114e-08 -1 -1 -4.37114e-08 1101.3 191.77)" fill="white"/>
<circle cx="1272.2" cy="897.815" r="4.77368" transform="rotate(-90 1272.2 897.815)" fill="white"/>
<circle cx="1260.74" cy="503.969" r="4.77368" transform="rotate(90 1260.74 503.969)" fill="white"/>
<circle cx="4.77368" cy="4.77368" r="4.77368" transform="matrix(4.37114e-08 -1 -1 -4.37114e-08 814.547 82.5474)" fill="white"/>
<circle cx="1472.69" cy="724.054" r="4.77368" transform="rotate(-90 1472.69 724.054)" fill="white"/>
<circle cx="1291.29" cy="372.215" r="6.68315" transform="rotate(90 1291.29 372.215)" fill="#E77E42"/>
<circle cx="6.68315" cy="6.68315" r="6.68315" transform="matrix(4.37114e-08 -1 -1 -4.37114e-08 364.244 241.416)" fill="#1BEAFF"/>
<circle cx="1195.68" cy="26.6831" r="6.68315" transform="rotate(90 1195.68 26.6831)" fill="#1BEAFF"/>
<circle cx="111.239" cy="32.3294" r="6.68315" transform="rotate(90 111.239 32.3294)" fill="#1BEAFF"/>
<circle cx="1134.72" cy="370.306" r="4.77368" transform="rotate(90 1134.72 370.306)" fill="#1BEAFF"/>
<circle cx="1427.82" cy="178.404" r="1.90947" transform="rotate(90 1427.82 178.404)" fill="white"/>
<circle cx="1.90947" cy="1.90947" r="1.90947" transform="matrix(4.37114e-08 -1 -1 -4.37114e-08 820.607 564.117)" fill="white"/>
<circle cx="1.90947" cy="1.90947" r="1.90947" transform="matrix(-4.37114e-08 1 1 4.37114e-08 784.327 780.383)" fill="white"/>
<circle cx="1276.97" cy="147.852" r="1.90947" transform="rotate(90 1276.97 147.852)" fill="white"/>
<circle cx="1.90947" cy="1.90947" r="1.90947" transform="matrix(4.37114e-08 -1 -1 -4.37114e-08 515.092 487.738)" fill="white"/>
<circle cx="1.90947" cy="1.90947" r="1.90947" transform="matrix(-4.37114e-08 1 1 4.37114e-08 1089.84 856.762)" fill="white"/>
<circle cx="1.90947" cy="1.90947" r="1.90947" transform="matrix(4.37114e-08 -1 -1 -4.37114e-08 929.447 499.195)" fill="white"/>
<circle cx="1.90947" cy="1.90947" r="1.90947" transform="matrix(-4.37114e-08 1 1 4.37114e-08 878 859)" fill="white"/>
<circle cx="163.749" cy="136.396" r="1.90947" transform="rotate(90 163.749 136.396)" fill="white"/>
<circle cx="1544.3" cy="344.528" r="1.90947" transform="rotate(90 1544.3 344.528)" fill="white"/>
<circle cx="1.90947" cy="1.90947" r="1.90947" transform="matrix(4.37114e-08 -1 -1 -4.37114e-08 782.418 627.13)" fill="white"/>
<circle cx="1.90947" cy="1.90947" r="1.90947" transform="matrix(-4.37114e-08 1 1 4.37114e-08 822.517 717.371)" fill="white"/>
<circle cx="1263.6" cy="468.644" r="1.90947" transform="rotate(90 1263.6 468.644)" fill="white"/>
<circle cx="341.33" cy="875.857" r="1.90947" transform="rotate(-90 341.33 875.857)" fill="white"/>
<circle cx="1.90947" cy="1.90947" r="1.90947" transform="matrix(4.37114e-08 -1 -1 -4.37114e-08 942.813 134.486)" fill="white"/>
<circle cx="177.116" cy="501.104" r="1.90947" transform="rotate(90 177.116 501.104)" fill="white"/>
<circle cx="1427.82" cy="843.396" r="1.90947" transform="rotate(-90 1427.82 843.396)" fill="white"/>
<circle cx="1.90947" cy="1.90947" r="1.90947" transform="matrix(4.37114e-08 -1 -1 -4.37114e-08 599.109 600.397)" fill="white"/>
<circle cx="1.90947" cy="1.90947" r="1.90947" transform="matrix(-4.37114e-08 1 1 4.37114e-08 1005.83 744.103)" fill="white"/>
<circle cx="1.90947" cy="1.90947" r="1.90947" transform="matrix(4.37114e-08 -1 -1 -4.37114e-08 877.891 621.401)" fill="white"/>
<circle cx="1.90947" cy="1.90947" r="1.90947" transform="matrix(-4.37114e-08 1 1 4.37114e-08 727.043 723.099)" fill="white"/>
<circle cx="1.90947" cy="1.90947" r="1.90947" transform="matrix(4.37114e-08 -1 -1 -4.37114e-08 841.611 661.5)" fill="white"/>
<circle cx="1.90947" cy="1.90947" r="1.90947" transform="matrix(-4.37114e-08 1 1 4.37114e-08 763.323 683)" fill="white"/>
<circle cx="1.90947" cy="1.90947" r="1.90947" transform="matrix(4.37114e-08 -1 -1 -4.37114e-08 1013.46 611.854)" fill="white"/>
<circle cx="1.90947" cy="1.90947" r="1.90947" transform="matrix(-4.37114e-08 1 1 4.37114e-08 591.471 732.646)" fill="white"/>
<circle cx="247.766" cy="61.9262" r="1.90947" transform="rotate(90 247.766 61.9262)" fill="white"/>
<circle cx="1141.4" cy="187.951" r="1.90947" transform="rotate(90 1141.4 187.951)" fill="white"/>
<circle cx="1.90947" cy="1.90947" r="1.90947" transform="matrix(4.37114e-08 -1 -1 -4.37114e-08 379.52 447.639)" fill="white"/>
<circle cx="1.90947" cy="1.90947" r="1.90947" transform="matrix(-4.37114e-08 1 1 4.37114e-08 1225.42 896.861)" fill="white"/>
<circle cx="1196.77" cy="207.046" r="1.90947" transform="rotate(90 1196.77 207.046)" fill="white"/>
<circle cx="1.90947" cy="1.90947" r="1.90947" transform="matrix(4.37114e-08 -1 -1 -4.37114e-08 434.894 428.545)" fill="white"/>
<circle cx="1.90947" cy="1.90947" r="1.90947" transform="matrix(-4.37114e-08 1 1 4.37114e-08 1170.04 915.956)" fill="white"/>
<circle cx="1122.3" cy="262.421" r="1.90947" transform="rotate(90 1122.3 262.421)" fill="white"/>
<circle cx="1.90947" cy="1.90947" r="1.90947" transform="matrix(4.37114e-08 -1 -1 -4.37114e-08 360.425 373.17)" fill="white"/>
<circle cx="1143.31" cy="291.063" r="1.90947" transform="rotate(90 1143.31 291.063)" fill="white"/>
<circle cx="1.90947" cy="1.90947" r="1.90947" transform="matrix(4.37114e-08 -1 -1 -4.37114e-08 381.429 344.528)" fill="white"/>
<circle cx="1303.7" cy="109.663" r="1.90947" transform="rotate(90 1303.7 109.663)" fill="white"/>
<circle cx="1.90947" cy="1.90947" r="1.90947" transform="matrix(4.37114e-08 -1 -1 -4.37114e-08 541.825 609.944)" fill="white"/>
<circle cx="1.90947" cy="1.90947" r="1.90947" transform="matrix(-4.37114e-08 1 1 4.37114e-08 1063.11 734.556)" fill="white"/>
<circle cx="1532.84" cy="8.46111" r="1.90947" transform="rotate(90 1532.84 8.46111)" fill="white"/>
<circle cx="1.90947" cy="1.90947" r="1.90947" transform="matrix(4.37114e-08 -1 -1 -4.37114e-08 517.001 655.772)" fill="white"/>
<circle cx="1.90947" cy="1.90947" r="1.90947" transform="matrix(-4.37114e-08 1 1 4.37114e-08 1087.93 688.728)" fill="white"/>
<circle cx="1351.44" cy="166.947" r="1.90947" transform="rotate(90 1351.44 166.947)" fill="white"/>
<circle cx="1.90947" cy="1.90947" r="1.90947" transform="matrix(4.37114e-08 -1 -1 -4.37114e-08 568.557 459.096)" fill="white"/>
<circle cx="1.90947" cy="1.90947" r="1.90947" transform="matrix(-4.37114e-08 1 1 4.37114e-08 1036.38 885.404)" fill="white"/>
<circle cx="1536.66" cy="128.758" r="1.90947" transform="rotate(90 1536.66 128.758)" fill="white"/>
<circle cx="1.90947" cy="1.90947" r="1.90947" transform="matrix(4.37114e-08 -1 -1 -4.37114e-08 774.78 506.833)" fill="white"/>
<circle cx="1.90947" cy="1.90947" r="1.90947" transform="matrix(-4.37114e-08 1 1 4.37114e-08 1437 679)" fill="white"/>
<circle cx="1357.17" cy="325.433" r="1.90947" transform="rotate(90 1357.17 325.433)" fill="white"/>
<circle cx="1.90947" cy="1.90947" r="1.90947" transform="matrix(4.37114e-08 -1 -1 -4.37114e-08 595.29 310.157)" fill="white"/>
<circle cx="1332.35" cy="516.38" r="1.90947" transform="rotate(90 1332.35 516.38)" fill="white"/>
<circle cx="272.589" cy="828.12" r="1.90947" transform="rotate(-90 272.589 828.12)" fill="white"/>
<circle cx="1.90947" cy="1.90947" r="1.90947" transform="matrix(4.37114e-08 -1 -1 -4.37114e-08 570.467 119.21)" fill="white"/>
<circle cx="1145.22" cy="102.025" r="1.90947" transform="rotate(90 1145.22 102.025)" fill="white"/>
<circle cx="1.90947" cy="1.90947" r="1.90947" transform="matrix(4.37114e-08 -1 -1 -4.37114e-08 383.339 533.565)" fill="white"/>
<circle cx="1.90947" cy="1.90947" r="1.90947" transform="matrix(-4.37114e-08 1 1 4.37114e-08 1221.6 810.935)" fill="white"/>
<circle cx="1208.23" cy="340.709" r="1.90947" transform="rotate(90 1208.23 340.709)" fill="white"/>
<circle cx="1.90947" cy="1.90947" r="1.90947" transform="matrix(4.37114e-08 -1 -1 -4.37114e-08 446.351 294.882)" fill="white"/>
<circle cx="1290.34" cy="218.503" r="1.90947" transform="rotate(90 1290.34 218.503)" fill="white"/>
<circle cx="1.90947" cy="1.90947" r="1.90947" transform="matrix(4.37114e-08 -1 -1 -4.37114e-08 566.648 525.928)" fill="white"/>
<circle cx="1.90947" cy="1.90947" r="1.90947" transform="matrix(-4.37114e-08 1 1 4.37114e-08 1038.29 818.572)" fill="white"/>
<circle cx="1.90947" cy="1.90947" r="1.90947" transform="matrix(4.37114e-08 -1 -1 -4.37114e-08 383.339 657.681)" fill="white"/>
<circle cx="1.90947" cy="1.90947" r="1.90947" transform="matrix(-4.37114e-08 1 1 4.37114e-08 1221.6 686.819)" fill="white"/>
<circle cx="1229.23" cy="653.862" r="1.90947" transform="rotate(90 1229.23 653.862)" fill="white"/>
<circle cx="375.701" cy="690.638" r="1.90947" transform="rotate(-90 375.701 690.638)" fill="white"/>
<circle cx="1150.95" cy="636.677" r="1.90947" transform="rotate(90 1150.95 636.677)" fill="white"/>
<circle cx="453.989" cy="707.823" r="1.90947" transform="rotate(-90 453.989 707.823)" fill="white"/>
<circle cx="1.90947" cy="1.90947" r="1.90947" transform="matrix(4.37114e-08 -1 -1 -4.37114e-08 956.18 569.846)" fill="white"/>
<circle cx="1.90947" cy="1.90947" r="1.90947" transform="matrix(-4.37114e-08 1 1 4.37114e-08 648.755 774.655)" fill="white"/>
<circle cx="190.482" cy="65.7452" r="1.90947" transform="rotate(90 190.482 65.7452)" fill="white"/>
<circle cx="1403" cy="373.17" r="1.90947" transform="rotate(90 1403 373.17)" fill="white"/>
<circle cx="1.90947" cy="1.90947" r="1.90947" transform="matrix(4.37114e-08 -1 -1 -4.37114e-08 1055.47 273.878)" fill="white"/>
<circle cx="289.774" cy="361.713" r="1.90947" transform="rotate(90 289.774 361.713)" fill="white"/>
<circle cx="1200.59" cy="409.45" r="1.90947" transform="rotate(90 1200.59 409.45)" fill="white"/>
<circle cx="404.343" cy="935.05" r="1.90947" transform="rotate(-90 404.343 935.05)" fill="white"/>
<circle cx="1.90947" cy="1.90947" r="1.90947" transform="matrix(4.37114e-08 -1 -1 -4.37114e-08 438.713 226.141)" fill="white"/>
<circle cx="1.90947" cy="1.90947" r="1.90947" transform="matrix(4.37114e-08 -1 -1 -4.37114e-08 822.517 212.774)" fill="white"/>
<circle cx="83.5516" cy="497.286" r="1.90947" transform="rotate(90 83.5516 497.286)" fill="white"/>
<circle cx="1521.38" cy="847.215" r="1.90947" transform="rotate(-90 1521.38 847.215)" fill="white"/>
<circle cx="1.90947" cy="1.90947" r="1.90947" transform="matrix(4.37114e-08 -1 -1 -4.37114e-08 830.155 271.968)" fill="white"/>
<circle cx="64.4569" cy="363.623" r="1.90947" transform="rotate(90 64.4569 363.623)" fill="white"/>
<circle cx="1.90947" cy="1.90947" r="1.90947" transform="matrix(4.37114e-08 -1 -1 -4.37114e-08 826.336 451.458)" fill="white"/>
<circle cx="1.90947" cy="1.90947" r="1.90947" transform="matrix(-4.37114e-08 1 1 4.37114e-08 1376 742)" fill="white"/>
<circle cx="60.6379" cy="184.132" r="1.90947" transform="rotate(90 60.6379 184.132)" fill="white"/>
<circle cx="1.90947" cy="1.90947" r="1.90947" transform="matrix(4.37114e-08 -1 -1 -4.37114e-08 940.904 638.586)" fill="white"/>
<circle cx="1.90947" cy="1.90947" r="1.90947" transform="matrix(-4.37114e-08 1 1 4.37114e-08 664.031 705.914)" fill="white"/>
<circle cx="1.90947" cy="1.90947" r="1.90947" transform="matrix(4.37114e-08 -1 -1 -4.37114e-08 975.274 657.681)" fill="white"/>
<circle cx="1.90947" cy="1.90947" r="1.90947" transform="matrix(-4.37114e-08 1 1 4.37114e-08 629.66 686.819)" fill="white"/>
<circle cx="1.90947" cy="1.90947" r="1.90947" transform="matrix(4.37114e-08 -1 -1 -4.37114e-08 919.9 210.865)" fill="white"/>
<circle cx="154.202" cy="424.726" r="1.90947" transform="rotate(90 154.202 424.726)" fill="white"/>
<circle cx="1450.73" cy="919.774" r="1.90947" transform="rotate(-90 1450.73 919.774)" fill="white"/>
<circle cx="1.90947" cy="1.90947" r="1.90947" transform="matrix(4.37114e-08 -1 -1 -4.37114e-08 916.081 388.446)" fill="white"/>
<circle cx="1.90947" cy="1.90947" r="1.90947" transform="matrix(-4.37114e-08 1 1 4.37114e-08 696 914)" fill="white"/>
<circle cx="150.383" cy="247.145" r="1.90947" transform="rotate(90 150.383 247.145)" fill="white"/>
<circle cx="1460.28" cy="113.482" r="1.90947" transform="rotate(90 1460.28 113.482)" fill="white"/>
<circle cx="1.90947" cy="1.90947" r="1.90947" transform="matrix(4.37114e-08 -1 -1 -4.37114e-08 650.664 539.294)" fill="white"/>
<circle cx="1.90947" cy="1.90947" r="1.90947" transform="matrix(-4.37114e-08 1 1 4.37114e-08 954.27 805.206)" fill="white"/>
<circle cx="1192.95" cy="109.663" r="1.90947" transform="rotate(90 1192.95 109.663)" fill="white"/>
<circle cx="1.90947" cy="1.90947" r="1.90947" transform="matrix(4.37114e-08 -1 -1 -4.37114e-08 431.075 525.928)" fill="white"/>
<circle cx="1.90947" cy="1.90947" r="1.90947" transform="matrix(-4.37114e-08 1 1 4.37114e-08 1173.86 818.572)" fill="white"/>
<circle cx="1.90947" cy="1.90947" r="1.90947" transform="matrix(4.37114e-08 -1 -1 -4.37114e-08 743.819 338.819)" fill="white"/>
<circle cx="1.90947" cy="1.90947" r="1.90947" transform="matrix(-4.37114e-08 1 1 4.37114e-08 814.879 925.503)" fill="white"/>
<circle cx="64.4569" cy="134.486" r="1.90947" transform="rotate(90 64.4569 134.486)" fill="white"/>
<circle cx="1.90947" cy="1.90947" r="1.90947" transform="matrix(4.37114e-08 -1 -1 -4.37114e-08 971.455 506.833)" fill="white"/>
<circle cx="1.90947" cy="1.90947" r="1.90947" transform="matrix(-4.37114e-08 1 1 4.37114e-08 633.479 837.667)" fill="white"/>
<circle cx="205.758" cy="128.758" r="1.90947" transform="rotate(90 205.758 128.758)" fill="white"/>
<circle cx="1.90947" cy="1.90947" r="1.90947" transform="matrix(4.37114e-08 -1 -1 -4.37114e-08 1023.01 560.298)" fill="white"/>
<circle cx="1.90947" cy="1.90947" r="1.90947" transform="matrix(-4.37114e-08 1 1 4.37114e-08 51 772)" fill="white"/>
<circle cx="266.861" cy="14.1894" r="1.90947" transform="rotate(90 266.861 14.1894)" fill="white"/>
<circle cx="1.90947" cy="1.90947" r="1.90947" transform="matrix(4.37114e-08 -1 -1 -4.37114e-08 1128.03 466.734)" fill="white"/>
<circle cx="1.90947" cy="1.90947" r="1.90947" transform="matrix(-4.37114e-08 1 1 4.37114e-08 476.903 877.766)" fill="white"/>
<circle cx="362.334" cy="168.857" r="1.90947" transform="rotate(90 362.334 168.857)" fill="white"/>
<circle cx="1479.37" cy="378.898" r="1.90947" transform="rotate(90 1479.37 378.898)" fill="white"/>
<circle cx="1.90947" cy="1.90947" r="1.90947" transform="matrix(4.37114e-08 -1 -1 -4.37114e-08 770.961 235.688)" fill="white"/>
<circle cx="1357.17" cy="455.277" r="1.90947" transform="rotate(90 1357.17 455.277)" fill="white"/>
<circle cx="247.766" cy="889.223" r="1.90947" transform="rotate(-90 247.766 889.223)" fill="white"/>
<circle cx="1.90947" cy="1.90947" r="1.90947" transform="matrix(4.37114e-08 -1 -1 -4.37114e-08 581.923 220.412)" fill="white"/>
<circle cx="1.90947" cy="1.90947" r="1.90947" transform="matrix(4.37114e-08 -1 -1 -4.37114e-08 1009.64 191.77)" fill="white"/>
<circle cx="243.947" cy="443.82" r="1.90947" transform="rotate(90 243.947 443.82)" fill="white"/>
<circle cx="1360.99" cy="900.68" r="1.90947" transform="rotate(-90 1360.99 900.68)" fill="white"/>
<circle cx="1167.18" cy="507.788" r="4.77368" transform="rotate(90 1167.18 507.788)" fill="white"/>
<circle cx="4.77368" cy="4.77368" r="4.77368" transform="matrix(4.37114e-08 -1 -1 -4.37114e-08 415.799 94.3872)" fill="white"/>
<circle cx="1353.35" cy="252.873" r="1.90947" transform="rotate(90 1353.35 252.873)" fill="white"/>
<circle cx="1.90947" cy="1.90947" r="1.90947" transform="matrix(4.37114e-08 -1 -1 -4.37114e-08 591.471 382.717)" fill="white"/>
<circle cx="1.90947" cy="1.90947" r="1.90947" transform="matrix(4.37114e-08 -1 -1 -4.37114e-08 1036.38 375.08)" fill="white"/>
<circle cx="270.68" cy="260.511" r="1.90947" transform="rotate(90 270.68 260.511)" fill="white"/>
<circle cx="1273.15" cy="319.705" r="1.90947" transform="rotate(90 1273.15 319.705)" fill="white"/>
<circle cx="1.90947" cy="1.90947" r="1.90947" transform="matrix(4.37114e-08 -1 -1 -4.37114e-08 511.273 315.886)" fill="white"/>
<circle cx="1.90947" cy="1.90947" r="1.90947" transform="matrix(4.37114e-08 -1 -1 -4.37114e-08 925.628 327.343)" fill="white"/>
<circle cx="159.93" cy="308.248" r="1.90947" transform="rotate(90 159.93 308.248)" fill="white"/>
<circle cx="1515.65" cy="602.307" r="1.90947" transform="rotate(90 1515.65 602.307)" fill="white"/>
<circle cx="89.28" cy="742.194" r="1.90947" transform="rotate(-90 89.28 742.194)" fill="white"/>
<circle cx="1.90947" cy="1.90947" r="1.90947" transform="matrix(4.37114e-08 -1 -1 -4.37114e-08 753.776 33.2842)" fill="white"/>
<circle cx="1380.08" cy="632.858" r="1.90947" transform="rotate(90 1380.08 632.858)" fill="white"/>
<circle cx="224.852" cy="711.642" r="1.90947" transform="rotate(-90 224.852 711.642)" fill="white"/>
<circle cx="1.90947" cy="1.90947" r="1.90947" transform="matrix(4.37114e-08 -1 -1 -4.37114e-08 618.203 2.7326)" fill="white"/>
<circle cx="1.90947" cy="1.90947" r="1.90947" transform="matrix(4.37114e-08 -1 -1 -4.37114e-08 1032.56 14.1895)" fill="white"/>
<circle cx="266.861" cy="621.401" r="1.90947" transform="rotate(90 266.861 621.401)" fill="white"/>
<circle cx="1338.07" cy="723.099" r="1.90947" transform="rotate(-90 1338.07 723.099)" fill="white"/>
<circle cx="1416.36" cy="245.235" r="1.90947" transform="rotate(90 1416.36 245.235)" fill="white"/>
<circle cx="1.90947" cy="1.90947" r="1.90947" transform="matrix(4.37114e-08 -1 -1 -4.37114e-08 654.483 390.355)" fill="white"/>
<circle cx="1.90947" cy="1.90947" r="1.90947" transform="matrix(-4.37114e-08 1 1 4.37114e-08 950.451 954.145)" fill="white"/>
<circle cx="1.90947" cy="1.90947" r="1.90947" transform="matrix(4.37114e-08 -1 -1 -4.37114e-08 1091.75 348.347)" fill="white"/>
<circle cx="326.054" cy="287.244" r="1.90947" transform="rotate(90 326.054 287.244)" fill="white"/>
<circle cx="1.90947" cy="1.90947" r="1.90947" transform="matrix(4.37114e-08 -1 -1 -4.37114e-08 1066.93 426.635)" fill="white"/>
<circle cx="1.90947" cy="1.90947" r="1.90947" transform="matrix(-4.37114e-08 1 1 4.37114e-08 538.006 917.865)" fill="white"/>
<circle cx="308.869" cy="237.598" r="1.90947" transform="rotate(90 308.869 237.598)" fill="white"/>
<circle cx="1.90947" cy="1.90947" r="1.90947" transform="matrix(4.37114e-08 -1 -1 -4.37114e-08 1116.58 539.294)" fill="white"/>
<circle cx="1.90947" cy="1.90947" r="1.90947" transform="matrix(-4.37114e-08 1 1 4.37114e-08 488.359 805.206)" fill="white"/>
<circle cx="350.878" cy="96.2967" r="1.90947" transform="rotate(90 350.878 96.2967)" fill="white"/>
<circle cx="1.90947" cy="1.90947" r="1.90947" transform="matrix(4.37114e-08 -1 -1 -4.37114e-08 1286.52 638.586)" fill="white"/>
<circle cx="1.90947" cy="1.90947" r="1.90947" transform="matrix(-4.37114e-08 1 1 4.37114e-08 318.417 705.914)" fill="white"/>
<circle cx="681.216" cy="640.496" r="1.90947" transform="rotate(90 681.216 640.496)" fill="white"/>
<circle cx="923.719" cy="704.004" r="1.90947" transform="rotate(-90 923.719 704.004)" fill="white"/>
<circle cx="1.90947" cy="1.90947" r="1.90947" transform="matrix(4.37114e-08 -1 -1 -4.37114e-08 1191.04 594.669)" fill="white"/>
<circle cx="1.90947" cy="1.90947" r="1.90947" transform="matrix(-4.37114e-08 1 1 4.37114e-08 413.89 749.831)" fill="white"/>
<circle cx="543.734" cy="39.0126" r="1.90947" transform="rotate(90 543.734 39.0126)" fill="white"/>
<circle cx="1.90947" cy="1.90947" r="1.90947" transform="matrix(4.37114e-08 -1 -1 -4.37114e-08 1091.75 619.492)" fill="white"/>
<circle cx="1.90947" cy="1.90947" r="1.90947" transform="matrix(-4.37114e-08 1 1 4.37114e-08 513.182 725.008)" fill="white"/>
<circle cx="354.696" cy="58.1073" r="1.90947" transform="rotate(90 354.696 58.1073)" fill="white"/>
<circle cx="1204.41" cy="304.429" r="1.90947" transform="rotate(90 1204.41 304.429)" fill="white"/>
<circle cx="1.90947" cy="1.90947" r="1.90947" transform="matrix(4.37114e-08 -1 -1 -4.37114e-08 442.532 331.162)" fill="white"/>
<circle cx="1.90947" cy="1.90947" r="1.90947" transform="matrix(4.37114e-08 -1 -1 -4.37114e-08 820.607 327.343)" fill="white"/>
<circle cx="54.9095" cy="308.248" r="1.90947" transform="rotate(90 54.9095 308.248)" fill="white"/>
<circle cx="1435.46" cy="510.652" r="1.90947" transform="rotate(90 1435.46 510.652)" fill="white"/>
<circle cx="169.478" cy="833.848" r="1.90947" transform="rotate(-90 169.478 833.848)" fill="white"/>
<circle cx="1.90947" cy="1.90947" r="1.90947" transform="matrix(4.37114e-08 -1 -1 -4.37114e-08 652.574 117.301)" fill="white"/>
<circle cx="1.90947" cy="1.90947" r="1.90947" transform="matrix(4.37114e-08 -1 -1 -4.37114e-08 1120.39 71.4736)" fill="white"/>
<circle cx="68.2758" cy="575.574" r="1.90947" transform="rotate(90 68.2758 575.574)" fill="white"/>
<circle cx="1536.66" cy="768.926" r="1.90947" transform="rotate(-90 1536.66 768.926)" fill="white"/>
<circle cx="1233.05" cy="546.932" r="1.90947" transform="rotate(90 1233.05 546.932)" fill="white"/>
<circle cx="371.882" cy="797.568" r="1.90947" transform="rotate(-90 371.882 797.568)" fill="white"/>
<circle cx="1.90947" cy="1.90947" r="1.90947" transform="matrix(4.37114e-08 -1 -1 -4.37114e-08 471.174 88.6588)" fill="white"/>
<circle cx="1.90947" cy="1.90947" r="1.90947" transform="matrix(4.37114e-08 -1 -1 -4.37114e-08 877.891 75.2925)" fill="white"/>
<circle cx="112.194" cy="560.298" r="1.90947" transform="rotate(90 112.194 560.298)" fill="white"/>
<circle cx="1492.74" cy="784.202" r="1.90947" transform="rotate(-90 1492.74 784.202)" fill="white"/>
<circle cx="1492.74" cy="250.964" r="1.90947" transform="rotate(90 1492.74 250.964)" fill="white"/>
<circle cx="1.90947" cy="1.90947" r="1.90947" transform="matrix(4.37114e-08 -1 -1 -4.37114e-08 631.57 476.281)" fill="white"/>
<circle cx="1.90947" cy="1.90947" r="1.90947" transform="matrix(-4.37114e-08 1 1 4.37114e-08 973.365 868.219)" fill="white"/>
<circle cx="1267.42" cy="231.869" r="1.90947" transform="rotate(90 1267.42 231.869)" fill="white"/>
<circle cx="1.90947" cy="1.90947" r="1.90947" transform="matrix(4.37114e-08 -1 -1 -4.37114e-08 505.545 403.721)" fill="white"/>
<circle cx="1.90947" cy="1.90947" r="1.90947" transform="matrix(-4.37114e-08 1 1 4.37114e-08 1099.39 940.779)" fill="white"/>
<circle cx="1.90947" cy="1.90947" r="1.90947" transform="matrix(4.37114e-08 -1 -1 -4.37114e-08 778.819 422.819)" fill="white"/>
<circle cx="1.90947" cy="1.90947" r="1.90947" transform="matrix(-4.37114e-08 1 1 4.37114e-08 759 870)" fill="white"/>
<circle cx="154.202" cy="220.412" r="1.90947" transform="rotate(90 154.202 220.412)" fill="white"/>
<circle cx="1540.48" cy="485.829" r="1.90947" transform="rotate(90 1540.48 485.829)" fill="white"/>
<circle cx="64.4568" cy="858.671" r="1.90947" transform="rotate(-90 64.4568 858.671)" fill="white"/>
<circle cx="1.90947" cy="1.90947" r="1.90947" transform="matrix(4.37114e-08 -1 -1 -4.37114e-08 778.599 149.762)" fill="white"/>
<circle cx="1299.88" cy="577.483" r="1.90947" transform="rotate(90 1299.88 577.483)" fill="white"/>
<circle cx="305.05" cy="767.017" r="1.90947" transform="rotate(-90 305.05 767.017)" fill="white"/>
<circle cx="1.90947" cy="1.90947" r="1.90947" transform="matrix(4.37114e-08 -1 -1 -4.37114e-08 488.359 144.033)" fill="white"/>
<circle cx="1.90947" cy="1.90947" r="1.90947" transform="matrix(4.37114e-08 -1 -1 -4.37114e-08 952.361 69.5641)" fill="white"/>
<circle cx="186.663" cy="566.027" r="1.90947" transform="rotate(90 186.663 566.027)" fill="white"/>
<circle cx="1418.27" cy="778.474" r="1.90947" transform="rotate(-90 1418.27 778.474)" fill="white"/>
</g>
<defs>
<linearGradient id="paint0_linear_1_2" x1="800" y1="0" x2="800" y2="960" gradientUnits="userSpaceOnUse">
<stop stop-color="#0E6CC7"/>
<stop offset="1" stop-color="#4A0383"/>
</linearGradient>
<clipPath id="clip0_1_2">
<rect width="1600" height="960" fill="white"/>
</clipPath>
</defs>
</svg>
