<svg width="150" height="150" viewBox="0 0 150 150" fill="none" xmlns="http://www.w3.org/2000/svg">
<path fill-rule="evenodd" clip-rule="evenodd" d="M149.516 74.6005C149.516 96.2078 140.369 115.607 125.701 129.329C118.761 135.795 110.402 141 101.255 144.469C93.0534 147.624 84.0635 149.359 74.7582 149.359C71.4461 149.359 68.134 149.201 64.9797 148.728C50.6274 146.835 37.3791 140.842 26.812 131.852C19.0838 125.386 12.6174 117.342 8.0436 108.352C5.20468 102.674 2.99664 96.5232 1.57718 90.0568C0.473153 85.0098 0 79.9629 0 74.6005C0 59.775 4.25837 46.0536 11.6711 34.5402C14.8255 29.6509 18.453 25.0771 22.7114 21.1342C36.1174 8.0436 54.5703 0 74.7582 0C76.3354 0 78.0703 3.60752e-06 79.6474 0.157721C88.1642 0.630874 96.2078 2.6812 103.778 5.83556C105.04 6.30871 106.302 6.93958 107.563 7.57045C114.818 11.0402 121.443 15.7718 127.12 21.4496C141 34.8556 149.516 53.7817 149.516 74.6005Z" fill="url(#paint0_radial_4_1617)"/>
<path fill-rule="evenodd" clip-rule="evenodd" d="M35.3288 124.124C29.0201 124.124 17.5067 114.976 11.9865 103.305C5.20468 88.6374 5.04697 73.1811 8.35904 70.3422C9.30534 69.5536 10.5671 69.0804 12.1443 69.0804C13.0906 69.0804 14.3523 69.2381 15.4563 69.5536C23.3422 71.9193 34.3825 82.8019 39.114 93.8421C43.6878 104.567 42.4261 113.084 41.0066 118.288C40.0603 123.178 37.3791 124.124 35.3288 124.124Z" fill="url(#paint1_linear_4_1617)"/>
<path fill-rule="evenodd" clip-rule="evenodd" d="M14.1946 64.1912C13.406 64.1912 12.6174 63.8758 12.1443 63.2449C10.0939 60.8792 13.0906 52.5201 14.3523 49.5235C16.4026 44.7919 18.6107 42.2685 20.5033 42.2685C21.2919 42.2685 21.9228 42.5839 22.5536 43.0571L22.8691 43.3725C25.0771 45.5805 26.1811 50.7852 24.1308 54.8859C22.5536 57.8825 17.9798 63.0872 14.8255 63.8758C14.8255 64.1912 14.51 64.1912 14.1946 64.1912Z" fill="url(#paint2_linear_4_1617)"/>
<path fill-rule="evenodd" clip-rule="evenodd" d="M23.6576 54.5704C22.2382 57.4093 17.5067 62.614 14.6677 63.4026C13.8792 63.5603 13.2483 63.5603 12.9328 63.0872C10.8825 60.5637 16.8758 43.3724 20.9764 43.2147C21.6073 43.2147 22.2382 43.5302 22.7113 44.0033C24.4462 45.7382 25.5503 50.6275 23.6576 54.5704Z" fill="url(#paint3_linear_4_1617)"/>
<path fill-rule="evenodd" clip-rule="evenodd" d="M23.6577 54.5704C22.2382 57.4093 17.5067 62.614 14.6678 63.4026C14.8255 62.2986 17.0335 48.8925 22.5536 44.0033C24.4462 45.7382 25.5503 50.6274 23.6577 54.5704Z" fill="#FFFF45"/>
<path opacity="0.3" fill-rule="evenodd" clip-rule="evenodd" d="M110.165 82.1134C109.502 83.1234 108.854 84.0345 108.009 84.9149C107.308 85.5142 106.524 85.9994 106.006 86.7283C104.093 89.2641 103.897 92.4722 102.66 95.2145C101.92 96.7185 100.534 97.8184 99.7938 99.3224C99.4885 99.9833 99.4796 100.69 99.3565 101.481C99.218 102.37 98.6316 102.886 98.0298 103.501C97.3139 104.199 96.4465 104.57 95.4956 104.827C94.7578 105.015 93.9827 104.793 93.1923 104.67C91.5125 104.409 89.9623 103.965 88.3595 103.209C86.9389 102.583 85.6633 101.676 84.2581 100.951C83.3162 100.501 82.5104 100.477 81.4915 100.52C80.5714 100.579 79.5987 100.327 78.7095 100.188C77.1285 99.942 75.5079 100.6 74.0168 101.077C72.9518 101.417 72.1678 101.902 71.6033 102.927C70.9092 104.135 70.7246 105.321 69.1655 105.584C68.23 105.742 67.1893 105.276 66.3308 104.94C65.5711 104.619 64.6664 104.58 63.876 104.456C62.295 104.21 60.8898 103.485 59.5154 102.563C57.9742 101.412 56.6921 99.8967 55.6076 98.4121C55.0237 97.6128 54.0971 97.0636 53.5132 96.2643C52.6636 95.2211 51.7152 94.1626 50.9644 93.1348C49.7131 91.4218 48.363 89.6935 46.9974 88.0639C45.9502 86.99 45.1468 85.6504 44.328 84.4096C43.676 83.3972 43.382 82.0358 42.9584 80.8566C42.0959 78.5969 41.4771 76.0716 41.2535 73.6079C40.9774 70.8323 40.6331 67.8438 41.1628 65.0925C41.5321 62.7211 41.5742 60.5011 41.9436 58.1297C41.0535 62.5453 40.6817 66.232 40.6372 69.7673C40.4379 66.4977 40.6339 63.2896 41.1571 59.9301C42.6036 50.6421 46.6102 42.4612 52.3776 35.9714C54.8308 33.2161 57.5496 30.7045 60.6022 28.6498C70.2782 21.7566 82.6236 18.5178 95.2711 20.4875C96.2592 20.6413 97.3461 20.8106 98.3188 21.0633C103.608 22.1907 108.448 24.26 112.883 26.9748C113.868 28.444 114.823 30.1108 115.482 31.7314C115.785 32.3858 115.874 33.1082 116.177 33.7626C116.381 34.4017 116.746 34.6608 116.539 35.3371C116.379 35.717 116.104 36.1802 115.845 36.5447C115.151 37.7523 113.531 38.4107 112.336 38.9331C110.601 39.675 108.761 39.7932 106.943 40.4209C105.764 40.8445 105.39 41.2924 104.461 42.0586C103.989 42.4911 103.449 42.7105 103.075 43.1584C101.971 44.4033 101.169 46.3025 101.022 47.8988C100.628 51.0761 102.744 53.7334 102.875 56.79C102.969 59.436 102.143 62.1411 102.648 64.7498C103.091 67.7538 105.207 70.4111 107.317 72.4601C108.197 73.3057 108.994 74.037 109.761 74.966C110.428 75.8796 111.453 76.4441 111.892 77.5245C112.14 79.1824 110.989 80.7236 110.165 82.1134Z" fill="url(#paint4_linear_4_1617)"/>
<path fill-rule="evenodd" clip-rule="evenodd" d="M107.563 7.41281C107.248 7.41281 107.09 7.41281 106.775 7.57053C105.986 7.72824 105.198 7.57053 104.409 7.41281C103.778 7.25509 103.463 6.93966 102.674 6.93966C101.728 6.78194 100.939 6.4665 99.9931 6.30879C99.0468 6.15107 98.2582 5.83563 97.3119 5.5202C96.5233 5.20476 96.2078 5.36248 95.577 5.5202C94.9461 5.67792 94.4729 5.36248 93.8421 5.20476C93.2112 4.88933 92.4226 4.88933 91.7917 4.73161C89.8991 4.41617 88.0065 3.78531 86.1139 3.31215C85.0099 2.99672 83.9059 2.99672 82.6441 2.99672C81.6978 2.99672 80.9092 3.31215 79.9629 3.31215C79.332 3.31215 78.8589 3.15443 78.228 3.15443C77.5971 2.99671 76.9663 3.15443 76.3354 3.15443C75.3891 2.99671 74.9159 2.839 73.9696 3.15443C73.181 3.31215 72.7079 3.31215 71.9193 3.46987C71.1307 3.46987 70.1844 3.7853 69.3958 3.94302C67.9764 4.25846 66.3992 4.57389 64.9797 4.57389C64.0334 4.57389 62.7717 4.25846 61.9831 4.57389C61.5099 4.73161 61.1945 5.36248 60.7213 5.67792C59.9328 6.46651 59.1442 7.09737 58.5133 7.88596C57.8824 8.67455 57.2515 9.62086 57.2515 10.7249C57.2515 11.6712 57.7247 12.7752 58.1979 13.5638C58.671 14.5101 58.8287 15.2987 57.8824 15.9296C56.7784 16.7182 55.3589 17.349 54.0972 17.8222C53.1509 18.1376 52.3623 18.2953 51.7314 17.6645C51.416 17.5067 51.2583 17.0336 50.9428 16.7182C50.6274 16.5604 50.1543 16.7182 49.8388 16.8759C48.8925 17.1913 47.9462 17.5067 46.9999 17.6645C46.369 17.8222 45.8959 18.1376 45.265 18.1376C44.6341 18.2953 44.161 17.8222 43.3724 17.9799C42.4261 18.1376 41.3221 18.6108 40.3758 18.6108C39.5872 18.6108 38.6409 18.2953 38.01 17.9799C37.6946 17.8222 37.5368 17.5067 37.0637 17.6645C36.7483 17.6645 36.2751 18.1376 36.1174 18.4531C35.802 18.7685 35.8019 19.2416 35.4865 19.5571C35.1711 20.0302 35.0134 20.3457 34.6979 20.8188C34.2248 21.6074 33.7516 22.396 33.2785 23.1846C32.963 23.6577 32.6476 24.4463 32.1744 24.9195C32.0167 25.2349 31.5436 25.3926 31.2281 25.5503C30.4395 26.0235 29.651 26.6544 28.8624 27.1275C27.4429 28.2315 26.0234 29.4933 24.604 30.5973C23.5 31.3859 21.9228 31.8591 20.661 32.4899C19.8725 32.8054 19.0839 33.1208 18.2953 33.4362C17.9798 33.5939 17.5067 33.594 17.349 33.9094C17.0335 34.2248 16.8758 34.5403 16.7181 35.0134C16.0872 35.802 15.2986 36.7483 14.8255 37.6946C14.5101 38.3255 14.3523 38.7986 14.0369 39.4295C13.7215 40.2181 13.2483 41.0067 13.0906 41.953C12.4597 43.6879 12.4597 45.5805 11.6711 47.3154C11.3557 48.2617 10.7248 49.208 10.2517 50.1543C9.46309 51.7315 9.30537 53.6241 9.14766 55.359C8.98994 56.3053 9.14765 57.567 9.30537 58.5134C9.46309 59.6174 9.46309 60.7214 9.46309 61.8254C9.46309 62.9294 8.6745 64.1912 8.04363 64.9798C7.41276 65.7684 6.30874 66.0838 5.52015 66.8724C4.88928 67.5033 4.10069 68.1341 3.78525 69.0804C3.62753 69.3959 3.78525 69.869 3.78525 70.3422C3.62753 71.2885 3.3121 72.0771 3.3121 73.0234C3.15438 74.1274 3.15438 75.2314 3.15438 76.4932C3.15438 77.124 3.15438 77.5972 3.15438 78.2281C3.15438 78.8589 3.3121 79.3321 3.46981 79.8052C3.46981 80.1207 3.46981 80.5938 3.46981 80.9093C3.46981 81.3824 3.78525 81.8556 3.78525 82.171C4.10069 83.275 4.25841 84.2213 4.41612 85.3254C4.57384 86.2717 5.047 87.218 5.20471 88.1643C5.67787 89.426 5.83558 90.6878 6.15102 92.1072C6.30873 93.0535 6.30874 94.1575 6.46645 95.1039C6.62417 95.8924 6.78189 96.681 6.78189 97.4696C6.78189 98.7314 6.46645 99.8354 6.46645 101.097C6.46645 103.147 7.25504 105.198 7.72819 107.248C7.88591 107.879 8.04363 108.352 8.20135 108.983C2.99666 98.8891 0.157745 87.3757 0.157745 75.2314C0.157745 60.406 4.41613 46.6845 11.8289 35.1711C14.9832 30.2819 18.6107 25.7081 22.8691 21.7651C36.2751 8.67455 54.7281 0.630951 74.9159 0.630951C76.4931 0.630951 78.228 0.630949 79.8052 0.788666C89.5837 0.788666 99.0467 3.31215 107.563 7.41281Z" fill="url(#paint5_linear_4_1617)"/>
<path opacity="0.3" fill-rule="evenodd" clip-rule="evenodd" d="M101.097 131.537C102.516 130.59 103.936 129.802 105.513 128.855C107.09 127.909 108.667 127.436 110.402 126.647C111.664 126.174 111.822 126.174 112.768 126.963C113.714 127.751 114.818 127.909 115.923 127.909C117.5 127.909 119.235 128.067 119.392 130.117C119.55 132.956 115.449 135.322 113.399 136.426C111.822 137.372 110.087 138.003 108.352 138.792C106.933 139.422 105.355 140.211 103.778 140.369C102.359 140.526 101.57 139.896 100.624 138.949C99.5199 137.688 99.6776 136.584 99.6776 135.164C99.6776 133.271 99.6776 132.01 101.097 131.537Z" fill="url(#paint6_linear_4_1617)"/>
<path opacity="0.3" fill-rule="evenodd" clip-rule="evenodd" d="M123.335 26.9698C124.439 29.1779 125.228 32.1745 126.963 34.0671C127.909 35.0134 128.54 35.1711 129.802 35.1711C130.433 35.1711 131.537 35.3288 132.167 35.1711C132.956 34.8557 132.956 33.9094 132.956 33.1208C132.798 30.1242 130.906 27.443 129.013 25.3926C127.751 23.9732 125.859 22.396 123.808 22.7114C123.178 24.1309 123.02 25.5503 123.335 26.9698Z" fill="url(#paint7_linear_4_1617)"/>
<path fill-rule="evenodd" clip-rule="evenodd" d="M33.2784 19.2416C32.4898 19.5571 32.1744 19.5571 31.3858 20.1879C30.7549 20.6611 30.1241 21.1342 29.4932 21.7651C28.7046 22.5537 28.3892 23.3423 28.2315 24.1309C27.916 24.9195 27.7583 25.8658 28.0737 26.3389C28.2314 26.4967 28.7046 26.4967 29.1778 26.4967C29.8086 26.3389 30.4395 25.8658 31.0704 25.5503C31.859 25.0772 32.4898 24.2886 33.1207 23.5C33.5939 22.8691 33.7516 22.2383 34.067 21.6074C34.2247 21.1343 34.3824 20.8188 34.5402 20.5034C34.6979 20.1879 34.6979 19.8725 34.5402 19.7148C34.3824 19.2416 34.2247 19.2416 33.2784 19.2416Z" fill="#FFFF45"/>
<path fill-rule="evenodd" clip-rule="evenodd" d="M42.1107 17.8221C41.7952 18.1375 41.1644 18.6107 41.6375 18.9261C41.7952 19.0838 41.9529 18.9261 42.1107 19.0838C42.2684 19.0838 42.2684 19.2415 42.4261 19.0838C42.8993 19.0838 42.7415 17.6644 42.1107 17.8221Z" fill="#FFFF45"/>
<path fill-rule="evenodd" clip-rule="evenodd" d="M44.4764 22.5537C44.6341 22.3959 44.9496 22.3959 45.1073 22.3959C45.1073 22.7114 45.4227 23.1845 44.9496 23.5C44.6341 23.6577 44.7918 23.0268 44.6341 23.0268L44.4764 22.5537Z" fill="#FFFF45"/>
<path fill-rule="evenodd" clip-rule="evenodd" d="M49.0502 22.5537C49.5234 22.7114 49.8388 22.8691 50.312 23.0268C50.4697 22.8691 50.6274 22.8691 50.7851 22.8691C50.9428 22.7114 51.1005 22.396 51.2583 22.2383C51.416 21.9228 51.2583 21.6074 51.1006 21.2919C50.9428 21.1342 50.9428 20.8188 50.7851 20.6611C50.6274 20.5034 50.1542 20.5034 49.9965 20.6611C49.6811 20.8188 49.5234 20.9765 49.3656 21.2919C49.2079 21.4497 49.0502 21.9228 49.0502 22.0805C49.0502 22.396 49.2079 22.7114 49.5234 22.8691L49.0502 22.5537Z" fill="#FFFF45"/>
<path fill-rule="evenodd" clip-rule="evenodd" d="M52.8354 108.983C53.3086 109.141 53.624 109.298 54.0972 109.456C54.2549 109.298 54.4126 109.298 54.5703 109.298C54.7281 109.141 54.8858 108.825 55.0435 108.667C55.2012 108.352 55.0435 108.037 54.8858 107.721C54.7281 107.563 54.7281 107.248 54.5703 107.09C54.4126 106.933 53.9395 106.933 53.7818 107.09C53.4663 107.248 53.3086 107.406 53.1509 107.721C52.9932 107.879 52.8354 108.352 52.8354 108.51C52.8354 108.825 52.9932 109.141 53.3086 109.298L52.8354 108.983Z" fill="#FFFF45"/>
<path fill-rule="evenodd" clip-rule="evenodd" d="M36.906 26.6542C36.7482 26.812 36.5905 26.9697 36.4328 27.1274C36.5905 27.2851 36.7482 27.6006 37.0637 27.6006C37.2214 27.6006 37.3791 27.6006 37.3791 27.6006C37.5368 27.4428 37.3791 27.2851 37.5368 27.2851C37.6945 26.9697 37.6945 26.9697 37.5368 26.6542C37.3791 26.4965 37.3791 26.4965 37.2214 26.4965C37.0637 26.4965 36.9059 26.4965 36.7482 26.6542H36.906Z" fill="#FFFF45"/>
<path fill-rule="evenodd" clip-rule="evenodd" d="M37.8523 33.4361C37.8523 33.4361 37.5368 34.3824 37.8523 34.067C38.1677 33.9093 38.1677 33.5938 37.8523 33.4361C38.01 33.4361 38.01 33.4361 37.8523 33.4361Z" fill="#FFFF45"/>
<path fill-rule="evenodd" clip-rule="evenodd" d="M31.7013 44.7919C31.3858 45.1073 31.3858 45.265 31.2281 45.7382C31.3858 45.8959 31.5436 45.8959 31.7013 45.8959C32.0167 45.8959 32.0167 45.7382 32.0167 45.5804C32.0167 45.4227 32.1744 45.265 32.0167 45.1073C32.0167 44.7919 31.859 44.6341 31.7013 44.7919Z" fill="#FFFF45"/>
<path fill-rule="evenodd" clip-rule="evenodd" d="M41.1643 27.4429C41.3221 27.6006 41.4798 27.7583 41.4798 27.9161C41.3221 27.9161 41.1643 27.7583 41.1643 27.6006C41.1643 27.2852 41.1643 27.4429 41.3221 27.1275L41.1643 27.4429Z" fill="#FFFF45"/>
<path fill-rule="evenodd" clip-rule="evenodd" d="M38.9563 18.6107C38.7986 18.7684 38.6409 18.9261 38.4832 19.0839C38.6409 19.2416 38.4831 19.3993 38.7986 19.3993C38.9563 19.3993 39.114 19.2416 39.2717 19.0839C39.4295 18.9261 39.4295 18.7684 39.4295 18.6107C39.4295 18.453 39.4295 18.1376 39.2717 18.453L38.9563 18.6107Z" fill="#FFFF45"/>
<path fill-rule="evenodd" clip-rule="evenodd" d="M67.6609 14.0369C67.6609 13.8791 67.8186 13.5637 67.8186 13.406L67.9763 13.2483C68.1341 13.0905 68.134 13.0905 68.2918 13.0905C68.4495 13.0905 68.6072 13.0905 68.9226 13.2483C69.5535 13.7214 67.9763 14.1946 67.8186 13.7214L67.6609 14.0369Z" fill="#FFFF45"/>
<path fill-rule="evenodd" clip-rule="evenodd" d="M73.0233 16.0873C72.8656 16.4027 72.7079 16.8759 73.0233 17.1913C73.3387 17.349 73.9696 17.0336 74.1273 16.8759C74.6005 16.5604 75.0736 15.7718 74.6005 15.2987C74.4428 14.9832 73.6542 14.8255 73.3387 14.8255C72.5502 14.8255 72.3924 15.7718 72.2347 16.5604L73.0233 16.0873Z" fill="#FFFF45"/>
<path fill-rule="evenodd" clip-rule="evenodd" d="M75.3891 8.67445C75.2314 8.04358 75.2314 7.41271 75.7045 7.09728C76.02 6.93956 76.4931 6.78184 76.8085 7.09728C76.9663 7.255 77.124 7.57043 77.2817 7.72815C77.4394 8.04359 77.4394 8.04358 77.2817 8.35902C77.124 8.98989 76.9663 9.46304 76.1777 9.46304C75.2314 9.46304 75.2314 8.83217 75.2314 7.88587V8.67445H75.3891Z" fill="#FFFF45"/>
<path fill-rule="evenodd" clip-rule="evenodd" d="M83.4327 19.7147C83.9058 19.557 84.379 19.3993 84.6944 18.9261C84.379 18.7684 83.5904 18.2953 83.4327 18.9261V19.7147Z" fill="#FFFF45"/>
<path fill-rule="evenodd" clip-rule="evenodd" d="M55.6744 119.077C56.1475 118.919 56.6207 118.761 56.9361 118.288C56.6207 118.131 55.8321 117.657 55.6744 118.288V119.077Z" fill="#FFC445"/>
<path fill-rule="evenodd" clip-rule="evenodd" d="M106.933 129.802C107.406 129.644 107.879 129.486 108.194 129.013C107.879 128.855 107.09 128.382 106.933 129.013V129.802Z" fill="#FFC445"/>
<path fill-rule="evenodd" clip-rule="evenodd" d="M89.5837 29.3355C90.0568 28.7046 90.6877 27.7583 91.634 28.2315C92.1072 28.5469 92.2649 29.4932 91.7917 29.8087C91.3186 30.1241 91.0031 30.2818 90.3723 30.4395C90.0568 30.5973 89.426 30.2818 89.5837 29.6509V29.3355Z" fill="#FFFF45"/>
<path fill-rule="evenodd" clip-rule="evenodd" d="M56.3052 43.0569C56.7784 42.4261 57.4093 41.4798 58.3556 41.9529C58.8287 42.2684 58.9864 43.2147 58.5133 43.5301C58.0401 43.8455 57.7247 44.0033 57.0938 44.161C56.7784 44.3187 56.1475 44.0033 56.3052 43.3724V43.0569Z" fill="#FFC445"/>
<path fill-rule="evenodd" clip-rule="evenodd" d="M111.506 18.6107C111.98 17.9798 112.61 17.0335 113.557 17.5067C114.03 17.8221 114.188 18.7684 113.714 19.0838C113.241 19.3993 112.926 19.557 112.295 19.7147C111.98 19.8724 111.349 19.557 111.506 18.9261V18.6107Z" fill="#FFC445"/>
<path fill-rule="evenodd" clip-rule="evenodd" d="M80.5938 69.5535C81.0669 68.9227 81.6978 67.9763 82.6441 68.4495C83.1173 68.7649 83.275 69.7112 82.8018 70.0267C82.3287 70.3421 82.0132 70.4998 81.3824 70.6576C81.0669 70.8153 80.4361 70.4998 80.5938 69.869V69.5535Z" fill="#FFC445"/>
<path fill-rule="evenodd" clip-rule="evenodd" d="M53.624 22.3959C52.9932 22.7113 52.0468 23.1845 51.8891 24.1308C51.8891 24.6039 52.0468 24.9194 52.52 25.0771C52.8354 25.2348 53.4663 25.2348 53.9395 25.0771C54.5703 24.7617 55.2012 24.2885 55.3589 23.8154C55.5166 23.3422 55.5166 23.0268 55.3589 22.7113C55.2012 22.5536 55.0435 22.2382 54.728 22.0805C53.9395 21.765 53.4663 22.5536 52.8354 22.8691L53.624 22.3959Z" fill="#FFFF45"/>
<path fill-rule="evenodd" clip-rule="evenodd" d="M55.5166 20.1878C55.8321 20.3456 56.1475 20.5033 56.3052 20.8187C55.9898 20.9764 55.6744 21.1341 55.3589 21.1341C54.8858 20.9764 54.8858 20.5033 54.8858 20.1878C54.8858 20.0301 55.3589 19.557 55.5166 19.7147C55.6744 19.7147 55.6744 19.8724 55.6744 20.0301C55.8321 20.1878 55.8321 20.1878 55.6744 20.5033H55.5166V20.1878Z" fill="#FFFF45"/>
<path fill-rule="evenodd" clip-rule="evenodd" d="M22.2382 34.0671C21.6073 34.698 20.9765 35.3288 20.661 36.1174C20.5033 36.5906 20.8187 36.5906 21.1342 36.4328C21.9228 36.2751 22.5536 36.1174 23.3422 35.9597C23.8154 35.802 24.4463 35.6443 24.604 35.3288C24.7617 35.0134 24.9194 34.5402 24.9194 34.2248C24.9194 33.7516 24.4463 33.5939 24.1308 33.4362C23.1845 33.1208 21.7651 33.7517 21.4496 34.698L22.2382 34.0671Z" fill="#FFFF45"/>
<path fill-rule="evenodd" clip-rule="evenodd" d="M22.7114 37.3791C23.1845 37.3791 23.6577 37.5368 24.1308 37.6946C23.9731 37.8523 23.9731 38.01 23.9731 38.1677C23.8154 38.4831 23.6577 38.6409 23.3422 38.7986C22.8691 39.114 22.2382 39.114 21.7651 38.9563C20.3456 38.4831 22.5537 36.906 22.8691 37.3791H22.7114Z" fill="#FFFF45"/>
<path fill-rule="evenodd" clip-rule="evenodd" d="M65.4529 7.41276C65.926 7.09733 66.3992 6.93961 66.8723 6.78189C67.5032 6.62417 68.1341 6.62418 68.7649 6.62418C69.0804 6.62418 69.869 6.62417 69.5535 7.09733C69.3958 7.7282 68.1341 8.20135 67.6609 8.35907C66.8723 8.6745 66.0837 9.14766 65.1374 9.30538C64.6643 9.30538 63.8757 9.46309 63.5603 8.98994C63.4025 8.51679 63.4026 8.20135 63.718 7.88592C63.8757 7.57048 64.1911 7.41277 64.6643 7.25505C64.822 7.25505 65.926 6.93961 65.926 7.25505L65.4529 7.41276Z" fill="#FFFF45"/>
<path fill-rule="evenodd" clip-rule="evenodd" d="M57.0938 7.57043C56.9361 7.72815 55.2012 8.67446 55.9898 9.14761C56.4629 9.30533 57.2515 9.30533 57.7247 9.14761C58.0401 8.98989 58.5133 8.67446 58.1978 8.20131C57.7247 7.255 56.4629 7.88587 55.8321 8.20131L57.0938 7.57043Z" fill="#FFFF45"/>
<path fill-rule="evenodd" clip-rule="evenodd" d="M33.5939 69.3959C33.7516 70.0267 33.9093 70.8153 34.5402 71.2885C35.1711 71.7616 35.9596 71.6039 36.4328 71.1307C36.9059 70.8153 37.3791 70.4999 37.6945 70.3422C38.01 70.1844 38.1677 70.1844 38.1677 69.7113C38.1677 69.2381 37.8523 68.765 37.5368 68.4495C37.2214 68.1341 36.7482 67.661 36.2751 67.5032C35.3288 67.1878 33.5939 67.5032 33.5939 68.765V69.3959Z" fill="#FFD32F"/>
<path fill-rule="evenodd" clip-rule="evenodd" d="M87.2179 70.1844C87.3756 70.8153 87.5333 71.6039 88.1642 72.077C88.7951 72.5502 89.5837 72.3925 90.0568 71.9193C90.53 71.6039 91.0031 71.2885 91.3186 71.1307C91.634 70.973 91.7917 70.973 91.7917 70.4999C91.7917 70.0267 91.4763 69.5535 91.1608 69.2381C90.8454 68.9227 90.3723 68.4495 89.8991 68.2918C88.9528 67.9764 87.2179 68.2918 87.2179 69.5536V70.1844Z" fill="#FFBA00"/>
<path fill-rule="evenodd" clip-rule="evenodd" d="M10.8825 97.1542C10.8825 97.1542 10.2517 99.8354 12.1443 103.305C14.0369 106.775 15.4563 106.46 15.4563 106.46C15.4563 106.46 13.7214 100.151 10.8825 97.1542Z" fill="#FFFF59"/>
<path fill-rule="evenodd" clip-rule="evenodd" d="M132.798 60.406C132.798 60.406 130.59 66.7147 130.275 67.661C130.275 67.5033 133.745 66.557 132.798 60.406Z" fill="#FFFF59"/>
<path fill-rule="evenodd" clip-rule="evenodd" d="M144.627 62.2985C144.627 62.2985 143.05 63.4025 142.261 66.3992C142.261 66.3992 144.154 67.3455 144.627 62.2985Z" fill="#FFFF59"/>
<defs>
<radialGradient id="paint0_radial_4_1617" cx="0" cy="0" r="1" gradientUnits="userSpaceOnUse" gradientTransform="translate(28.5658 39.7057) scale(120.026 120.026)">
<stop offset="0.00558659" stop-color="#FFB80B"/>
<stop offset="0.258" stop-color="#FFB60C"/>
<stop offset="0.384" stop-color="#FEAE10"/>
<stop offset="0.4821" stop-color="#FCA117"/>
<stop offset="0.5656" stop-color="#FA8E21"/>
<stop offset="0.6392" stop-color="#F7762E"/>
<stop offset="0.662" stop-color="#F66D33"/>
<stop offset="0.7209" stop-color="#EF6836"/>
<stop offset="0.8061" stop-color="#DC593D"/>
<stop offset="0.9068" stop-color="#BD4049"/>
<stop offset="0.9832" stop-color="#A02A54"/>
</radialGradient>
<linearGradient id="paint1_linear_4_1617" x1="6.38031" y1="96.6342" x2="42.5589" y2="96.6342" gradientUnits="userSpaceOnUse">
<stop offset="0.0111732" stop-color="#FFA90B"/>
<stop offset="0.3713" stop-color="#FFA60E"/>
<stop offset="0.6354" stop-color="#FF9D16"/>
<stop offset="0.868" stop-color="#FF8D25"/>
<stop offset="1" stop-color="#FF8031"/>
</linearGradient>
<linearGradient id="paint2_linear_4_1617" x1="11.2822" y1="53.459" x2="25.6871" y2="53.0022" gradientUnits="userSpaceOnUse">
<stop offset="0.0111732" stop-color="#FFA90B"/>
<stop offset="0.3713" stop-color="#FFA60E"/>
<stop offset="0.6354" stop-color="#FF9D16"/>
<stop offset="0.868" stop-color="#FF8D25"/>
<stop offset="1" stop-color="#FF8031"/>
</linearGradient>
<linearGradient id="paint3_linear_4_1617" x1="12.1695" y1="53.4309" x2="24.7685" y2="53.0313" gradientUnits="userSpaceOnUse">
<stop offset="0.0111732" stop-color="#FFE00B"/>
<stop offset="0.3061" stop-color="#FFDD0D"/>
<stop offset="0.5224" stop-color="#FFD412"/>
<stop offset="0.7136" stop-color="#FFC41B"/>
<stop offset="0.8891" stop-color="#FFAD27"/>
<stop offset="1" stop-color="#FF9B31"/>
</linearGradient>
<linearGradient id="paint4_linear_4_1617" x1="41.3264" y1="56.7535" x2="113.323" y2="67.966" gradientUnits="userSpaceOnUse">
<stop offset="0.0111732" stop-color="#FFE00B"/>
<stop offset="0.3061" stop-color="#FFDD0D"/>
<stop offset="0.5224" stop-color="#FFD412"/>
<stop offset="0.7136" stop-color="#F67C27"/>
<stop offset="0.8891" stop-color="#ED6930"/>
<stop offset="1" stop-color="#E76332"/>
</linearGradient>
<linearGradient id="paint5_linear_4_1617" x1="0.123678" y1="54.1521" x2="107.608" y2="54.1521" gradientUnits="userSpaceOnUse">
<stop offset="0.0111732" stop-color="#FFE00B"/>
<stop offset="0.3061" stop-color="#FFDD0D"/>
<stop offset="0.5224" stop-color="#FFD412"/>
<stop offset="0.7136" stop-color="#FFC41B"/>
<stop offset="0.8891" stop-color="#FFAD27"/>
<stop offset="1" stop-color="#FF9B31"/>
</linearGradient>
<linearGradient id="paint6_linear_4_1617" x1="99.7301" y1="133.343" x2="119.44" y2="133.343" gradientUnits="userSpaceOnUse">
<stop offset="0.0111732" stop-color="#FFE00B"/>
<stop offset="0.3061" stop-color="#FFDD0D"/>
<stop offset="0.5224" stop-color="#FFD412"/>
<stop offset="0.7136" stop-color="#FFC41B"/>
<stop offset="0.8891" stop-color="#FFAD27"/>
<stop offset="1" stop-color="#FF9B31"/>
</linearGradient>
<linearGradient id="paint7_linear_4_1617" x1="123.132" y1="29.0231" x2="132.833" y2="29.0231" gradientUnits="userSpaceOnUse">
<stop offset="0.0111732" stop-color="#FFE00B"/>
<stop offset="0.3061" stop-color="#FFDD0D"/>
<stop offset="0.5224" stop-color="#FFD412"/>
<stop offset="0.7136" stop-color="#FFC41B"/>
<stop offset="0.8891" stop-color="#FFAD27"/>
<stop offset="1" stop-color="#FF9B31"/>
</linearGradient>
</defs>
</svg>
