<svg width="150" height="150" viewBox="0 0 150 150" fill="none" xmlns="http://www.w3.org/2000/svg">
<path fill-rule="evenodd" clip-rule="evenodd" d="M149.359 74.6005C149.359 81.8555 148.412 88.7951 146.52 95.2615C142.735 108.51 135.322 120.181 125.543 129.329C118.604 135.795 110.245 141 101.255 144.469C93.0536 147.624 84.0637 149.359 74.7583 149.359C73.4966 149.359 72.0771 149.359 70.8154 149.201C68.9228 149.043 66.8725 148.885 64.9798 148.728C50.4698 146.835 37.3792 140.842 26.8122 131.852C22.8692 128.54 19.2417 124.755 15.9296 120.654C13.5639 117.657 11.3558 114.345 9.30548 110.876C8.83233 110.087 8.3592 109.298 8.04376 108.352C8.04376 108.352 8.04376 108.352 8.04376 108.194C7.57061 107.248 7.09745 106.459 6.78201 105.513C5.52027 102.674 4.41624 99.6776 3.46993 96.6809C2.83906 94.4729 2.20821 92.2649 1.73505 90.0568C1.41962 88.4796 1.10418 86.9025 0.946464 85.1676C0.47331 81.6978 0.157875 78.228 0.157875 74.6005C0.157875 72.5501 0.315588 70.4998 0.473306 68.4495C0.631023 67.1877 0.788746 65.926 0.946464 64.6643C1.89277 57.2515 3.94308 50.3119 6.93972 43.8455C8.35918 40.6911 10.0941 37.5368 11.9867 34.5402C15.1411 29.6509 18.7686 25.0771 23.0269 21.1342C36.4329 8.04359 54.8859 0 75.0738 0C75.8624 0 76.651 0 77.4396 0C78.2281 0 79.1744 9.62397e-06 79.963 0.157727C84.2214 0.473163 88.4798 1.10403 92.4227 2.05033C94.7885 2.68121 97.1543 3.31208 99.3623 4.10067C100.939 4.57382 102.359 5.20468 103.936 5.83555C105.04 6.3087 106.144 6.78187 107.248 7.25502C107.406 7.41274 107.564 7.41274 107.879 7.57045C115.134 11.0402 121.758 15.7718 127.436 21.4496C128.225 22.2382 129.013 23.0268 129.802 23.8154C130.275 24.4463 130.906 24.9194 131.379 25.5503C132.325 26.4966 133.114 27.6006 133.902 28.5469C136.899 32.3321 139.423 36.4328 141.631 40.6911C144.154 45.7381 146.204 51.1005 147.624 56.6206C148.57 62.2985 149.359 68.2917 149.359 74.6005Z" fill="url(#paint0_radial_4_1270)"/>
<path d="M93.842 55.2015C93.842 54.5706 95.9449 54.9386 96.9964 55.2015H101.728C103.621 55.2015 100.939 56.7785 99.3622 57.567C98.5736 57.8298 96.681 58.3556 95.4192 58.3556C93.842 58.3556 93.842 55.99 93.842 55.2015Z" fill="url(#paint1_linear_4_1270)"/>
<path fill-rule="evenodd" clip-rule="evenodd" d="M107.406 7.41257C107.09 7.41257 106.933 7.41258 106.617 7.5703C105.829 7.72802 105.04 7.57029 104.251 7.41257C103.621 7.25486 103.305 6.93941 102.517 6.93941C101.57 6.7817 100.782 6.46627 99.8353 6.30855C98.889 6.15084 98.1004 5.8354 97.1541 5.51997C96.3655 5.20453 96.0501 5.36225 95.4192 5.51997C94.7883 5.67768 94.3152 5.36225 93.6843 5.20453C93.0534 4.8891 92.2649 4.88909 91.634 4.73138C89.7414 4.41594 87.8488 3.78508 85.9561 3.31193C84.8521 2.99649 83.7481 2.99647 82.4864 2.99647C81.5401 2.99647 80.7515 3.31193 79.8052 3.31193C79.1743 3.31193 78.7011 3.1542 78.0703 3.1542C77.4394 2.99648 76.8085 3.1542 76.1777 3.1542C75.2314 2.99648 74.7582 2.83876 73.8119 3.1542C73.0233 3.31192 72.5501 3.31191 71.7616 3.46963C70.973 3.46963 70.0266 3.78507 69.2381 3.94279C67.8186 4.25822 66.2414 4.57365 64.822 4.57365C63.8757 4.57365 62.6139 4.25821 61.8253 4.57365C61.3522 4.73137 61.0367 5.36226 60.5636 5.67769C59.775 6.46628 58.9864 7.09714 58.3556 7.88573C57.7247 8.67432 57.0938 9.62061 57.0938 10.7246C57.0938 11.6709 57.567 12.775 58.0401 13.5636C58.5133 14.5099 58.671 15.2985 57.7247 15.9293C56.6207 16.7179 55.2012 17.3488 53.9394 17.8219C52.9931 18.1374 52.2046 18.2951 51.5737 17.6642C51.2582 17.5065 51.1005 17.0334 50.7851 16.7179C50.4697 16.5602 49.9965 16.7179 49.6811 16.8757C48.7348 17.1911 47.7885 17.5065 46.8422 17.6642C46.2113 17.822 45.7381 18.1374 45.1073 18.1374C44.4764 18.2951 44.0032 17.8219 43.2146 17.9797C42.2683 18.1374 41.1643 18.6105 40.218 18.6105C39.4294 18.6105 38.4831 18.2951 37.8522 17.9797C37.5368 17.8219 37.3791 17.5065 36.9059 17.6642C36.5905 17.6642 36.1174 18.1374 35.9596 18.4528C35.6442 18.7683 35.6442 19.2414 35.3288 19.5568C35.0133 20.03 34.8556 20.3454 34.5402 20.8186C34.067 21.6072 33.5939 22.3958 33.1207 23.1844C32.8053 23.6575 32.4899 24.4461 32.0167 24.9192C31.859 25.2347 31.3858 25.3924 31.0704 25.5501C30.2818 26.0233 29.4932 26.6542 28.7046 27.1273C27.2852 28.2313 25.8657 29.493 24.4462 30.5971C23.3422 31.3857 21.765 31.8588 20.5033 32.4897C19.7147 32.8051 18.9261 33.1206 18.1375 33.436C17.8221 33.5937 17.3489 33.5937 17.1912 33.9092C16.8758 34.2246 16.7181 34.54 16.5604 35.0132C15.9295 35.8018 15.1409 36.7481 14.6678 37.6944C14.3523 38.3252 14.1946 38.7984 13.8792 39.4293C13.5637 40.2179 13.0906 41.0065 12.9328 41.9528C12.302 43.6877 12.302 45.5803 11.5134 47.3152C11.198 48.2615 10.5671 49.2077 10.0939 50.1541C9.30534 51.7312 9.14762 53.6239 8.9899 55.3588C8.83219 56.3051 8.98991 57.5668 9.14763 58.5131C9.30535 59.6171 9.30534 60.7212 9.30534 61.8252C9.30534 62.9292 8.51676 64.191 7.88589 64.9796C7.25501 65.7682 6.15098 66.0836 5.36239 66.8721C4.73152 67.503 3.94295 68.1339 3.62751 69.0802C3.46979 69.3956 3.62751 69.8688 3.62751 70.3419C3.46979 71.2883 3.15435 72.0768 3.15435 73.0231C2.99664 74.1271 2.99663 75.2312 2.99663 76.4929C2.99663 77.1238 2.99663 77.597 2.99663 78.2278C2.99663 78.8587 3.15436 79.3319 3.31208 79.805C3.31208 80.1205 3.31208 80.5936 3.31208 80.909C3.31208 81.3822 3.62751 81.8553 3.62751 82.1708C3.94295 83.2748 4.10066 84.2211 4.25837 85.3251C4.41609 86.2714 4.88924 87.2177 5.04696 88.164C5.52011 89.4258 5.67784 90.6875 5.99328 92.107C6.151 93.0533 6.15099 94.1573 6.30871 95.1036C6.46643 95.8922 6.62414 96.6808 6.62414 97.4694C6.62414 98.7311 6.30871 99.8352 6.30871 101.097C6.30871 103.147 7.0973 105.198 7.57045 107.248C7.72817 107.879 7.88589 108.352 8.04361 108.983C2.83893 98.8889 0 87.3755 0 75.2312C0 60.4057 4.25837 46.6843 11.6711 35.1709C14.8255 30.2816 18.453 25.7078 22.7113 21.7649C36.1173 8.6743 54.5703 0.630707 74.7582 0.630707C76.3354 0.630707 78.0703 0.630716 79.6474 0.788434C89.4259 0.630716 98.889 3.15419 107.406 7.41257Z" fill="url(#paint2_linear_4_1270)"/>
<path d="M89.1108 62.2984C92.896 62.9293 98.0481 64.6642 100.151 65.4528H104.882C106.459 65.4528 115.134 71.7615 116.711 75.7045C118.288 79.6474 123.02 75.7045 126.963 75.7045C130.906 75.7045 121.443 89.1105 118.288 92.2648C115.134 95.4192 120.654 101.728 121.443 103.305C122.231 104.882 119.077 107.248 118.288 113.557C117.5 119.865 115.134 128.54 113.557 134.06C112.295 138.476 106.197 142.209 103.305 143.523C102.254 144.049 99.5201 144.154 96.9964 140.369C93.8418 135.637 92.2649 127.751 91.4763 124.597C90.6877 121.443 97.785 104.882 83.5904 103.305C69.3958 101.728 77.282 115.134 59.1445 101.728C41.0069 88.3219 61.5102 62.2984 63.0874 59.9327C64.6646 57.567 68.6075 59.9327 75.7048 57.5669C81.3826 55.6743 87.0079 56.7783 89.1108 57.5669C87.5336 58.8812 85.3255 61.6676 89.1108 62.2984Z" fill="url(#paint3_linear_4_1270)"/>
<path d="M11.1147 106.49C11.6313 104.961 9.1774 99.9092 7.88588 97.5741C8.96215 96.0882 11.6313 93.4984 13.6977 95.0268C16.2808 96.9373 24.0299 92.4794 26.6129 93.1163C29.1959 93.7531 35.0078 94.39 35.6535 96.3005C36.2993 98.211 36.2993 102.669 37.5908 104.579C38.624 106.108 37.5908 110.311 36.9451 112.221C36.7298 112.858 35.9118 114.259 34.362 114.769C32.4247 115.406 36.9451 115.406 40.8196 116.679C44.6942 117.953 42.1111 124.321 43.4027 127.506C44.6942 130.69 51.7975 136.421 53.0891 137.695C54.3806 138.969 53.0891 140.879 51.7975 140.242C50.506 139.605 36.2993 128.142 29.8417 126.869C24.6756 125.85 15.2045 115.83 11.1147 110.948C10.8994 110.099 10.5981 108.018 11.1147 106.49Z" fill="url(#paint4_linear_4_1270)"/>
<path d="M28.3895 44.161V41.0067V37.0637C28.3895 35.4866 26.8123 35.4865 25.2351 33.1208C23.658 30.755 25.2351 31.5436 27.6009 30.755C29.9667 29.9664 29.1781 32.3322 29.1781 33.1208C29.1781 33.9094 32.3324 35.4865 33.121 35.4865C33.9096 35.4865 37.064 35.4865 36.2754 37.0637C35.4868 38.6409 35.4868 39.4295 33.121 42.5838C31.2284 45.1073 29.1781 44.6867 28.3895 44.161Z" fill="url(#paint5_linear_4_1270)"/>
<path d="M26.8116 38.6408C27.4425 38.01 24.4459 35.7494 22.8687 34.6979C22.6058 36.0122 21.7647 38.9563 20.5029 40.218C18.9258 41.7952 22.8687 41.7952 24.4459 42.5838C26.0231 43.3724 26.0231 39.4294 26.8116 38.6408Z" fill="url(#paint6_linear_4_1270)"/>
<path d="M126.963 104.093C128.855 104.093 130.38 100.939 130.906 99.3619C131.561 97.7847 133.271 97.7847 134.06 98.5733C134.849 99.3619 134.06 108.036 131.694 111.979C129.329 115.922 126.963 115.134 125.386 115.134C123.809 115.134 125.386 111.979 126.963 110.402C128.54 108.825 124.597 104.093 126.963 104.093Z" fill="url(#paint7_linear_4_1270)"/>
<path fill-rule="evenodd" clip-rule="evenodd" d="M104.882 58.3548C104.882 60.8783 103.305 62.0349 102.516 62.2978L107.248 64.6642C106.985 63.8754 107.248 62.2978 110.402 62.2978C112.374 62.2978 114.148 65.4522 115.923 68.6066C117.697 71.7611 119.471 74.9155 121.443 74.9155C125.386 74.9155 134.849 69.3958 137.214 67.03C139.107 65.1374 136.426 62.0356 134.849 60.7213C134.323 62.2985 131.852 64.0332 126.174 58.3548C119.077 51.2568 121.443 49.6807 126.174 52.8347C129.959 55.3579 132.483 54.9377 133.271 54.4122C134.323 53.8864 137.53 53.4656 141.946 55.9894C146.362 58.5132 146.415 75.9673 145.889 84.3789C147.466 78.0702 149.99 63.5601 147.466 55.9894C139.58 32.3314 130.117 23.6573 121.443 15.7714C114.503 9.46268 96.9964 3.15421 89.1105 0.788559C87.0075 1.84001 82.4862 4.7315 81.2246 7.88586C79.7425 11.5917 78.9566 11.8142 74.2845 13.1373C73.9855 13.2219 73.6707 13.3111 73.3387 13.406C69.5279 14.495 69.4754 14.4561 68.2517 13.5492C67.7028 13.1424 66.9183 12.561 65.4533 11.8284C61.9409 10.0721 57.124 12.2274 52.9396 14.0997C51.4875 14.7494 50.1116 15.3651 48.8928 15.7714C44.1616 17.3486 40.2183 22.0801 40.2183 23.6573C40.2183 24.216 39.8224 24.6757 39.4514 25.1066C38.775 25.8921 38.1812 26.5817 40.2183 27.6002C42.2905 28.6362 44.0219 28.3112 45.8603 27.9662C46.8207 27.7859 47.8103 27.6002 48.8928 27.6002C52.0475 27.6002 50.4697 29.966 48.8928 31.5432C47.316 33.1203 44.1609 33.9089 40.2183 34.6975C38.1108 35.119 37.8057 36.4419 37.376 38.3047C37.0019 39.9267 36.5333 41.9581 34.6982 44.1602C32.4304 46.8816 31.6571 47.8638 31.4992 48.1033C30.1816 48.1103 28.0949 48.4328 29.9664 49.6807L29.9706 49.6835C32.3349 51.2601 34.6963 52.8347 31.5435 52.8347C30.1647 52.8347 29.238 53.8892 28.3681 54.8789C27.2478 56.1537 26.2219 57.321 24.4462 55.9894C22.0805 54.2153 20.6021 56.4329 18.68 59.316C18.0393 60.2771 17.3493 61.312 16.5607 62.2978C14.5391 64.8247 15.1087 66.3801 15.7785 68.2093C16.1539 69.2342 16.5607 70.3452 16.5607 71.7612C16.5607 73.8023 17.406 73.7302 18.6589 73.6233C19.8264 73.5238 21.3479 73.394 22.8694 74.9155C25.7862 77.8324 31.4003 74.0062 34.0998 72.1664C34.3196 72.0166 34.5201 71.8799 34.6982 71.7612C37.064 70.184 41.0069 58.3548 40.2183 55.9894C39.5497 53.9838 44.5505 50.8437 47.5294 48.9733C48.0637 48.6378 48.533 48.3431 48.8928 48.1032C50.5978 46.9663 52.3028 48.2874 54.8933 50.2947C55.8973 51.0727 57.0343 51.9537 58.3559 52.8347C61.2568 54.7685 61.1934 54.924 60.8919 55.6636C60.7016 56.1303 60.4165 56.8295 60.7216 58.3548C61.1159 60.3261 61.5103 59.5376 62.2003 58.1577C62.8903 56.7778 63.8761 54.8065 65.4533 54.4122C68.6076 53.6236 67.0304 50.4693 62.2989 49.6807C57.5674 48.8921 52.8358 44.1602 55.2016 44.1602H65.4533C69.3962 44.1602 71.7616 46.5263 70.1844 48.1032C68.6073 49.68 76.4931 52.8347 78.8589 52.8347C80.5864 52.8347 79.3706 50.312 77.9748 47.4156C77.459 46.3454 76.9186 45.2241 76.4931 44.1602C75.3934 41.4111 78.1274 42.4955 80.4182 43.4042C81.4129 43.7988 82.3241 44.1602 82.8015 44.1602C84.3784 44.1602 85.1673 45.7374 82.8015 48.1032C80.4358 50.4689 89.1103 52.8347 91.476 52.8347H100.939C104.882 52.8347 104.882 55.2005 104.882 58.3548ZM86.7447 43.372C88.5847 43.6349 92.5802 44.0029 93.842 43.372C95.1037 42.7411 99.0992 44.6863 100.939 45.7378C101.991 46.0006 103.936 46.2109 103.305 44.9492C102.516 43.372 97.7849 37.8519 94.6306 38.6405C91.4762 39.4291 85.9561 42.583 86.7447 43.372Z" fill="url(#paint8_linear_4_1270)"/>
<defs>
<radialGradient id="paint0_radial_4_1270" cx="0" cy="0" r="1" gradientUnits="userSpaceOnUse" gradientTransform="translate(28.3936 39.5715) scale(120.026 120.026)">
<stop offset="0.00558659" stop-color="#0CB9C4"/>
<stop offset="0.2058" stop-color="#0C96C1"/>
<stop offset="0.3613" stop-color="#0B79B7"/>
<stop offset="0.5018" stop-color="#096EA7"/>
<stop offset="0.6334" stop-color="#075E8F"/>
<stop offset="0.7576" stop-color="#044A72"/>
<stop offset="0.8715" stop-color="#003C74"/>
</radialGradient>
<linearGradient id="paint1_linear_4_1270" x1="98.1105" y1="54.8531" x2="98.1105" y2="58.3556" gradientUnits="userSpaceOnUse">
<stop stop-color="#43991F"/>
<stop offset="1" stop-color="#4BFF00" stop-opacity="0"/>
</linearGradient>
<linearGradient id="paint2_linear_4_1270" x1="-0.0520469" y1="54.0212" x2="107.432" y2="54.0212" gradientUnits="userSpaceOnUse">
<stop stop-color="#2CB3FF"/>
<stop offset="0.0885417" stop-color="#2CA6FF"/>
<stop offset="0.2325" stop-color="#2DCAFC"/>
<stop offset="0.3947" stop-color="#32AEF3"/>
<stop offset="0.5382" stop-color="#3A7EE3"/>
<stop offset="0.6707" stop-color="#446ACD"/>
<stop offset="0.7958" stop-color="#4268B1"/>
<stop offset="0.9136" stop-color="#1F598E"/>
<stop offset="1" stop-color="#005D72"/>
</linearGradient>
<linearGradient id="paint3_linear_4_1270" x1="89.8036" y1="56.5219" x2="89.8036" y2="143.79" gradientUnits="userSpaceOnUse">
<stop stop-color="#43991F"/>
<stop offset="1" stop-color="#4BFF00" stop-opacity="0"/>
</linearGradient>
<linearGradient id="paint4_linear_4_1270" x1="30.7549" y1="93.0534" x2="30.7549" y2="140.369" gradientUnits="userSpaceOnUse">
<stop stop-color="#43991F"/>
<stop offset="1" stop-color="#4BFF00" stop-opacity="0"/>
</linearGradient>
<linearGradient id="paint5_linear_4_1270" x1="30.5006" y1="30.5963" x2="30.5006" y2="44.5598" gradientUnits="userSpaceOnUse">
<stop stop-color="#43991F"/>
<stop offset="1" stop-color="#4BFF00" stop-opacity="0"/>
</linearGradient>
<linearGradient id="paint6_linear_4_1270" x1="23.5175" y1="34.6979" x2="23.5175" y2="42.6875" gradientUnits="userSpaceOnUse">
<stop stop-color="#43991F"/>
<stop offset="1" stop-color="#4BFF00" stop-opacity="0"/>
</linearGradient>
<linearGradient id="paint7_linear_4_1270" x1="129.544" y1="98.0553" x2="129.544" y2="115.198" gradientUnits="userSpaceOnUse">
<stop stop-color="#43991F"/>
<stop offset="1" stop-color="#4BFF00" stop-opacity="0"/>
</linearGradient>
<linearGradient id="paint8_linear_4_1270" x1="81.8477" y1="0.788559" x2="81.8477" y2="84.3789" gradientUnits="userSpaceOnUse">
<stop stop-color="#43991F"/>
<stop offset="1" stop-color="#4BFF00" stop-opacity="0"/>
</linearGradient>
</defs>
</svg>
