<svg width="157" height="155" viewBox="0 0 157 155" fill="none" xmlns="http://www.w3.org/2000/svg">
<path fill-rule="evenodd" clip-rule="evenodd" d="M156.614 94.9458L155.983 96.9962C155.983 97.1539 155.983 97.1539 155.825 97.3116C154.248 102.674 152.198 107.721 149.674 112.453C145.573 120.181 140.053 127.278 133.745 133.271C126.332 140.211 117.5 145.731 107.721 149.358C98.889 152.671 89.4259 154.563 79.4897 154.563C78.0703 154.563 76.6508 154.563 75.2313 154.405C73.181 154.248 71.1307 154.09 69.0803 153.775C55.6743 152.04 43.3724 146.993 32.963 139.422C32.0167 138.634 31.0704 138.003 30.1241 137.214C32.0167 135.637 35.8019 135.479 35.8019 135.479L30.4395 131.221L17.0335 123.966C14.51 120.654 12.1443 117.184 10.0939 113.557C9.62077 112.61 9.14763 111.822 8.67447 110.875C8.67447 110.875 8.67447 110.875 8.67447 110.718C8.20132 109.771 7.72818 108.825 7.25502 107.879C5.83556 104.882 4.73151 101.728 3.62749 98.4156C2.8389 96.0498 2.20806 93.6841 1.7349 91.3183C1.41947 89.5834 1.10402 87.8485 0.788589 86.1136C0.315435 82.4861 0 78.7009 0 74.9157C0 73.9694 0 73.1808 0 72.2345C0 70.9728 0.157727 69.5533 0.157727 68.2916C0.315445 67.0298 0.473134 65.768 0.473134 64.5063C0.473134 64.3486 0.473134 64.3486 0.473134 64.1909C0.788569 62.456 0.946297 60.7211 1.41945 58.9862C1.8926 56.4627 2.52349 54.097 3.31208 51.7312C4.25839 48.4191 5.52011 45.107 6.93957 42.1104C8.35903 39.1138 9.93621 36.1171 11.6711 33.2782C17.0335 30.4393 20.5033 28.8621 20.5033 28.8621C20.5033 28.8621 113.084 10.5669 114.503 8.98969C115.923 7.41252 122.862 8.35881 122.862 8.35881C127.278 11.1977 131.221 14.5098 135.006 18.1373C135.953 18.9259 136.741 19.8722 137.53 20.6608C138.003 21.2917 138.634 21.9226 139.107 22.5534C140.053 23.6574 140.842 24.6038 141.788 25.7078C144.943 29.8084 147.781 34.0668 150.147 38.6406C151.094 40.3755 151.882 42.2681 152.671 44.003C159.768 71.919 150.936 95.7344 150.936 95.7344C153.302 95.2613 155.194 95.1036 156.614 94.9458Z" fill="url(#paint0_radial_4_1584)"/>
<path fill-rule="evenodd" clip-rule="evenodd" d="M156.614 94.9458L155.983 96.9962C155.983 97.1539 155.983 97.1539 155.825 97.3116C154.248 102.674 152.198 107.721 149.674 112.453C145.573 120.181 140.053 127.278 133.745 133.271C126.332 140.211 117.5 145.731 107.721 149.358C98.889 152.671 89.4259 154.563 79.4897 154.563C78.0703 154.563 76.6508 154.563 75.2313 154.405C73.181 154.248 71.1307 154.09 69.0803 153.775C55.6743 152.04 43.3724 146.993 32.963 139.422C32.0167 138.634 31.0704 138.003 30.1241 137.214C32.0167 135.637 35.8019 135.479 35.8019 135.479L30.4395 131.221L17.0335 123.966C14.51 120.654 12.1443 117.184 10.0939 113.557C9.62077 112.61 9.14763 111.822 8.67447 110.875C8.67447 110.875 8.67447 110.875 8.67447 110.718C8.20132 109.771 7.72818 108.825 7.25502 107.879C5.83556 104.882 4.73151 101.728 3.62749 98.4156C2.8389 96.0498 2.20806 93.6841 1.7349 91.3183C1.41947 89.5834 1.10402 87.8485 0.788589 86.1136C0.315435 82.4861 0 78.7009 0 74.9157C0 73.9694 0 73.1808 0 72.2345C0 70.9728 0.157727 69.5533 0.157727 68.2916C0.315445 67.0298 0.473134 65.768 0.473134 64.5063C0.473134 64.3486 0.473134 64.3486 0.473134 64.1909C0.788569 62.456 0.946297 60.7211 1.41945 58.9862C1.8926 56.4627 2.52349 54.097 3.31208 51.7312C4.25839 48.4191 5.52011 45.107 6.93957 42.1104C8.35903 39.1138 9.93621 36.1171 11.6711 33.2782C17.0335 30.4393 20.5033 28.8621 20.5033 28.8621C20.5033 28.8621 113.084 10.5669 114.503 8.98969C115.923 7.41252 122.862 8.35881 122.862 8.35881C127.278 11.1977 131.221 14.5098 135.006 18.1373C135.953 18.9259 136.741 19.8722 137.53 20.6608C138.003 21.2917 138.634 21.9226 139.107 22.5534C140.053 23.6574 140.842 24.6038 141.788 25.7078C144.943 29.8084 147.781 34.0668 150.147 38.6406C151.094 40.3755 151.882 42.2681 152.671 44.003C159.768 71.919 150.936 95.7344 150.936 95.7344C153.302 95.2613 155.194 95.1036 156.614 94.9458Z" fill="url(#paint1_radial_4_1584)"/>
<path fill-rule="evenodd" clip-rule="evenodd" d="M154.406 75.0736C154.406 77.9126 154.249 80.7515 153.933 83.4327C153.46 87.691 152.671 91.7917 151.567 95.7347C151.567 95.8924 151.567 95.8924 151.567 96.0501C150.148 101.097 148.098 105.829 145.732 110.245C141.789 117.5 136.742 124.124 130.749 129.802C123.809 136.268 115.45 141.473 106.302 144.943C98.101 148.097 89.1111 149.832 79.8058 149.832C78.5441 149.832 77.1246 149.832 75.8628 149.674C73.9702 149.516 71.9199 149.359 70.0273 149.201C57.4099 147.624 45.8965 142.735 36.118 135.637C34.6985 134.533 33.279 133.429 31.8596 132.325C31.5441 132.01 31.071 131.694 30.7556 131.379C27.2858 128.225 23.9737 124.912 21.1348 121.127C18.769 118.131 16.561 114.818 14.5106 111.349C14.0375 110.56 13.5643 109.772 13.2489 108.825C13.2489 108.825 13.2489 108.825 13.2489 108.667C12.7757 107.721 12.3026 106.933 11.9872 105.986C10.7254 103.147 9.6214 100.151 8.6751 97.1541C8.04422 94.9461 7.41334 92.738 6.94019 90.53C6.62476 88.9528 6.30932 87.3756 6.1516 85.6407C5.67845 82.171 5.36301 78.7011 5.36301 75.0736C5.36301 74.285 5.36301 73.3387 5.36301 72.5501C5.36301 71.2884 5.52074 70.0267 5.52074 68.9227C5.67846 67.6609 5.67843 66.5569 5.83615 65.2951C5.83615 65.1374 5.83615 65.1374 5.83615 64.9797C5.99387 63.4025 6.3093 61.6676 6.62474 60.0905C7.09789 57.7247 7.72877 55.5167 8.35964 53.1509C9.30595 49.9965 10.41 46.9999 11.8294 44.0032C13.2489 40.8489 14.9838 37.6945 16.8764 34.6979C18.1381 32.6476 19.5576 30.5973 21.1348 28.7046C23.1851 26.0234 25.5509 23.4999 27.9166 21.1342C41.3226 8.04359 59.7756 0 79.9635 0C80.7521 0 81.5406 0 82.3292 0C83.1178 0 84.0641 9.62397e-06 84.8527 0.157727C87.2185 0.315445 89.4265 0.63088 91.7923 0.946316C91.7923 0.946316 91.7923 0.946316 91.95 0.946316C93.8426 1.26175 95.7353 1.57718 97.4701 2.05033C99.8359 2.68121 102.202 3.31208 104.41 4.10067C105.987 4.57382 107.406 5.2047 108.984 5.83557C110.088 6.30873 111.192 6.78187 112.296 7.25502C112.453 7.41274 112.611 7.41274 112.927 7.57045C120.182 11.0402 126.806 15.7718 132.483 21.4496C133.272 22.2382 134.061 23.0268 134.849 23.8154C135.322 24.4463 135.953 24.9194 136.426 25.5503C137.215 26.4966 138.161 27.6006 138.95 28.5469C141.947 32.3321 144.47 36.4328 146.678 40.6912C149.202 45.7382 151.252 51.1005 152.671 56.6206C153.618 60.0904 154.091 63.718 154.564 67.5032C154.249 70.1844 154.406 72.5502 154.406 75.0736Z" fill="url(#paint2_radial_4_1584)"/>
<path fill-rule="evenodd" clip-rule="evenodd" d="M43.2143 45.2649C43.2143 45.2649 41.1639 49.681 42.8988 54.0971C44.476 58.5132 49.2075 55.6743 54.7276 54.0971C60.2477 52.5199 65.9256 46.842 69.5531 43.2145C73.1806 39.587 76.6504 34.6978 76.335 29.9663C76.0195 25.2347 70.9726 22.0804 70.9726 22.0804C70.9726 22.0804 72.8652 19.7146 71.288 29.1777C69.7108 38.483 67.6605 41.9528 65.6102 43.3723C63.5599 44.7917 57.5666 48.4192 54.2545 50.4696C50.9424 52.5199 47.1572 54.5702 44.9492 54.0971C42.5834 53.3085 41.4794 48.4192 43.2143 45.2649Z" fill="url(#paint3_radial_4_1584)"/>
<path fill-rule="evenodd" clip-rule="evenodd" d="M53.3083 41.9528C53.3083 41.9528 50.4694 44.4763 51.258 46.5266C52.0466 48.5769 57.409 47.3152 60.8788 42.8991C64.3486 38.483 61.6674 35.0132 61.6674 35.0132C61.6674 35.0132 60.4056 42.2682 57.0936 43.53C53.7815 44.7917 52.6775 44.3185 52.6775 44.3185C52.6775 44.3185 51.8889 43.6877 53.3083 41.9528Z" fill="url(#paint4_radial_4_1584)"/>
<path fill-rule="evenodd" clip-rule="evenodd" d="M44.7924 45.1071C44.7924 45.1071 47.4737 41.9528 50.628 39.1139C53.7824 36.1172 59.1448 35.0132 59.1448 35.0132C59.1448 35.0132 55.9904 33.2783 51.8897 35.6441C47.9468 38.1676 44.7924 45.1071 44.7924 45.1071Z" fill="url(#paint5_radial_4_1584)"/>
<path fill-rule="evenodd" clip-rule="evenodd" d="M33.4365 45.2647C33.4365 45.2647 39.9029 38.1674 47.6311 35.1707C55.3592 32.1741 58.0405 31.2278 61.5102 28.3889C64.98 25.5499 68.7653 23.3419 68.7653 23.3419C68.7653 23.3419 61.1948 23.6573 49.6814 31.0701C38.168 38.1674 33.4365 42.8989 33.4365 45.2647Z" fill="url(#paint6_radial_4_1584)"/>
<path fill-rule="evenodd" clip-rule="evenodd" d="M17.8233 43.8453C17.8233 43.8453 28.8636 32.805 37.538 28.3889C46.2125 23.9728 52.0481 21.2916 59.7763 19.2413C67.5044 17.3487 79.491 13.8789 79.491 13.8789L81.699 12.7749C81.699 12.7749 56.9373 13.248 40.8501 23.0265C24.7629 32.805 17.8233 43.8453 17.8233 43.8453Z" fill="url(#paint7_radial_4_1584)"/>
<path fill-rule="evenodd" clip-rule="evenodd" d="M31.2284 56.6207C31.2284 56.6207 33.121 71.9193 35.8022 72.5502C38.4834 73.181 47.9464 73.1811 62.141 65.926C76.3356 58.671 79.1745 60.4059 87.0604 52.3623C94.9463 44.3187 98.2584 35.1711 100.624 29.1778C103.148 23.1845 103.779 16.2449 102.99 14.1946C102.99 14.1946 105.671 15.7718 105.671 21.7651C105.671 27.7584 103.936 37.8523 101.413 43.5301C98.8893 49.3657 92.2651 58.5133 84.3792 62.9294C76.4934 67.3455 60.5639 76.02 45.1075 75.8622C29.4935 75.7045 32.0169 74.6005 30.4398 71.4462C28.7049 68.2918 31.2284 56.6207 31.2284 56.6207Z" fill="url(#paint8_radial_4_1584)"/>
<path opacity="0.5" fill-rule="evenodd" clip-rule="evenodd" d="M6.94019 69.5535C6.94019 69.5535 9.77913 75.7045 11.1986 81.3823C12.7758 87.0601 12.4603 96.5232 18.9267 98.1004C25.3932 99.5198 34.3831 103.778 37.6951 102.674C41.1649 101.57 53.7824 99.3621 60.8797 100.782C67.977 102.201 80.7521 101.412 85.1682 99.2044C89.5843 96.9963 99.3628 91.1608 103.937 89.4259C108.51 87.691 114.819 82.644 120.339 77.1239C125.859 71.6038 125.702 65.2951 127.121 62.1407C128.541 58.9864 131.222 46.5267 130.906 40.8488C130.591 35.171 127.121 24.6039 127.121 24.6039L123.967 21.2918C123.967 21.2918 127.91 35.8019 126.175 46.2113C124.44 56.4629 126.017 60.7213 118.92 70.4998C111.822 80.436 101.729 88.1642 90.5306 91.7917C79.3326 95.5769 72.0776 95.1037 60.5642 96.2077C49.6817 97.1541 36.118 96.5232 30.7556 95.1038C25.8663 93.842 19.3999 90.6876 14.5106 82.8017C9.30594 74.6004 6.94019 69.5535 6.94019 69.5535Z" fill="#7D72B3"/>
<path opacity="0.4" fill-rule="evenodd" clip-rule="evenodd" d="M31.7015 53.466C31.7015 53.466 32.8056 70.0264 34.8559 71.4458C36.9062 72.8653 41.48 73.4962 45.5807 72.0767C49.8391 70.6572 64.0336 65.9257 66.5571 64.5062C69.0806 63.0868 84.0638 55.5163 87.0604 53.1506C90.0571 50.9425 94 42.8989 95.4195 41.3217C96.8389 39.7446 100.466 29.8083 101.413 26.0231C102.517 22.2379 103.148 17.8218 103.148 17.8218C103.148 17.8218 103.463 15.7715 101.728 14.9829C99.9933 14.352 99.6778 14.9829 99.6778 14.9829C99.6778 14.9829 99.3624 17.5064 97.7852 24.6037C96.2081 31.701 75.0739 55.9895 64.3491 62.4559C53.6243 68.7646 43.5303 69.08 39.9028 68.6069C36.1176 68.1337 31.5438 56.3049 31.7015 53.466Z" fill="#7D72B3"/>
<path opacity="0.4" fill-rule="evenodd" clip-rule="evenodd" d="M31.2288 56.6205C31.2288 56.6205 31.7019 46.3689 34.3831 42.8991C37.0644 39.4293 46.0543 32.332 51.259 29.6508C56.6214 26.9696 64.1918 23.1844 66.873 22.5535C69.5542 21.9226 71.4468 22.5535 71.4468 22.5535C71.4468 22.5535 68.2925 20.8186 60.8798 22.7112C53.467 24.6038 45.108 31.3857 41.0073 33.5937C36.9067 35.6441 30.7557 40.8487 29.1785 43.5299C27.759 45.8957 31.2288 56.6205 31.2288 56.6205Z" fill="#7D72B3"/>
<path opacity="0.4" fill-rule="evenodd" clip-rule="evenodd" d="M12.9332 45.7379L35.8022 25.7078L49.9968 19.2414C49.9968 19.2414 64.0337 14.5098 70.5001 12.9326C76.9666 11.3555 91.3189 11.04 91.3189 11.04L98.8893 11.8286C98.8893 11.8286 85.7988 4.73131 66.2418 9.936C46.8425 15.1407 33.9096 21.7648 28.2318 27.1272C22.7117 32.3319 14.0372 43.0567 12.9332 45.7379Z" fill="#7D72B3"/>
<path fill-rule="evenodd" clip-rule="evenodd" d="M12.3025 46.5264C12.3025 46.5264 0.000567913 61.3519 5.99384 70.4995C11.9871 79.6471 14.6683 92.8954 16.4032 95.8921C18.1381 98.8887 38.0105 103.62 42.1112 102.674C46.2118 101.728 56.1481 99.2041 62.6145 101.57C62.6145 101.57 74.1279 100.624 77.2823 100.624C80.5943 100.624 86.5876 97.7847 88.007 97.1538C89.4265 96.5229 97.1547 93.9994 101.098 92.4223C105.041 90.8451 111.507 85.7981 114.03 83.9055C116.554 81.8552 123.336 73.8116 124.755 71.2881C126.017 68.7646 129.96 54.2546 130.906 47.315C131.853 40.3754 129.014 27.1272 126.648 22.5534C124.282 17.9795 117.343 13.7211 117.343 13.7211L117.816 11.6708L123.336 8.35873C123.336 8.35873 132.957 20.8184 133.745 31.701C134.218 38.0097 135.796 51.5734 134.061 57.4089C132.799 62.1405 128.225 75.7042 124.124 80.5934C120.181 85.4827 108.195 97.9424 101.886 100.466C95.5775 102.832 76.6514 106.144 65.6112 106.301C57.4098 106.459 39.43 105.04 30.5978 104.724C21.7656 104.409 15.4569 98.8887 11.9871 96.0498C8.51735 93.2108 9.62136 85.6404 6.15157 79.4894C2.52406 73.4961 0.631448 65.4526 1.42004 61.0365C2.20863 56.9358 12.3025 46.5264 12.3025 46.5264Z" fill="url(#paint9_radial_4_1584)"/>
<path fill-rule="evenodd" clip-rule="evenodd" d="M33.9096 103.147C32.017 102.674 30.2821 101.728 28.3895 101.255C27.2855 100.939 26.3392 100.781 25.2352 100.466C24.1311 100.15 23.0271 99.9927 21.9231 99.9927C19.715 99.835 17.507 99.3619 16.0875 97.627C14.8258 96.0498 14.0372 94.3149 13.5641 92.2646C12.7755 89.5834 12.1446 86.9022 11.356 84.3787C10.5674 81.8552 9.62109 79.8049 8.20163 77.5968C7.72848 76.8083 7.25533 75.8619 6.62445 75.0733C6.1513 74.2848 5.36275 73.6539 4.8896 72.7076C3.78557 70.4995 3.4701 68.1338 3.4701 65.6103C3.4701 64.3485 3.78557 63.0868 4.10101 61.8251C4.41645 60.2479 4.8896 58.8284 5.67819 57.4089C6.46678 56.1472 7.09764 54.7277 7.88623 53.466C9.62112 50.4694 11.356 47.4727 13.4063 44.7915C16.0875 41.4795 19.0842 38.1674 22.2385 35.1708C23.9734 33.4359 26.0237 31.8587 28.0741 30.2815C29.809 29.0198 31.3862 27.6003 32.9633 26.3386C35.8022 24.1305 39.1143 22.7111 42.4264 21.1339C46.3693 19.2413 50.3123 17.3487 54.4129 15.9292C59.3022 14.1943 64.1914 12.7748 69.2384 11.6708C75.074 10.5668 81.0673 10.2514 86.9028 10.2514C90.0572 10.2514 93.5269 9.93593 96.6813 11.04C98.4162 11.6708 100.467 12.4594 101.886 13.4057C102.201 13.7212 102.359 13.7211 102.675 14.0366C102.832 14.1943 102.832 14.5098 102.99 14.6675C103.305 15.2984 103.463 16.0869 103.463 16.7178C103.463 17.3487 103.148 17.9796 103.148 18.6104C103.148 19.5567 102.832 20.503 102.832 21.4493C102.832 22.5534 102.517 23.3419 102.359 24.446C102.044 26.3386 101.728 28.2312 100.94 30.1238C99.8356 32.805 99.0471 35.6439 97.943 38.1674C97.6276 38.956 96.9967 39.5869 96.5235 40.3755C96.2081 41.164 95.8927 41.6372 95.4195 42.4258C94.631 43.6875 94.0001 45.107 93.0538 46.211C91.1612 48.7345 89.4263 51.4157 86.9028 53.466C83.9062 55.8318 80.7518 57.8821 77.4397 59.617C75.2317 60.7211 73.0236 61.6674 70.8156 62.7714C68.923 63.7177 66.8727 64.8217 64.8223 65.768C59.7754 68.1338 54.2552 69.8686 48.8928 71.6035C47.3157 72.0767 45.8962 72.5499 44.319 72.8653C42.8996 73.023 41.1646 73.4962 39.7452 73.4962C38.168 73.4962 36.5908 73.023 35.0136 72.5499C32.4902 71.7613 32.1747 68.9224 32.017 66.5566C31.8593 64.8217 31.7016 63.0868 31.3862 61.5096C31.0707 60.0902 31.0707 58.8284 30.7553 57.4089C30.4399 55.9895 30.2821 54.5701 30.2821 53.1506C30.2821 51.258 30.913 49.6808 31.3862 47.7882C31.7016 46.6842 31.7016 45.4224 32.3325 44.3184C32.9633 42.7412 34.2251 41.3218 35.6446 40.2177C36.9063 39.1137 38.3258 37.852 39.5875 36.748C40.3761 35.9594 41.3223 35.4862 42.1109 34.8553C43.5304 33.7513 45.1076 32.805 46.8425 32.0164C48.1042 31.3856 49.0505 30.2815 50.3123 29.4929C51.574 28.7044 52.9935 27.9158 54.2552 27.1272C55.3592 26.4963 56.621 26.1809 57.8827 25.7077C58.829 25.3923 59.7753 24.7614 60.7217 24.446C61.668 24.1305 62.6143 23.9728 63.5606 23.6574C64.5069 23.3419 65.2955 23.0265 66.2418 22.7111C67.3458 22.3956 68.4498 22.0802 69.3961 22.0802C71.4465 22.0802 72.3927 23.0265 73.0236 25.0768C73.8122 27.758 72.8659 30.1238 71.9196 32.6473C71.131 34.6976 70.1847 36.5902 69.5539 38.6405C68.6076 41.3218 66.0841 42.7412 64.0337 44.6339C61.8257 46.5265 59.1445 48.419 56.621 49.5231C55.8324 49.8385 54.8861 50.1539 54.0975 50.4694C53.4666 50.7848 52.6781 51.258 52.0472 51.5734C51.574 51.8889 51.2586 52.2043 50.7854 52.5197C50.47 52.8352 49.9968 52.8352 49.5237 53.1506C48.5774 53.7815 47.6311 54.4123 46.5271 54.8855C45.5808 55.3587 43.5304 55.6741 42.8995 54.4123C42.5841 53.7814 42.5841 52.9929 42.4264 52.362C42.2687 51.5734 42.2687 50.7848 42.2687 49.9962C42.2687 49.2077 42.4264 48.5768 42.5841 47.7882C42.7418 46.9996 43.0573 46.3687 43.3727 45.5801C44.1613 43.3721 45.5807 41.7949 46.8425 40.06C47.6311 38.956 48.4197 37.852 49.366 36.748C50.7854 35.1708 52.8357 34.5399 54.7284 33.909C56.4632 33.4359 59.1445 32.9627 60.8794 33.909C62.2988 34.8553 61.3525 36.7479 60.8794 37.852C60.5639 38.4828 60.4062 39.1137 60.0908 39.7446C59.9331 40.2177 59.933 40.8486 59.6176 41.3218C58.9867 42.2681 57.8827 42.8989 56.9364 43.6875C56.621 44.003 55.9901 44.4761 55.5169 44.6339C54.8861 44.7916 54.2552 44.7915 53.6244 44.9493C53.3089 44.9493 53.1512 45.4224 52.8358 45.2647C52.5203 45.107 52.5203 44.7916 52.5203 44.4761C52.5203 44.1607 52.6781 43.8452 52.8358 43.5298C52.8358 43.5298 52.8358 43.3721 52.8358 43.2144C53.1512 42.268 54.2552 41.164 54.7284 40.3755C55.5169 40.6909 55.0438 41.164 54.8861 41.6372C54.7284 41.9526 54.7284 42.2681 54.7284 42.5835C54.7284 42.8989 54.2552 43.3721 54.5707 43.6875C54.7284 43.8453 55.517 43.5298 55.6747 43.5298C57.5673 42.8989 58.6713 40.8486 59.3022 39.1137C59.6176 37.852 59.6176 35.9593 58.3559 35.3285C57.4096 35.013 56.1478 35.1708 55.2015 35.1708C51.574 35.1708 49.366 39.1137 47.3157 41.6372C46.0539 43.3721 44.9499 45.2647 44.1613 47.315C43.6881 48.7345 43.3727 50.154 43.0573 51.5734C42.7418 52.6774 42.4264 54.2546 44.0036 54.0969C44.9499 53.9392 45.8962 53.466 46.8425 53.1506C47.6311 52.8352 48.262 52.6774 49.0506 52.2043C50.1546 51.5734 51.574 51.4157 52.678 50.7848C53.6244 50.3117 54.5706 49.8385 55.5169 49.3654C57.8827 48.1036 60.4062 45.7379 61.9834 43.6875C63.0874 42.2681 64.8223 41.1641 66.084 39.9023C67.5035 38.6406 68.1344 36.9056 69.0807 35.3285C70.027 33.5936 70.5002 32.0164 70.9733 30.2815C71.2887 28.7044 72.3928 26.8117 71.7619 25.0768C71.2887 23.3419 68.923 23.3419 67.5035 23.4996C66.2418 23.6574 64.98 23.9728 63.7183 24.2882C61.5102 25.0768 59.4599 26.0231 57.4096 26.9694C54.0975 28.3889 51.2586 30.597 48.262 32.4896C46.6848 33.4359 44.9499 34.2244 43.5304 35.3285C42.4264 36.1171 41.4801 37.2211 40.3761 38.0097C39.5875 38.6406 39.1143 39.4292 38.168 39.9023C37.064 40.6909 36.1177 41.4795 35.3291 42.4258C34.6982 43.2144 33.9096 44.3184 33.5942 45.2647C33.2788 46.0533 33.5942 46.8419 33.5942 47.6305C33.5942 48.7345 33.2788 49.8385 33.2788 50.9426C33.2788 52.0466 33.2788 53.3083 33.2788 54.4123C33.2788 56.7781 32.9633 58.9862 32.9633 61.1942C32.9633 62.6137 33.2788 64.1908 33.5942 65.4526C33.7519 66.5566 34.2251 67.5029 34.3828 68.6069C34.3828 69.3955 34.5405 70.3418 35.1714 70.8149C35.4868 70.9727 35.96 71.1304 36.2754 71.2881C36.5908 71.4459 36.9063 71.6035 37.2217 71.6035C37.3794 71.6035 37.5372 71.7613 37.8526 71.7613C38.0103 71.7613 38.168 72.0767 38.168 72.0767C38.4834 72.2344 39.1143 72.0767 39.4298 72.0767C40.3761 71.919 41.3223 71.7613 42.1109 71.4459C44.4767 71.1304 46.6848 71.1304 48.8928 70.3418C51.4163 69.3955 53.7821 67.976 56.1479 67.0297C59.7754 65.4526 63.876 64.3485 67.3458 62.4559C68.923 61.6673 70.6579 60.721 72.235 60.0902C76.178 58.3553 80.2786 56.9358 83.5907 54.2546C84.8525 53.3083 85.9565 52.0466 87.0605 50.9426C87.6914 50.3117 88.3222 49.6808 88.9531 48.8922C90.688 46.6842 92.2652 44.3184 93.5269 41.9526C94.1578 41.0063 94.4732 39.7446 94.9464 38.7983C95.8927 37.2211 96.839 35.8017 97.7853 34.2245C98.5739 32.6473 99.0471 31.0701 99.5202 29.3352C99.8357 28.2312 100.151 27.4426 99.9934 26.3386C99.9934 24.1305 100.151 22.2379 101.097 20.1876C101.571 19.0836 102.359 17.5064 101.886 16.2447C101.728 15.6138 100.782 15.4561 100.309 15.2983C99.0471 14.8252 97.7853 14.5097 96.5235 14.0366C95.4195 13.5634 94.6309 12.9326 93.3692 12.7749C92.896 12.6171 92.4229 12.6171 91.9497 12.6171C90.688 12.6171 89.7417 13.5634 88.48 13.4057C88.1645 13.4057 87.8491 13.248 87.3759 13.248C86.7451 13.0903 86.1142 13.248 85.4833 13.248C84.0639 13.248 82.8021 12.9326 81.3827 12.9326C79.8055 12.9326 78.2283 13.0903 76.6512 13.248C75.074 13.4057 73.6545 13.248 72.0773 13.248C71.131 13.248 70.5001 13.7211 69.7115 14.0366C68.923 14.352 68.1344 14.5097 67.3458 14.8252C66.5572 15.1406 65.9263 15.2984 65.1377 15.4561C64.0337 15.4561 63.0874 15.2983 61.9834 15.6138C60.7216 15.9292 59.4599 16.4024 58.1982 16.8755C54.8861 18.295 51.574 20.1876 48.1042 21.2916C46.3693 21.7648 44.6344 22.0802 43.0573 22.7111C42.4264 23.0265 41.9532 23.3419 41.3223 23.8151C40.2183 24.6037 39.1143 25.2345 38.0103 25.8654C35.4868 27.4426 33.121 29.1775 30.5976 31.0701C27.7586 33.1204 25.0774 35.3285 22.7117 38.0097C18.611 42.7412 14.3526 47.4727 10.7251 52.6774C8.99023 55.0432 7.09762 57.7244 5.99359 60.4056V60.5633C5.36272 62.1405 5.04729 63.7177 5.205 65.4526C5.205 65.4526 5.205 65.4526 5.205 65.6103C5.36272 67.0297 5.99362 68.6069 6.46678 69.8687C7.09765 71.1304 7.41304 72.3922 8.20163 73.6539C8.99022 74.9156 10.0942 76.0197 10.5674 77.4391C11.1983 79.174 11.8292 81.0666 12.46 82.9592C13.0909 85.1673 13.7218 87.533 14.0372 89.8988C14.3526 91.3183 14.5103 92.8955 15.2989 94.1572C16.2452 96.0498 18.2956 96.6807 20.0305 97.7847C20.9768 98.4156 21.4499 98.5733 22.554 98.5733C23.9734 98.731 25.5506 99.0464 26.9701 99.5196C29.9667 100.466 33.1211 101.097 36.2754 101.097C38.168 101.097 40.0606 100.624 41.7955 100.308C43.5304 100.15 45.2653 99.9928 47.0002 99.6773C48.5774 99.3619 50.1546 99.0465 51.7317 99.0465C53.3089 99.0465 55.0438 99.3619 56.4633 99.6773C59.1445 100.466 61.6679 100.939 64.3491 100.939C66.084 100.939 67.6612 100.466 69.3961 100.466C70.9733 100.308 72.3928 100.624 73.9699 100.781C76.6511 100.939 79.3323 100.308 81.8558 99.3619C83.5907 98.731 85.0102 97.9424 86.5873 96.9961C87.8491 96.2075 89.1108 96.0498 90.3726 95.7344C93.0538 94.9458 95.735 93.9995 98.2585 92.58C101.413 90.6874 104.094 88.0062 107.248 86.1136C108.983 85.0096 111.034 84.221 112.769 83.117C114.188 82.1707 115.607 81.0666 116.711 79.8049C118.131 78.3854 119.393 76.9659 120.812 75.5465C121.916 74.4425 122.389 73.023 122.862 71.7613C123.809 69.7109 124.124 67.6606 124.44 65.4526C124.755 63.2445 125.701 61.3519 126.648 59.4593C127.909 56.9358 128.856 54.5701 129.013 51.7311C129.171 49.5231 129.487 47.4728 129.487 45.2647C129.487 43.8453 129.329 42.5835 129.013 41.164C128.856 39.9023 128.54 38.6406 128.383 37.3788C128.067 35.8017 128.067 34.2245 127.752 32.6473C127.436 31.3856 127.121 29.9661 126.805 28.5466C126.49 27.6003 126.174 26.654 125.859 25.7077C125.228 24.1306 124.282 22.5533 123.178 21.1339C122.705 20.503 122.074 20.3453 121.601 20.0299C121.128 19.7144 121.128 19.399 120.654 19.2413C120.024 18.9259 119.393 18.6104 118.762 18.295C117.658 17.6641 116.554 17.5064 115.45 16.8755C114.503 16.4024 113.557 15.6138 112.611 14.9829C111.507 14.352 110.403 13.8789 109.456 12.9326C108.51 11.9863 107.879 10.8822 107.091 10.0937C106.144 9.14735 104.883 8.51648 103.936 7.72789C102.201 6.30843 99.9933 6.15072 98.1007 5.36213C97.1544 4.88898 96.0504 4.88898 95.1041 4.57354C93.8424 4.2581 93.0538 3.62724 91.792 3.46952C90.688 3.3118 89.584 3.3118 88.3223 2.99636C87.6914 2.83864 87.0605 2.68093 86.2719 2.68093C85.0102 2.52321 83.5907 2.68092 82.329 2.83864C81.2249 2.99635 79.9632 2.83864 78.8592 2.83864C77.9129 2.83864 76.8089 2.99635 75.8626 2.83864C73.0236 2.36548 70.027 2.52321 67.1881 2.68093C64.5069 2.83865 61.8257 2.99635 59.3022 3.94265C57.0942 4.73124 55.0438 5.36213 52.8358 6.15072C51.4163 6.78159 50.1546 7.57017 48.7351 8.35876C45.423 10.2514 42.4264 12.4594 39.4298 14.5098C35.96 16.8755 32.6479 19.399 29.3358 21.9225C27.1278 23.4996 24.9197 25.2345 22.8694 26.8117C21.9231 27.6003 20.9768 28.3889 20.1882 29.1775C22.2385 26.4963 24.6043 23.9728 26.9701 21.6071C40.3761 8.51649 58.8291 0.47287 79.0169 0.47287C79.8055 0.47287 80.5941 0.47287 81.3827 0.47287C82.1713 0.47287 83.1175 0.472879 83.9061 0.630597C86.2719 0.788315 88.48 1.10375 90.8457 1.41919C90.8457 1.41919 90.8457 1.41919 91.0034 1.41919C93.5269 2.05006 96.0504 2.83864 98.7316 3.62722C100.94 4.25809 102.99 4.88896 105.04 5.51983C106.46 5.99298 107.722 6.62386 109.141 7.09701C110.403 7.57016 111.664 8.04331 112.769 8.67419C114.661 9.77821 116.396 11.04 117.973 12.3017C119.077 13.0903 120.181 14.1943 121.128 15.1406C122.547 16.5601 123.809 18.1372 124.913 19.7144C127.436 23.6574 129.487 28.0735 130.433 32.805C131.221 36.748 131.221 40.8486 131.064 44.7915C130.906 46.8419 130.591 49.2076 130.117 51.258C129.644 53.6237 128.856 55.6741 128.54 58.0399C128.383 59.1439 128.54 60.4056 128.383 61.5096C128.225 62.4559 127.909 63.4023 127.752 64.3486C127.436 66.2412 126.805 68.2915 125.859 70.0264C124.597 72.5498 123.02 74.6002 121.128 76.6505C119.077 79.0163 117.027 81.382 114.819 83.5901C112.768 85.9559 110.245 87.8485 107.564 89.4257C105.513 90.6874 103.305 92.2646 101.097 93.0532C98.8894 93.8417 96.5235 95.1035 94.1578 95.4189C92.4229 95.5766 91.0034 96.2075 89.584 97.3116C88.7954 97.9424 88.0068 98.731 87.2182 99.5196C86.4296 100.15 85.641 100.308 84.6947 100.624C82.6444 101.255 80.5941 101.097 78.386 101.097C75.2317 101.097 72.235 101.412 69.2384 101.728C67.6612 101.885 66.0841 102.043 64.6646 101.885C63.2451 101.728 61.8257 101.412 60.5639 101.255C58.9868 101.097 57.5673 101.097 55.9901 100.781C54.7284 100.624 53.7821 100.624 52.678 100.781C51.7317 100.939 50.7854 100.781 49.6814 100.781C48.7351 100.939 47.6311 101.097 46.6848 101.255C42.8996 102.201 38.6412 104.251 33.9096 103.147Z" fill="#00C4FF"/>
<path fill-rule="evenodd" clip-rule="evenodd" d="M30.2821 137.372C30.2821 137.372 47.7888 140.369 55.6747 140.211C67.6612 139.895 81.5404 141.315 92.2652 141.63C102.99 141.946 121.758 133.114 125.228 131.536C128.698 129.959 136.899 125.228 144.154 117.184C151.409 109.141 154.248 96.0499 154.248 96.0499H151.252C151.252 96.0499 150.148 101.728 145.731 108.036C143.05 111.822 139.265 115.134 134.06 119.708C126.49 126.174 116.711 131.221 106.775 133.744C93.5269 137.057 81.8558 136.11 73.6545 137.372C61.9834 139.107 35.8022 135.006 35.8022 135.006L30.2821 137.372Z" fill="url(#paint10_radial_4_1584)"/>
<path fill-rule="evenodd" clip-rule="evenodd" d="M25.7092 128.697C25.7092 128.697 28.5481 135.952 30.283 137.372C30.283 137.372 34.0683 137.53 35.9609 135.637L30.5985 131.379L25.7092 128.697Z" fill="url(#paint11_radial_4_1584)"/>
<path fill-rule="evenodd" clip-rule="evenodd" d="M154.563 82.4861C154.563 82.4861 156.456 90.6874 156.614 95.1035C156.614 95.1035 153.617 96.9961 151.409 96.0498C151.409 96.0498 154.09 85.9559 154.563 82.4861Z" fill="url(#paint12_radial_4_1584)"/>
<path fill-rule="evenodd" clip-rule="evenodd" d="M103.937 4.41574C103.937 4.41574 119.551 5.99293 123.178 8.51641C123.178 8.51641 120.655 11.3553 117.658 11.8285C117.816 11.6708 105.198 4.73118 103.937 4.41574Z" fill="#EE8CFF"/>
<path fill-rule="evenodd" clip-rule="evenodd" d="M11.8288 33.4358L18.2953 32.4895L20.8187 29.1775C20.8187 29.0197 16.2449 31.0701 11.8288 33.4358Z" fill="#FF61C7"/>
<path opacity="0.5" fill-rule="evenodd" clip-rule="evenodd" d="M17.0347 124.124C17.0347 124.124 47.3166 132.956 70.8165 133.429C94.4741 133.902 103.306 128.697 113.558 124.597C123.81 120.654 140.528 111.664 145.575 104.882C150.622 98.2578 154.565 82.4861 154.565 82.4861C154.565 82.4861 149.675 106.144 145.575 110.244C141.316 114.345 122.706 127.12 119.394 128.697C116.081 130.275 107.249 137.056 91.0043 135.164C91.0043 135.164 80.1218 136.741 76.1789 136.426C72.2359 136.11 66.0849 140.053 54.887 136.426C54.887 136.426 39.2729 135.637 35.9609 134.848C32.4911 134.217 17.0347 124.124 17.0347 124.124Z" fill="#54469B"/>
<path fill-rule="evenodd" clip-rule="evenodd" d="M24.4462 92.2648C24.4462 92.2648 49.5233 96.6809 67.6609 94.7883C85.7984 92.8957 95.5769 88.3218 100.782 85.0098C105.986 81.6977 116.08 70.8152 119.865 65.7682C123.651 60.879 125.543 48.4193 125.543 48.4193C125.543 48.4193 126.174 60.4058 123.178 65.7682C120.023 70.9729 109.456 80.9091 105.04 83.748C100.624 86.587 88.1642 93.5265 81.6978 94.6306C75.2313 95.7346 64.5065 99.0466 56.6206 97.6272C49.0502 96.3654 30.1241 96.6809 24.4462 92.2648Z" fill="#B04FE2"/>
<path fill-rule="evenodd" clip-rule="evenodd" d="M59.1441 132.483C59.1441 132.483 85.1675 130.748 94.1574 128.697C103.147 126.647 114.976 121.916 123.178 118.761C131.379 115.765 137.688 109.771 142.261 106.459C146.835 103.147 152.671 89.268 152.671 89.268C152.671 89.268 148.885 102.989 143.208 107.406C137.53 111.822 122.862 120.023 106.459 127.436C88.0065 135.637 73.8119 133.271 59.1441 132.483Z" fill="#8B40E0"/>
<path fill-rule="evenodd" clip-rule="evenodd" d="M150.148 99.6775C150.621 98.4157 150.936 97.154 151.41 96.0499C149.99 101.097 147.94 105.828 145.574 110.245C144.943 110.875 143.997 111.506 143.366 112.137C142.735 112.926 142.104 113.557 141.473 114.345C138.004 117.657 134.218 120.654 130.118 123.177C126.017 125.859 121.916 128.382 117.343 130.432C113.873 132.01 110.245 133.271 106.618 134.218C103.621 135.006 100.467 135.322 97.4701 135.479C95.893 135.637 94.4735 135.795 92.8963 135.953C91.0037 136.11 88.9534 136.11 87.2185 136.426C83.9064 137.057 80.5944 137.53 77.2823 137.687C74.4434 137.845 71.6045 138.318 68.7656 138.318C65.138 138.318 61.5105 137.687 57.883 137.687C54.4132 137.687 50.7857 137.53 47.3159 137.214C45.2656 137.057 43.2153 136.583 41.165 136.426C39.4301 136.268 37.6951 135.795 35.9602 135.637C34.5408 134.533 33.1214 133.429 31.7019 132.325C31.3865 132.01 30.9133 131.694 30.5979 131.379C32.6482 132.01 34.5408 132.64 36.5911 133.271C39.43 134.218 42.5844 134.691 45.4233 135.006C47.7891 135.322 50.7857 135.479 53.1515 134.848C55.6749 134.218 57.4099 135.006 59.6179 135.953C60.7219 136.426 61.6682 136.583 62.7723 136.899C64.3494 137.372 65.4535 137.214 67.0307 137.057C68.4501 136.899 69.8696 136.583 71.1313 136.426C72.2353 136.11 73.4971 135.637 74.6011 135.479C76.6514 135.164 78.8595 134.849 80.9098 135.322C83.2756 135.795 85.6413 135.953 88.0071 135.637C90.5306 135.164 92.7386 135.006 95.2621 135.006C96.0507 135.006 96.8393 135.164 97.6279 135.164C98.5742 135.322 99.3628 135.006 100.309 135.006C101.886 134.849 103.463 134.533 105.041 134.06C106.46 133.587 107.88 132.956 109.299 132.483C112.138 131.379 114.504 130.432 117.027 128.698C119.077 127.278 121.443 126.332 123.494 124.912C125.544 123.651 127.279 121.916 129.329 120.812C131.537 119.55 133.43 117.815 135.48 116.396C136.742 115.449 138.004 114.345 139.265 113.399C140.369 112.61 141.631 111.979 142.735 111.033C144.47 109.456 146.205 107.879 147.467 105.671C148.571 103.778 149.517 101.728 150.148 99.6775Z" fill="#00C4FF"/>
<path fill-rule="evenodd" clip-rule="evenodd" d="M70.0273 58.1976C70.0273 58.1976 88.0071 43.3722 95.5776 29.0199C95.7353 29.0199 74.6011 50.6272 70.0273 58.1976Z" fill="#FF77F4"/>
<path fill-rule="evenodd" clip-rule="evenodd" d="M51.1012 75.7045C51.1012 75.7045 62.4568 75.7045 75.0743 70.4999C87.6917 65.2952 94.0004 54.4126 94.0004 54.4126C94.0004 54.4126 85.4836 62.614 76.1783 67.1878C66.8729 71.7616 59.9333 72.8656 51.1012 75.7045Z" fill="#F9C6FF"/>
<path fill-rule="evenodd" clip-rule="evenodd" d="M96.0507 51.8889C96.0507 51.8889 97.3124 48.5768 99.6782 42.899C102.044 37.2212 103.937 34.0668 103.937 34.0668C103.937 34.0668 103.306 42.899 96.0507 51.8889Z" fill="#EA9CF4"/>
<path fill-rule="evenodd" clip-rule="evenodd" d="M47.1582 105.828C47.1582 105.828 62.93 109.614 83.591 105.828C104.252 102.043 105.041 100.781 110.718 96.2076C116.396 91.7915 120.497 86.1137 122.705 83.9056C124.913 81.6976 127.752 74.2848 127.752 74.2848C127.752 74.2848 121.916 84.6942 113.557 91.7915C105.198 98.7311 98.2587 102.201 84.2219 104.409C70.3427 106.459 54.2555 106.144 47.1582 105.828Z" fill="#D374F4"/>
<path fill-rule="evenodd" clip-rule="evenodd" d="M61.0371 140.211C61.0371 140.211 75.3894 141.472 81.225 142.576C87.0605 143.838 98.2585 143.68 104.725 141.315C111.191 138.949 123.809 132.167 123.809 132.167C123.809 132.167 111.98 138.791 97.7853 140.368C83.7484 141.788 75.0739 139.422 61.0371 140.211Z" fill="#D374F4"/>
<path fill-rule="evenodd" clip-rule="evenodd" d="M128.067 130.117C128.067 130.117 137.215 123.966 141.631 120.023C141.631 119.865 136.899 126.489 128.067 130.117Z" fill="#D374F4"/>
<path fill-rule="evenodd" clip-rule="evenodd" d="M58.8299 52.2046C58.8299 52.2046 69.2393 44.3187 72.5514 38.7986C75.8635 33.1207 76.1789 29.9664 76.1789 29.9664C76.1789 29.9664 77.5983 35.4865 71.4473 42.4261C65.1386 49.3656 58.8299 52.2046 58.8299 52.2046Z" fill="#F2C4F8"/>
<path fill-rule="evenodd" clip-rule="evenodd" d="M9.93718 93.3688C9.77947 96.8386 11.6721 100.782 17.8231 103.147C23.9741 105.513 28.7056 104.882 28.7056 104.882C28.7056 104.882 21.6083 103.463 17.6653 100.782C13.7224 97.7849 9.93718 93.3688 9.93718 93.3688Z" fill="#F5CEFA"/>
<defs>
<radialGradient id="paint0_radial_4_1584" cx="0" cy="0" r="1" gradientUnits="userSpaceOnUse" gradientTransform="translate(29.9255 47.1345) scale(122.103 122.103)">
<stop offset="0.00558659" stop-color="#FF9AFF"/>
<stop offset="0.0930098" stop-color="#FB94FF"/>
<stop offset="0.2093" stop-color="#F183FF"/>
<stop offset="0.3418" stop-color="#E068FF"/>
<stop offset="0.4864" stop-color="#C841FF"/>
<stop offset="0.639" stop-color="#A910FF"/>
<stop offset="0.6844" stop-color="#9F00FF"/>
<stop offset="0.7432" stop-color="#9900F8"/>
<stop offset="0.8282" stop-color="#8700E5"/>
<stop offset="0.9287" stop-color="#6A00C6"/>
<stop offset="1" stop-color="#5200AB"/>
</radialGradient>
<radialGradient id="paint1_radial_4_1584" cx="0" cy="0" r="1" gradientUnits="userSpaceOnUse" gradientTransform="translate(29.9255 47.1345) scale(122.103 122.103)">
<stop offset="0.00558659" stop-color="#FF9AFF"/>
<stop offset="0.0930098" stop-color="#FB94FF"/>
<stop offset="0.2093" stop-color="#F183FF"/>
<stop offset="0.3418" stop-color="#E068FF"/>
<stop offset="0.4864" stop-color="#C841FF"/>
<stop offset="0.639" stop-color="#A910FF"/>
<stop offset="0.6844" stop-color="#9F00FF"/>
<stop offset="0.7432" stop-color="#9900F8"/>
<stop offset="0.8282" stop-color="#8700E5"/>
<stop offset="0.9287" stop-color="#6A00C6"/>
<stop offset="1" stop-color="#5200AB"/>
</radialGradient>
<radialGradient id="paint2_radial_4_1584" cx="0" cy="0" r="1" gradientUnits="userSpaceOnUse" gradientTransform="translate(33.3887 40.0694) scale(120.026 120.026)">
<stop offset="0.00558659" stop-color="#FF9AFF"/>
<stop offset="0.0930098" stop-color="#FB94FF"/>
<stop offset="0.2093" stop-color="#F183FF"/>
<stop offset="0.3418" stop-color="#E068FF"/>
<stop offset="0.4864" stop-color="#C841FF"/>
<stop offset="0.639" stop-color="#A910FF"/>
<stop offset="0.6844" stop-color="#9F00FF"/>
<stop offset="0.7432" stop-color="#9900F8"/>
<stop offset="0.8282" stop-color="#8700E5"/>
<stop offset="0.9287" stop-color="#6A00C6"/>
<stop offset="1" stop-color="#5200AB"/>
</radialGradient>
<radialGradient id="paint3_radial_4_1584" cx="0" cy="0" r="1" gradientUnits="userSpaceOnUse" gradientTransform="translate(49.1716 27.3753) scale(26.8382 26.8382)">
<stop offset="0.630208" stop-color="white"/>
<stop offset="1" stop-color="#EF9AFF"/>
</radialGradient>
<radialGradient id="paint4_radial_4_1584" cx="0" cy="0" r="1" gradientUnits="userSpaceOnUse" gradientTransform="translate(53.4416 37.0771) scale(9.33658 9.33656)">
<stop stop-color="white"/>
<stop offset="1" stop-color="#F7ABFF"/>
</radialGradient>
<radialGradient id="paint5_radial_4_1584" cx="0" cy="0" r="1" gradientUnits="userSpaceOnUse" gradientTransform="translate(47.7004 36.2128) scale(9.83844 9.83843)">
<stop stop-color="white"/>
<stop offset="1" stop-color="#F9D0FD"/>
</radialGradient>
<radialGradient id="paint6_radial_4_1584" cx="0" cy="0" r="1" gradientUnits="userSpaceOnUse" gradientTransform="translate(40.7413 26.7373) scale(22.7264 22.7263)">
<stop stop-color="white"/>
<stop offset="1" stop-color="#F7C2FC"/>
</radialGradient>
<radialGradient id="paint7_radial_4_1584" cx="0" cy="0" r="1" gradientUnits="userSpaceOnUse" gradientTransform="translate(31.0284 17.904) scale(38.5315 38.5316)">
<stop stop-color="white"/>
<stop offset="1" stop-color="#F5AEFE"/>
</radialGradient>
<radialGradient id="paint8_radial_4_1584" cx="0" cy="0" r="1" gradientUnits="userSpaceOnUse" gradientTransform="translate(45.3086 24.0073) scale(53.6889)">
<stop offset="0.744792" stop-color="white"/>
<stop offset="0.9998" stop-color="#E886FF"/>
<stop offset="0.9999" stop-color="#ED8CFF"/>
</radialGradient>
<radialGradient id="paint9_radial_4_1584" cx="0" cy="0" r="1" gradientUnits="userSpaceOnUse" gradientTransform="translate(28.5677 24.4021) scale(90.7049 90.7049)">
<stop offset="0.84375" stop-color="#EEADFE"/>
<stop offset="1" stop-color="#B439EE"/>
</radialGradient>
<radialGradient id="paint10_radial_4_1584" cx="0" cy="0" r="1" gradientUnits="userSpaceOnUse" gradientTransform="translate(55.7565 103.399) scale(71.4887 71.4888)">
<stop offset="0.572917" stop-color="#EEB9FF"/>
<stop offset="1" stop-color="#7801BD"/>
</radialGradient>
<radialGradient id="paint11_radial_4_1584" cx="0" cy="0" r="1" gradientUnits="userSpaceOnUse" gradientTransform="translate(27.6062 130.98) scale(7.71555)">
<stop stop-color="#6D00C2"/>
<stop offset="0.3995" stop-color="#6600BC"/>
<stop offset="0.976" stop-color="#5300AC"/>
<stop offset="1" stop-color="#5200AB"/>
</radialGradient>
<radialGradient id="paint12_radial_4_1584" cx="0" cy="0" r="1" gradientUnits="userSpaceOnUse" gradientTransform="translate(152.39 86.1183) scale(8.05887 8.05888)">
<stop stop-color="#1F0081"/>
<stop offset="0.73" stop-color="#260087"/>
<stop offset="1" stop-color="#2A008B"/>
</radialGradient>
</defs>
</svg>
