<svg width="156" height="151" viewBox="0 0 156 151" fill="none" xmlns="http://www.w3.org/2000/svg">
<path fill-rule="evenodd" clip-rule="evenodd" d="M152.716 74.4428C152.716 81.6978 151.77 88.6374 149.877 95.1038C146.092 108.352 138.837 120.023 128.901 129.171C121.961 135.637 113.602 140.842 104.455 144.312C96.2533 147.466 87.2635 149.201 77.9581 149.201C76.6964 149.201 75.2769 149.201 74.0152 149.043C72.1226 148.886 70.0723 148.728 68.1796 148.57C53.8273 146.677 40.579 140.684 30.0119 131.694C26.069 128.382 22.4415 124.597 19.1294 120.496C16.7637 117.5 14.5556 114.188 12.663 110.718C12.1898 109.929 11.7167 108.983 11.2435 108.194C10.7704 107.248 10.2972 106.459 9.98181 105.513C8.72007 102.674 7.61604 99.6776 6.66973 96.681C6.03886 94.4729 5.40798 92.2649 4.93483 90.0568C4.61939 88.4796 4.30396 86.9025 4.14624 85.1676C3.67309 81.6978 3.35765 78.228 3.35765 74.6005C3.35765 72.5501 3.35767 70.4998 3.67311 68.4495C3.83082 67.1877 3.8308 65.926 4.14624 64.6643C5.09255 57.2515 7.14286 50.312 10.1395 43.8455C11.559 40.6912 13.2939 37.5368 15.1865 34.6979C18.3408 29.8086 21.9683 25.2348 26.2267 21.1342C39.6327 8.0436 58.0857 0 78.2736 0C79.0621 0 79.8507 0 80.6393 0C81.4279 0 82.3742 3.60752e-06 83.1628 0.157721C87.4212 0.473157 91.6796 1.10403 95.6225 2.05033C97.9883 2.68121 100.354 3.31208 102.562 4.10066C104.139 4.57382 105.559 5.20469 107.136 5.83556C108.24 6.30871 109.344 6.78187 110.448 7.25502C110.606 7.41274 110.763 7.41274 111.079 7.57045C118.334 11.0402 124.958 15.7718 130.636 21.4496C131.424 22.2382 132.213 23.0268 133.002 23.8154C133.475 24.4462 134.106 24.9194 134.579 25.5503C135.525 26.4966 136.314 27.6006 137.102 28.5469C140.099 32.3321 142.622 36.4328 144.83 40.6912C147.354 45.7381 149.404 51.1005 150.824 56.6207C151.928 62.2985 152.716 68.2918 152.716 74.4428Z" fill="url(#paint0_radial_4_1513)"/>
<path opacity="0.4" fill-rule="evenodd" clip-rule="evenodd" d="M3.20055 74.4427C3.20055 74.4427 20.8649 105.671 37.8984 110.56C54.932 115.449 74.3313 112.295 80.9554 114.818C87.5795 117.342 91.2071 127.436 91.2071 127.436L93.7305 128.855C93.7305 128.855 99.4083 120.023 102.878 125.228C102.878 125.228 101.459 117.815 105.717 108.825C109.975 99.8353 112.657 90.2145 117.861 87.0601C123.066 83.9058 132.529 82.4863 140.1 85.483C147.67 88.4796 151.455 87.8487 151.455 87.8487L152.086 84.3789L152.717 81.2246C152.717 81.2246 145.462 82.3286 139.784 78.7011C139.784 78.7011 140.573 80.1206 144.989 71.7615C149.405 63.4025 148.932 55.832 148.932 55.832L148.301 48.8925C148.301 48.8925 145.935 73.0233 135.683 79.9629C135.683 79.9629 112.972 75.2313 103.351 102.043C103.351 102.043 101.774 119.865 92.1533 119.392C82.6903 118.919 86.0024 107.248 72.1232 107.09C58.4018 106.933 50.0427 112.61 36.479 104.882C22.9153 97.1541 3.20055 74.4427 3.20055 74.4427Z" fill="#7D72B3"/>
<path opacity="0.4" fill-rule="evenodd" clip-rule="evenodd" d="M74.0164 149.043C74.0164 149.043 83.4795 135.006 93.7312 135.006C104.141 135.006 108.872 138.791 117.073 134.06C125.275 129.328 128.587 126.332 132.372 123.808C136.157 121.285 136.788 120.496 136.788 120.496L138.523 118.288C138.523 118.288 132.845 115.449 127.798 119.55C122.751 123.651 113.604 132.956 106.349 132.798C99.0936 132.798 99.409 128.54 91.3654 131.852C83.1641 135.164 66.1306 146.677 66.1306 146.677C66.1306 146.677 69.1272 148.885 74.0164 149.043Z" fill="#7D72B3"/>
<path opacity="0.4" fill-rule="evenodd" clip-rule="evenodd" d="M7.3006 98.8889L8.24691 101.412C8.24691 101.412 22.757 109.456 32.0623 120.654C41.2099 131.852 42.9448 139.422 42.9448 139.422C42.9448 139.422 44.522 132.798 36.6361 120.181C28.5925 107.721 11.559 100.782 7.3006 98.8889Z" fill="#7D72B3"/>
<path fill-rule="evenodd" clip-rule="evenodd" d="M110.763 7.2551C110.448 7.2551 110.29 7.25509 109.975 7.41281C109.186 7.57053 108.398 7.41281 107.609 7.2551C106.978 7.09738 106.663 6.78194 105.874 6.78194C104.928 6.62423 104.139 6.30879 103.193 6.15107C102.247 5.99335 101.458 5.67792 100.512 5.36248C99.7231 5.04705 99.4077 5.20476 98.7769 5.36248C98.146 5.5202 97.6729 5.20476 97.042 5.04705C96.4111 4.73161 95.6225 4.73161 94.9916 4.57389C93.099 4.25846 91.2064 3.62759 89.3138 3.15443C88.2098 2.839 87.1057 2.839 85.844 2.839C84.8977 2.839 84.1091 3.15443 83.1628 3.15443C82.532 3.15443 82.0588 2.99672 81.4279 2.99672C80.7971 2.839 80.1662 2.99672 79.5353 2.99672C78.589 2.839 78.1158 2.68128 77.1695 2.99672C76.3809 3.15443 75.9078 3.15444 75.1192 3.31215C74.3306 3.31215 73.3843 3.62759 72.5957 3.78531C71.1763 4.10074 69.5991 4.41618 68.1796 4.41618C67.2333 4.41618 65.9716 4.10074 65.183 4.41618C64.7099 4.5739 64.3944 5.20476 63.9212 5.5202C63.1327 6.30879 62.3441 6.93966 61.7132 7.72825C61.0823 8.51684 60.4515 9.46314 60.4515 10.5672C60.4515 11.5135 60.9246 12.6175 61.3978 13.4061C61.8709 14.3524 62.0287 15.141 61.0823 15.7718C59.9783 16.5604 58.5589 17.1913 57.2971 17.6645C56.3508 17.9799 55.5622 18.1376 54.9314 17.5067C54.6159 17.349 54.4582 16.8759 54.1428 16.5604C53.8273 16.4027 53.3542 16.5604 53.0387 16.7182C52.0924 17.0336 51.1461 17.349 50.1998 17.5067C49.569 17.6645 49.0958 17.9799 48.4649 17.9799C47.8341 18.1376 47.3609 17.6645 46.5723 17.8222C45.626 17.9799 44.522 18.4531 43.5757 18.4531C42.7871 18.4531 41.8408 18.1376 41.2099 17.8222C40.8945 17.6645 40.7367 17.349 40.2636 17.5067C39.9482 17.5067 39.475 17.9799 39.3173 18.2953C39.0018 18.6108 39.0018 19.0839 38.6864 19.3994C38.371 19.8725 38.2133 20.1879 37.8978 20.6611C37.4247 21.4497 36.9515 22.2383 36.4784 23.0269C36.1629 23.5 35.8475 24.2886 35.3743 24.7618C35.2166 25.0772 34.7435 25.2349 34.4281 25.3926C33.6395 25.8658 32.8509 26.4967 32.0623 26.9698C30.6428 28.0738 29.2234 29.3356 27.8039 30.4396C26.6999 31.2282 25.1227 31.7013 23.861 32.3322C23.0724 32.6476 22.2838 32.9631 21.4952 33.2785C21.1798 33.4362 20.7066 33.4362 20.5489 33.7517C20.2334 34.0671 20.0757 34.3825 19.918 34.8557C19.2871 35.6443 18.4985 36.5906 18.0254 37.5369C17.7099 38.1678 17.5522 38.6409 17.2368 39.2718C16.9214 40.0604 16.4482 40.849 16.2905 41.7953C15.6597 43.5302 15.6596 45.4228 14.871 47.1577C14.5556 48.104 13.9247 49.0503 13.4516 49.9966C12.663 51.5738 12.5053 53.4664 12.3476 55.2013C12.1899 56.1476 12.3475 57.4093 12.5053 58.3556C12.663 59.4597 12.663 60.5637 12.663 61.6677C12.663 62.7717 11.8744 64.0335 11.2435 64.8221C10.6127 65.6106 9.50863 65.9261 8.72004 66.7147C8.08917 67.3455 7.30057 67.9764 6.98514 68.9227C6.82742 69.2382 6.98514 69.7113 6.98514 70.1845C6.82742 71.1308 6.51201 71.9194 6.51201 72.8657C6.35429 73.9697 6.35428 75.0737 6.35428 76.3354C6.35428 76.9663 6.35428 77.4395 6.35428 78.0703C6.35428 78.7012 6.51201 79.1744 6.66973 79.6475C6.66973 79.963 6.66973 80.4361 6.66973 80.7515C6.66973 81.2247 6.98514 81.6978 6.98514 82.0133C7.30057 83.1173 7.45833 84.0636 7.61605 85.1676C7.77377 86.1139 8.24692 87.0603 8.40464 88.0066C8.87779 89.2683 9.03547 90.53 9.3509 91.9495C9.50862 92.8958 9.50864 93.9998 9.66636 94.9461C9.82408 95.7347 9.98181 96.5233 9.98181 97.3119C9.98181 98.5737 9.66636 99.6777 9.66636 100.939C9.66636 102.99 10.4549 105.04 10.9281 107.09C11.0858 107.721 11.2435 108.194 11.4013 108.825C6.19658 98.7314 3.35765 87.218 3.35765 75.0737C3.35765 60.2482 7.61602 46.5268 15.0288 35.0134C18.1831 30.1242 21.8106 25.5504 26.069 21.6074C39.475 8.51684 57.928 0.473236 78.1158 0.473236C79.693 0.473236 81.4279 0.473234 83.0051 0.630951C92.7836 0.473234 102.247 3.15444 110.763 7.2551Z" fill="url(#paint1_linear_4_1513)"/>
<path opacity="0.4" fill-rule="evenodd" clip-rule="evenodd" d="M21.4952 32.6477C21.4952 32.6477 38.371 47.6309 60.4515 48.1041C82.6897 48.5772 90.891 47 98.3037 38.7987C105.716 30.5974 113.602 16.7182 113.602 16.7182C113.602 16.7182 104.139 21.292 97.5152 30.282C91.0487 39.1141 60.136 54.255 21.4952 32.6477Z" fill="#7D72B3"/>
<g opacity="0.25">
<path opacity="0.4" fill-rule="evenodd" clip-rule="evenodd" d="M22.9143 32.9631C20.7063 35.6443 18.8137 38.1678 17.3942 41.3221C16.1325 44.0033 15.6593 47.1577 15.1862 50.1543C14.8707 51.8892 14.713 53.6241 14.3976 55.5167C14.2399 57.0939 13.7667 58.6711 13.9245 60.2483C14.2399 62.4563 14.3976 64.8221 15.5016 66.7147C16.6057 68.765 17.7097 70.6576 19.1291 72.5502C20.5486 74.2851 22.2835 75.2314 24.6492 75.3892C25.911 75.5469 27.1727 75.2314 28.4345 75.3892C30.1694 75.5469 31.9043 75.8623 33.6392 76.1777C37.109 76.8086 41.0519 76.8086 43.5754 73.9697C45.6257 71.6039 46.572 68.765 47.8338 65.9261C49.2532 62.9295 50.9881 60.5637 53.5116 58.5134C55.4042 57.0939 57.1391 55.359 58.874 53.7818C59.6626 53.151 60.1357 52.3624 61.082 51.7315C62.0283 51.2583 62.5015 50.6275 63.2901 49.8389C64.0787 49.208 64.8672 48.7349 65.4981 47.9463C66.6021 46.6845 67.3907 45.1074 67.8639 43.6879C68.4948 42.1107 68.6525 40.5335 68.9679 38.7986C69.1256 37.2215 68.6525 35.6443 68.1793 34.0671C67.233 31.2282 64.7095 29.3356 62.5015 27.6007C59.6626 25.3926 56.1928 24.4463 52.723 23.6577C49.5686 23.0269 45.6257 22.8692 42.3136 23.5C38.8439 24.1309 35.374 24.6041 32.2197 26.0235C29.8539 27.1275 28.4345 28.547 26.5419 30.2819C25.5956 31.0705 24.4915 31.7014 23.5452 32.6477C22.4412 33.9094 21.3372 35.3289 22.9143 32.9631Z" fill="black"/>
<path opacity="0.4" fill-rule="evenodd" clip-rule="evenodd" d="M56.6659 19.084C57.1391 18.2954 57.6122 17.0336 58.2431 16.4028C58.5586 15.9296 59.0317 15.6142 59.5049 15.2988C60.7666 14.1947 62.1861 13.4061 63.7632 12.933C64.7095 12.6176 65.6559 12.6176 66.4445 12.933C67.3908 13.0907 68.9679 13.7216 69.5988 14.3524C70.8606 15.6142 70.072 17.6645 69.5988 19.084C69.2834 20.5034 68.8102 21.9229 67.5485 22.7115C66.7599 23.3424 65.6559 23.8155 64.7096 23.9732C64.2364 24.131 63.6055 24.1309 62.9746 24.1309C62.5015 24.1309 62.0284 24.2887 61.7129 24.2887C60.6089 24.2887 59.0317 23.5001 58.7163 22.5538C58.5586 22.0806 58.4009 21.4497 58.0854 20.9766C57.9277 20.5034 57.77 20.188 57.6123 19.7148C57.2968 18.9263 57.1391 18.1377 56.6659 19.084Z" fill="black"/>
<path opacity="0.4" fill-rule="evenodd" clip-rule="evenodd" d="M69.1257 26.9699C68.8102 27.7585 68.6525 28.7048 68.6525 29.4934C68.9679 29.6511 69.1256 30.1242 69.5988 30.4397C69.9142 30.5974 70.3874 30.5974 70.8605 30.5974C71.6491 30.5974 72.28 30.5974 72.4377 29.6511C72.5954 28.8625 71.8068 28.2316 71.176 27.7585C70.7028 27.443 69.9142 26.6545 69.4411 27.2853L69.1257 26.9699Z" fill="black"/>
<path opacity="0.4" fill-rule="evenodd" clip-rule="evenodd" d="M79.3773 39.1141C78.431 39.745 77.3269 40.3759 76.3806 41.1644C75.2766 42.1107 74.3303 43.2148 73.384 44.4765C72.28 45.896 70.8605 47.4732 71.176 49.5235C71.4914 51.4161 72.1223 53.151 73.5417 54.4127C75.2766 55.9899 77.9578 55.9899 80.0082 56.9362C81.743 57.7248 82.8471 59.4597 83.6356 61.1946C84.8974 63.7181 87.7363 64.1912 90.2598 64.6644C91.837 64.9798 93.5719 65.1375 95.1491 65.453C97.3571 65.7684 99.5652 66.0838 101.773 66.3993C105.874 66.7147 109.975 67.661 114.075 67.3456C118.491 67.0302 122.434 65.453 125.904 62.9295C128.901 60.8792 131.74 57.0939 132.528 53.4664C133.317 49.6812 132.055 45.4228 130.32 41.953C127.954 37.5369 125.115 33.594 121.961 29.6511C120.226 27.443 118.334 25.5504 116.441 23.5001C114.864 21.6074 113.287 20.0303 111.552 18.4531C107.451 14.9833 102.404 12.1444 97.0417 11.8289C94.9914 11.6712 92.941 11.9867 90.8907 12.7753C89.1558 13.4061 87.894 14.3524 86.6323 15.7719C83.4779 19.084 81.743 23.3423 80.3236 27.6007C79.6927 29.6511 79.0619 31.8591 79.3773 33.9094C79.3773 34.5403 79.8504 35.0134 79.8504 35.6443C79.8504 36.2752 79.8504 36.7484 79.8504 37.3792C79.8504 37.6947 79.8504 38.0101 79.6927 38.3255C79.535 38.641 79.0619 39.1141 79.3773 39.1141Z" fill="black"/>
<path opacity="0.4" fill-rule="evenodd" clip-rule="evenodd" d="M62.3438 53.9395C60.2934 55.2013 58.0854 56.1476 56.5082 58.0402C56.1928 58.3556 55.8773 58.8288 56.0351 59.3019C56.1928 59.7751 56.8237 60.0905 57.2968 60.2483C58.874 60.8791 60.7666 61.1945 62.5015 60.8791C64.0787 60.5637 65.9713 59.6174 66.7599 58.1979C67.8639 56.463 66.6022 53.6241 64.3941 53.7818C64.0787 53.7818 63.7632 53.9395 63.4478 53.9395C63.1324 53.9395 62.9746 53.9395 62.6592 53.9395C62.3438 53.9395 62.3438 53.9395 62.0284 54.0973C61.7129 54.4127 61.3975 54.7281 62.3438 53.9395Z" fill="black"/>
<path opacity="0.4" fill-rule="evenodd" clip-rule="evenodd" d="M19.1291 82.8019C18.3406 83.5905 17.3943 84.2213 16.9211 85.1677C16.448 86.114 16.1325 87.0603 15.9748 88.1643C15.8171 89.1106 15.5016 90.0569 15.8171 91.0032C15.9748 91.7918 16.4479 92.5804 16.7634 93.5267C17.0788 94.6307 17.552 95.577 17.7097 96.681C18.0251 98.1005 18.4983 99.2045 19.1291 100.466C19.76 101.728 20.3909 102.832 21.1795 103.936C21.968 105.198 22.7566 105.986 23.7029 107.09C27.1727 110.56 31.2734 114.345 36.3204 114.976C38.8438 115.292 41.525 114.661 43.4177 112.768C45.468 110.718 46.7297 107.879 47.2029 105.04C47.5183 102.674 47.3606 100.151 46.0989 98.1005C44.9949 96.3656 43.8908 94.6307 42.6291 93.2113C41.6828 92.2649 40.7365 91.4764 39.6324 90.5301C38.6861 89.5837 37.7398 88.6374 36.6358 88.0066C34.7432 86.5871 33.0083 85.1677 31.1157 83.9059C29.3808 82.6442 27.4882 81.3824 25.4379 80.9093C24.0184 80.5938 22.4412 80.2784 21.0218 80.9093C20.3909 81.2247 19.9177 81.3824 19.6023 81.8556C19.4446 82.171 19.1291 82.6442 19.1291 82.9596C18.8137 82.6442 18.656 82.6442 19.1291 82.8019Z" fill="black"/>
<path opacity="0.4" fill-rule="evenodd" clip-rule="evenodd" d="M32.3774 79.4898C32.3774 80.1207 32.5351 80.7516 32.5351 81.2247C32.5351 81.3825 32.6929 81.5402 32.6929 81.8556C32.8506 82.0133 33.3237 82.0133 33.4815 82.0133C34.1123 82.0133 34.7432 81.6979 35.2164 81.3825C36.005 80.7516 36.3204 79.4898 35.5318 78.859C35.0586 78.3858 34.2701 78.0704 33.4815 78.2281C33.166 78.3858 31.4311 79.1744 32.062 79.8053L32.3774 79.4898Z" fill="black"/>
<path opacity="0.4" fill-rule="evenodd" clip-rule="evenodd" d="M132.37 63.0872C132.686 61.8255 132.686 60.8792 133.474 59.9329C134.263 59.1443 135.052 58.198 135.683 57.4094C136.944 55.8322 137.733 53.7819 138.206 51.8893C138.679 50.1544 138.206 48.4195 138.995 46.6846C139.152 46.2114 139.468 45.5806 139.783 45.2651C140.099 45.1074 141.045 45.2651 141.36 45.4228C141.676 45.5806 142.149 46.0537 142.464 46.3691C142.938 46.8423 143.411 47.3155 144.042 47.9463C146.565 50.6275 147.984 54.7282 147.827 58.3557C147.827 60.5637 147.511 62.4564 146.88 64.5067C146.565 65.2953 146.25 66.0839 145.776 66.8724C145.303 67.8188 144.515 68.2919 143.726 68.9228C141.203 70.5 137.417 70.0268 135.209 67.9765C134.421 67.1879 134.105 66.2416 133.474 65.2953C133.001 64.6644 132.686 64.0335 132.528 63.0872C132.528 62.9295 132.528 62.9295 132.37 63.0872Z" fill="black"/>
<path opacity="0.4" fill-rule="evenodd" clip-rule="evenodd" d="M132.37 35.0135C132.844 36.4329 133.001 38.0101 134.579 38.7987C134.894 38.9564 135.367 39.1141 135.683 39.1141C135.998 39.1141 136.313 38.9564 136.629 38.641C138.206 37.5369 137.26 34.8557 136.313 33.594C135.682 32.9631 134.894 32.6477 134.105 32.3322C133.79 32.1745 133.79 32.1745 133.474 32.3322C133.159 32.49 133.001 32.49 132.844 32.8054C132.686 32.9631 132.686 33.4363 132.686 33.594C132.686 33.9094 132.528 34.0671 132.528 34.2249C132.37 34.698 132.528 35.1712 132.686 35.6443L132.37 35.0135Z" fill="black"/>
<path opacity="0.4" fill-rule="evenodd" clip-rule="evenodd" d="M120.699 95.7348C120.384 96.6811 120.068 97.7851 119.595 98.7314C119.122 99.8354 118.649 100.782 118.176 101.886C117.072 104.567 116.441 107.564 115.652 110.403C114.864 113.399 114.391 116.553 114.075 119.55C113.917 121.127 113.602 122.704 113.76 124.282C113.76 125.386 113.76 126.805 114.233 127.909C114.548 128.54 115.179 129.644 115.81 129.959C116.756 130.433 117.86 129.644 118.649 129.171C121.646 127.594 124.327 125.386 126.693 123.02C129.058 120.654 131.424 118.446 133.474 115.765C134.421 114.503 135.367 113.399 136.156 111.98C136.787 110.876 137.26 109.614 137.733 108.51C138.206 107.406 138.679 106.302 139.152 105.198C139.783 103.936 140.256 102.517 140.729 101.097C141.518 98.416 142.307 95.7348 141.36 93.0536C140.572 90.6878 138.679 88.9529 136.156 88.4797C134.894 88.1643 133.317 87.8489 132.055 87.8489C130.793 88.0066 129.374 88.322 128.112 88.7952C127.008 89.2683 125.904 89.7415 124.958 90.3724C124.485 90.6878 124.011 91.1609 123.538 91.6341C122.75 92.4227 122.119 93.2113 121.488 94.1576C121.173 94.6307 121.015 94.9462 120.542 95.2616C120.384 96.0502 120.068 96.8388 120.699 95.7348Z" fill="black"/>
<path opacity="0.4" fill-rule="evenodd" clip-rule="evenodd" d="M108.871 130.275C107.293 130.906 106.032 131.379 104.612 132.483C103.035 133.745 101.458 134.849 100.354 136.584C99.8806 137.215 99.092 138.161 99.7228 138.949C100.196 139.58 101.142 139.58 101.931 139.58C103.035 139.58 104.139 139.423 105.085 138.949C106.032 138.634 106.82 138.003 107.767 137.688C108.713 137.372 109.975 136.741 110.605 135.953C110.921 135.48 111.236 134.849 111.552 134.376C111.867 133.902 111.867 133.745 111.867 133.114C111.867 132.483 111.394 131.694 111.079 131.379C110.763 131.064 109.975 130.59 109.501 130.748C109.186 130.748 108.871 130.906 108.555 131.064C107.924 131.064 107.451 131.852 108.871 130.275Z" fill="black"/>
<path opacity="0.4" fill-rule="evenodd" clip-rule="evenodd" d="M106.978 121.127C106.663 119.866 106.347 119.077 106.347 117.815C106.505 116.711 106.505 115.765 106.978 114.819C107.293 114.345 107.924 113.084 108.397 112.926C108.555 112.926 109.028 112.926 109.186 112.926C109.975 113.084 110.448 114.03 110.605 114.819C110.921 115.923 110.605 117.184 110.763 118.446C110.763 119.392 110.605 120.181 110.29 120.97C109.975 121.6 109.501 121.6 108.871 121.6C108.24 121.6 107.924 121.443 107.451 120.97C107.293 120.812 106.978 120.812 106.82 120.654C106.505 120.339 106.505 120.023 106.978 121.127Z" fill="black"/>
<path opacity="0.4" fill-rule="evenodd" clip-rule="evenodd" d="M105.558 73.8119C105.401 74.6005 105.401 75.5468 105.401 76.3354C105.716 76.3354 106.032 76.9663 106.347 76.9663C106.978 77.124 107.451 76.8086 107.924 76.4931C108.87 75.7046 109.186 74.2851 108.871 73.1811C108.713 72.077 107.451 71.9193 106.505 72.0771C106.189 72.0771 105.716 72.2348 105.558 72.3925C104.928 72.8656 104.928 73.4965 104.928 74.1274L105.558 73.8119Z" fill="black"/>
<path opacity="0.4" fill-rule="evenodd" clip-rule="evenodd" d="M34.2701 125.228C34.7432 124.282 35.2164 123.335 35.8472 122.547C36.6358 121.6 37.4244 120.812 38.213 120.023C39.317 119.077 40.4211 118.131 41.5251 117.342C42.6291 116.553 43.5754 115.765 44.6794 114.976C46.5721 113.715 48.6224 112.926 50.8304 112.137C52.5653 111.506 54.4579 111.349 56.3505 111.664C58.2432 111.98 60.1357 113.084 61.3975 114.345C62.6592 115.607 64.0787 117.184 64.8673 118.762C66.6022 122.074 65.8136 125.859 64.7096 129.171C64.2364 130.748 63.1324 132.483 61.8707 133.587C61.0821 134.218 60.2935 134.533 59.3472 134.691C58.4009 134.849 57.1391 135.322 56.1928 135.322C51.619 135.953 47.0452 135.637 42.7868 134.06C41.0519 133.429 39.4747 132.641 37.7398 131.852C36.4781 131.221 35.3741 130.433 34.5855 129.329C33.9546 128.54 33.4815 127.436 33.4815 126.332C33.4815 125.859 33.6392 125.386 33.7969 124.913C34.1123 125.228 34.2701 125.07 34.2701 125.228Z" fill="black"/>
<path opacity="0.4" fill-rule="evenodd" clip-rule="evenodd" d="M68.0217 127.278C67.7062 128.067 67.5485 129.013 67.3908 129.802C67.7062 129.959 67.7062 130.433 67.8639 130.748C68.1794 131.063 68.3371 131.221 68.8102 131.221C69.2834 131.221 69.7565 131.221 70.072 131.221C70.7028 131.063 70.8606 130.906 71.176 130.433C71.4914 129.959 71.6491 129.644 71.6491 129.013C71.6491 128.54 71.4914 128.067 71.176 127.751C71.0183 127.436 70.7029 127.121 70.3874 126.963C69.7565 126.49 69.2834 126.805 68.8102 127.121L68.0217 127.278Z" fill="black"/>
<path opacity="0.4" fill-rule="evenodd" clip-rule="evenodd" d="M141.833 88.322C141.203 87.8488 140.572 87.218 140.099 86.4294C140.099 86.1139 140.099 85.7985 140.099 85.4831C139.941 84.6945 139.783 84.0636 139.941 83.275C140.256 81.3824 141.833 80.1207 143.726 79.9629C144.988 79.8052 146.723 80.7515 147.354 81.8555C147.984 82.9596 148.3 84.2213 148.3 85.4831C148.3 86.4294 148.142 87.6911 147.511 88.4797C147.038 89.1106 146.25 89.1106 145.619 89.1106C144.83 89.1106 144.042 88.9528 143.411 88.7951C142.78 88.6374 142.149 88.322 141.833 88.322Z" fill="black"/>
</g>
<path opacity="0.4" fill-rule="evenodd" clip-rule="evenodd" d="M11.875 66.3993C11.875 66.3993 53.6702 83.4329 76.3815 82.1711C99.0929 80.7517 108.714 67.8188 117.861 55.99C126.851 44.1612 130.321 29.8088 130.321 29.8088C130.321 29.8088 113.13 62.9296 91.8379 71.7618L79.5359 74.2852C79.5359 74.2852 86.0024 69.5537 90.4185 64.6645C94.8346 59.7752 112.026 52.8356 113.761 47.1578C115.338 41.48 115.18 32.1746 118.019 26.1813C120.858 20.1881 123.539 15.2988 123.539 15.2988L116.126 14.0371L112.657 22.2384C112.657 22.2384 111.71 35.8021 109.029 43.0571C106.348 50.4699 80.4822 70.5 74.6467 73.8121C68.8111 77.1242 17.2374 70.0269 11.875 66.3993Z" fill="#7D72B3"/>
<path opacity="0.4" fill-rule="evenodd" clip-rule="evenodd" d="M86.6339 138.003C86.7916 138.003 89.4728 136.741 90.2614 136.741C90.5768 136.741 90.8923 137.057 91.2077 137.214C91.9963 137.688 92.4695 138.161 92.3117 139.107C92.154 140.369 90.8923 141.946 89.4728 142.419C87.7379 143.05 85.8453 142.261 85.2144 141C84.5835 139.738 86.1607 137.688 88.0533 137.53L86.6339 138.003Z" fill="#7D72B3"/>
<path fill-rule="evenodd" clip-rule="evenodd" d="M51.6205 63.5602C50.6742 65.2951 48.1507 68.2917 48.9393 70.8152C49.2547 71.9192 50.0433 72.8655 50.5165 73.9695C51.7782 76.6507 54.3017 79.3319 57.456 77.4393C61.0835 75.2313 59.5064 71.2883 57.9292 68.4494C57.2983 67.3454 56.5097 66.0837 55.4057 65.4528C54.7748 65.1374 53.8285 64.8219 53.1977 64.6642C51.9359 64.191 52.7245 63.5602 51.6205 63.5602Z" fill="#FF9F84"/>
<path fill-rule="evenodd" clip-rule="evenodd" d="M75.4359 8.67444C75.2781 9.62075 75.2781 10.4093 75.4359 11.3556C75.7513 11.3556 75.909 11.5134 76.2244 11.5134C76.5399 11.5134 77.013 11.3556 77.3284 11.0402C77.9593 10.7248 78.117 9.93619 78.117 9.30531C78.117 8.67444 78.117 8.04357 77.4862 7.72814C76.6976 7.25498 75.909 7.57042 75.5935 8.35901V8.67444H75.4359Z" fill="#FFEF84"/>
<path fill-rule="evenodd" clip-rule="evenodd" d="M59.6641 89.899C59.8218 89.4259 59.9795 87.8487 60.4527 87.2179C60.7681 86.7447 61.5567 86.4293 62.1875 86.1138C63.4493 85.6407 64.8688 85.7984 65.8151 86.7447C67.7077 88.3219 67.55 90.8454 65.8151 92.5803C65.0265 93.3688 63.9225 94.1574 62.8184 94.1574C62.1876 94.1574 61.5567 94.3151 61.0835 93.9997C60.4527 93.6843 59.9795 93.0534 59.8218 92.4225C59.5063 91.3185 59.6641 90.5299 60.295 89.5836L59.6641 89.899Z" fill="#FF9F84"/>
<path fill-rule="evenodd" clip-rule="evenodd" d="M45.9426 89.1105C45.9426 89.8991 45.4695 91.9494 46.7312 92.2648C47.3621 92.4225 47.9929 91.634 47.9929 91.1608C48.1507 90.6877 47.993 89.8991 47.8353 89.4259C47.5198 88.795 46.8889 88.3219 46.4158 88.9528H45.9426V89.1105Z" fill="#FF9F84"/>
<path fill-rule="evenodd" clip-rule="evenodd" d="M14.0837 74.6004C14.2414 75.8622 14.2414 77.9125 15.03 79.0165C15.3454 79.4897 15.6609 79.9628 16.2918 80.1206C16.9226 80.2783 17.2381 79.9628 17.5535 79.4897C18.1844 78.7011 18.1843 78.2279 18.1843 77.2816C18.1843 76.493 17.8689 75.5467 17.5535 74.7581C17.2381 74.285 16.7649 73.8118 16.4494 73.4964C16.134 73.181 15.8186 73.0233 15.1877 73.0233C14.3991 73.0233 14.5569 73.9696 14.3991 74.6004H14.0837Z" fill="#FF9F84"/>
<path fill-rule="evenodd" clip-rule="evenodd" d="M124.802 68.4494C124.802 68.2916 124.959 66.0836 125.432 65.6104C125.59 65.4527 126.063 65.295 126.221 65.1373C126.852 64.8219 127.64 64.6641 128.429 64.9796C129.375 65.4527 130.322 66.8722 130.006 67.9762C129.691 69.3957 128.114 70.342 126.852 70.342C125.432 70.342 124.328 68.6071 125.117 67.3453L124.802 68.4494Z" fill="#FF9F84"/>
<path fill-rule="evenodd" clip-rule="evenodd" d="M47.993 86.1138C47.993 86.1138 48.1507 85.0098 48.3084 84.6943C48.4662 84.5366 48.6239 84.5366 48.7816 84.5366C49.097 84.3789 49.5702 84.3789 49.8856 84.5366C50.3588 84.852 50.8319 85.4829 50.6742 86.1138C50.5165 86.7447 49.7279 87.3755 49.097 87.3755C48.4662 87.3755 47.8353 86.4292 48.1507 85.7984L47.993 86.1138Z" fill="#FF9F84"/>
<path fill-rule="evenodd" clip-rule="evenodd" d="M82.06 99.8352C82.06 99.8352 82.2178 98.7312 82.3755 98.4158C82.5332 98.2581 82.6909 98.2581 82.8486 98.2581C83.1641 98.1003 83.6372 98.1003 83.9527 98.2581C84.4258 98.5735 84.899 99.2044 84.7412 99.8352C84.5835 100.466 83.7949 101.097 83.1641 101.097C82.5332 101.097 81.9023 100.151 82.2178 99.5198L82.06 99.8352Z" fill="#FF9F84"/>
<path fill-rule="evenodd" clip-rule="evenodd" d="M105.087 39.5871C105.087 39.5871 105.245 38.4831 105.402 38.1676C105.56 38.0099 105.718 38.0099 105.875 38.0099C106.191 37.8522 106.664 37.8522 106.979 38.0099C107.453 38.3254 107.926 38.9562 107.768 39.5871C107.61 40.218 106.822 40.8488 106.191 40.8488C105.56 40.8488 104.929 39.9025 105.244 39.2717L105.087 39.5871Z" fill="#FF9F84"/>
<path fill-rule="evenodd" clip-rule="evenodd" d="M58.2446 126.963C58.2446 126.963 58.4024 125.859 58.5601 125.543C58.7178 125.386 58.8755 125.386 59.0332 125.386C59.3487 125.228 59.8218 125.228 60.1373 125.386C60.6104 125.701 61.0836 126.332 60.9258 126.963C60.7681 127.594 59.9795 128.224 59.3487 128.224C58.7178 128.224 58.0869 127.278 58.4024 126.647L58.2446 126.963Z" fill="#FF9F84"/>
<path fill-rule="evenodd" clip-rule="evenodd" d="M119.912 87.0602C118.808 87.8488 118.02 88.1642 117.389 89.1105C116.916 89.8991 116.285 90.53 115.969 91.4763C115.654 92.1071 115.338 93.2112 115.338 93.842C115.496 95.7346 117.862 94.1575 118.651 93.5266C119.597 92.738 120.543 91.634 120.543 90.3723C120.543 89.8991 120.543 89.2682 120.385 88.7951C120.228 88.6374 120.228 88.3219 120.07 88.1642C119.755 87.8488 119.597 87.8488 119.912 87.0602Z" fill="#FF9F84"/>
<path fill-rule="evenodd" clip-rule="evenodd" d="M143.728 95.7346C143.885 94.946 143.412 97.9426 143.57 98.1003C143.885 98.1003 144.201 98.1003 144.516 98.1003C144.832 98.1003 144.989 97.7849 145.305 97.6272C145.936 97.154 146.409 96.8386 146.409 96.05C146.409 95.4191 146.251 94.946 145.62 94.6305C145.305 94.4728 145.147 94.4728 144.832 94.4728C144.201 94.6305 143.728 95.2614 143.412 95.8923L143.728 95.7346Z" fill="#FF9F84"/>
<path fill-rule="evenodd" clip-rule="evenodd" d="M80.3251 8.98988C80.3251 8.35901 80.0097 10.5671 80.1674 10.5671C80.3251 10.5671 80.6405 10.5671 80.7983 10.5671C81.1137 10.5671 81.1137 10.4093 81.2714 10.2516C81.7445 9.93619 82.06 9.77848 82.06 9.1476C82.06 8.67445 82.06 8.35901 81.5868 8.20129C81.4291 8.20129 81.2714 8.04358 81.1137 8.04358C80.6405 8.2013 80.3251 8.51673 80.1674 8.98988H80.3251Z" fill="#FFEF84"/>
<path fill-rule="evenodd" clip-rule="evenodd" d="M120.701 70.0266C120.701 69.3957 120.385 71.6038 120.543 71.6038C120.701 71.6038 121.016 71.6038 121.174 71.6038C121.489 71.6038 121.489 71.446 121.647 71.2883C122.12 70.9729 122.436 70.8152 122.436 70.1843C122.436 69.7111 122.436 69.3957 121.963 69.238C121.805 69.238 121.647 69.0803 121.489 69.0803C121.016 69.238 120.701 69.5534 120.543 70.0266H120.701Z" fill="#FFEF84"/>
<path fill-rule="evenodd" clip-rule="evenodd" d="M78.1171 128.224C78.7479 128.224 76.5399 128.224 76.5399 128.224C76.5399 128.382 76.5399 128.698 76.5399 128.855C76.5399 129.171 76.6976 129.171 76.8553 129.329C77.1708 129.644 77.4862 129.959 77.9593 129.959C78.4325 129.959 78.7479 129.802 78.7479 129.329C78.7479 129.171 78.9056 129.013 78.7479 128.855C78.5902 128.382 78.1171 128.067 77.8017 128.067L78.1171 128.224Z" fill="#FFEF84"/>
<path fill-rule="evenodd" clip-rule="evenodd" d="M44.05 64.0334C44.05 63.4025 43.7346 65.6106 43.8923 65.6106C44.05 65.6106 44.3655 65.6106 44.5232 65.6106C44.8386 65.6106 44.8386 65.4528 44.9963 65.2951C45.4695 64.9797 45.7849 64.822 45.7849 64.1911C45.7849 63.718 45.7849 63.4025 45.3118 63.2448C45.1541 63.2448 44.9963 63.0871 44.8386 63.0871C44.3654 63.2448 44.05 63.5602 43.8923 64.0334H44.05Z" fill="#FFEF84"/>
<path fill-rule="evenodd" clip-rule="evenodd" d="M77.0131 121.758C77.1708 120.969 76.6976 123.966 76.8553 124.124C77.1708 124.124 77.4862 124.124 77.8017 124.124C78.1171 124.124 78.2748 123.808 78.5902 123.651C79.2211 123.177 79.6942 122.862 79.6942 122.073C79.6942 121.443 79.5365 120.969 78.9057 120.654C78.5902 120.496 78.4325 120.496 78.1171 120.496C77.4862 120.654 77.0131 121.285 76.6976 121.916L77.0131 121.758Z" fill="#FF9F84"/>
<path fill-rule="evenodd" clip-rule="evenodd" d="M35.2158 72.7078C59.3466 76.493 57.9271 82.9595 86.0008 75.2313C114.075 67.5031 134.262 25.3925 134.262 25.3925C134.262 25.3925 135.682 22.2381 134.42 20.3455C133.947 19.5569 130.32 21.1341 130.32 21.1341C130.95 34.6978 112.024 62.7716 90.5746 70.8152C88.2089 71.6038 86.0008 71.9192 83.7928 72.3924C82.8465 71.9192 80.323 69.5535 91.9941 61.6676C105.873 52.3622 112.024 48.8924 110.762 39.1139C109.501 29.3354 121.803 14.0368 121.803 14.0368C121.803 14.0368 122.749 9.93616 120.383 7.41268C117.387 4.1006 110.762 7.41268 110.762 7.41268C110.762 7.41268 109.028 26.4965 84.8968 36.7482C60.766 46.9998 47.2023 41.9529 38.0547 39.1139C28.7493 36.275 26.0681 20.9764 26.0681 20.9764C26.0681 20.9764 18.1822 19.3992 15.3433 24.2885C13.293 27.916 16.2896 32.4898 16.2896 32.4898C16.2896 32.4898 30.9573 37.8522 44.0479 42.8992C57.1385 47.9461 82.3734 43.3723 91.2055 39.1139C100.195 34.8556 100.195 27.916 107.293 21.6073C110.289 19.0838 113.286 17.1912 115.809 16.0871C115.809 16.0871 107.924 28.2314 108.87 36.7482C109.816 45.2649 104.454 44.9495 91.2055 59.9327C81.9002 70.342 73.8566 73.8118 69.9137 74.7581C59.8197 75.7045 50.5144 74.6004 38.0547 71.1306C17.7091 65.6105 5.5648 56.7783 5.5648 56.7783C5.5648 56.7783 3.82991 55.9897 3.19904 57.8824C2.8836 58.6709 4.77621 61.0367 4.77621 61.0367C4.77621 61.0367 11.085 68.7649 35.2158 72.7078Z" fill="url(#paint2_linear_4_1513)"/>
<path fill-rule="evenodd" clip-rule="evenodd" d="M52.2501 144.312C52.2501 144.312 46.2569 140.527 41.8408 129.013C37.4247 117.5 37.8978 118.288 29.5388 111.033C21.1798 103.778 6.66974 96.681 6.66974 96.681C6.66974 96.681 5.72342 96.9965 5.72342 97.3119C5.72342 98.7314 7.45832 99.0468 7.45832 99.0468C7.45832 99.0468 21.022 104.882 29.5388 114.188C38.0556 123.493 47.2032 140.211 40.7368 139.265C40.7368 139.265 42.1562 143.365 45.626 144.312C48.938 145.258 52.2501 144.312 52.2501 144.312Z" fill="url(#paint3_radial_4_1513)"/>
<path d="M111.71 88.6375C114.549 85.6408 117.861 81.6979 131.425 81.5402C144.989 81.3824 151.928 84.3791 151.928 84.3791C151.928 84.3791 154.767 83.5905 155.083 79.963C155.398 76.3355 152.559 74.6006 152.559 74.6006C152.402 75.7046 150.982 83.275 139.469 78.859C139.469 78.7012 143.569 75.0737 144.358 67.5033C145.304 59.9328 147.986 49.0503 147.986 49.0503C147.986 49.0503 149.563 46.3691 148.616 44.1611C148.301 43.3725 145.62 43.057 145.62 43.057C147.986 58.3557 142.15 76.6509 135.841 78.859C128.271 79.0167 118.965 80.2784 114.707 83.1173C109.502 86.5871 104.298 102.043 100.986 112.926C100.197 115.607 98.4622 118.604 96.2541 121.443C87.8951 123.493 90.5762 113.399 86.9487 110.402C83.3212 107.406 76.5394 108.983 71.9655 107.406C67.5495 105.671 66.2877 102.201 61.5562 101.57C56.8246 100.939 49.2542 109.929 40.5797 106.302C31.9053 102.674 3.20062 68.6073 3.20062 68.6073C3.20062 68.6073 0.677134 67.9764 0.0462635 69.7113C-0.42689 71.1308 2.88521 74.7583 2.88521 74.7583C2.88521 74.7583 22.9153 104.882 41.9992 108.825C61.083 112.768 78.432 109.141 84.4252 114.188C90.4185 119.392 90.8917 127.594 90.8917 127.751C84.7407 134.376 77.328 140.053 73.8582 141.788C67.8649 144.785 58.0864 146.835 58.0864 146.835C59.5059 148.412 62.1871 149.674 65.026 150.463C69.2844 151.567 71.9655 149.516 71.9655 149.516C71.9655 149.516 69.5998 147.466 72.7541 144.785C80.7977 138.003 86.6333 135.164 94.9923 133.114C100.039 131.852 101.617 134.218 102.247 133.429C110.133 135.953 116.284 130.117 122.908 124.597C129.533 119.235 138.207 118.446 138.207 118.446C138.207 118.446 142.623 117.658 143.885 115.765C144.989 114.03 142.465 111.98 142.465 111.98C142.465 111.98 138.68 113.557 131.425 117.184C124.328 120.812 116.6 131.379 107.767 131.064C102.878 130.906 103.982 126.017 103.509 125.228C103.509 124.913 103.509 124.597 103.509 124.124C103.351 120.654 102.563 117.342 102.563 114.819C102.563 114.188 102.563 113.557 102.721 112.926C103.982 108.983 108.872 91.4764 111.71 88.6375ZM96.4118 121.285C94.8346 123.335 93.0997 125.386 91.2071 127.436L96.4118 121.285ZM103.194 126.647C103.351 127.436 103.509 128.225 103.351 129.171C103.351 129.644 103.194 129.96 102.878 130.117C102.563 130.275 102.405 130.275 102.09 130.275C101.774 130.433 101.301 130.433 100.986 130.59C100.355 130.748 99.7238 130.59 99.2507 130.59C98.6198 130.59 97.9889 130.59 97.3581 130.59C97.0426 130.59 96.7272 130.433 96.4118 130.433C96.0964 130.433 95.6232 130.433 95.4655 130.275C94.8347 129.959 94.3615 129.171 93.8884 129.013C93.8884 128.382 93.8883 127.909 94.2037 127.436C94.2037 127.278 94.3615 127.121 94.3615 126.805C94.5192 126.49 94.5192 126.174 94.6769 125.859C94.9924 125.07 95.3078 124.282 95.9387 123.651C96.0964 123.335 96.4118 122.862 96.5695 122.547C96.8849 122.074 97.2004 121.758 97.5158 121.443C97.989 120.97 98.4621 120.496 99.093 120.181C99.5662 119.866 100.355 119.55 100.986 119.708C101.617 119.866 101.774 120.654 101.932 121.127C102.09 121.443 102.09 121.916 102.247 122.231C102.405 122.704 102.563 123.178 102.721 123.651C102.878 124.282 102.878 124.755 103.036 125.386C103.036 125.701 103.036 126.174 103.194 126.647Z" fill="url(#paint4_linear_4_1513)"/>
<path fill-rule="evenodd" clip-rule="evenodd" d="M18.0267 22.5538C18.0267 22.5538 21.3387 29.4934 30.0132 35.8021C30.0132 35.8021 27.1743 25.7081 25.124 21.6075C25.124 21.6075 22.285 18.9263 18.0267 22.5538Z" fill="#FFFF0E"/>
<path fill-rule="evenodd" clip-rule="evenodd" d="M63.6061 43.8455C63.6061 43.8455 69.4417 41.4797 71.3343 42.426C71.3343 42.2683 65.6565 43.8455 63.6061 43.8455Z" fill="#FFFF0E"/>
<path fill-rule="evenodd" clip-rule="evenodd" d="M83.3218 38.3254C84.4258 38.01 85.5298 37.6946 86.4762 37.2214C87.4225 36.906 88.211 36.4328 89.1573 35.9597C90.2613 35.3288 91.3654 34.6979 92.3117 33.9093C92.6272 33.7516 92.7849 33.5939 93.1003 33.4362C93.4157 33.2785 93.7311 32.963 94.0466 32.8053C94.362 32.6476 94.5197 32.3322 94.8352 32.1745C95.1506 32.0167 95.3083 31.7013 95.6238 31.5436C96.0969 31.2281 96.57 30.755 96.8855 30.4396C97.0432 30.2818 97.201 30.1241 97.5164 29.8087C97.6741 29.651 97.8318 29.651 97.9895 29.651C97.9895 29.8087 97.8318 30.1241 97.8318 30.2818C97.6741 30.5973 97.5163 30.755 97.3586 31.0704C97.0432 31.7013 96.4124 32.0167 95.9392 32.6476C95.6238 32.963 95.3083 33.2785 94.8352 33.5939C94.362 33.9093 93.7312 34.2248 93.1003 34.5402C92.4694 34.8557 91.8385 35.0134 91.3654 35.3288C90.8922 35.6442 90.2613 35.9597 89.7882 36.1174C89.4727 36.2751 88.9996 36.5905 88.6842 36.7483C88.3688 36.906 88.0533 37.0637 87.7379 37.2214C87.2647 37.5368 86.7916 37.6946 86.3184 38.01C86.003 38.1677 85.8453 38.1677 85.5298 38.3254C85.0567 38.6409 84.2681 38.7986 83.6372 38.7986C83.4795 38.7986 83.1641 38.7986 83.0063 38.7986C82.8486 38.7986 82.6909 38.6409 82.6909 38.6409C83.0063 38.4832 83.1641 38.3254 83.3218 38.3254Z" fill="#FFFF0E"/>
<path fill-rule="evenodd" clip-rule="evenodd" d="M99.0936 28.0739C98.7781 28.2316 98.6204 28.3893 98.305 28.7048C98.305 28.8625 98.1472 29.0202 98.4627 29.0202C98.7781 29.0202 98.9358 28.8625 99.2512 28.5471C99.409 28.3893 99.5667 28.0739 99.409 27.9162C99.2513 27.7585 98.9358 27.9162 98.7781 28.0739H99.0936Z" fill="#FFFF0E"/>
<path fill-rule="evenodd" clip-rule="evenodd" d="M111.868 7.72821C111.71 8.04364 111.395 8.35908 111.237 8.67451C111.079 8.98995 111.079 9.14767 110.922 9.4631C110.764 9.93625 110.606 10.5671 110.448 11.0403C110.133 11.9866 109.975 13.0906 109.502 14.0369C109.344 14.5101 109.187 14.8255 108.871 15.2987C108.714 15.4564 108.556 15.7718 108.556 15.9295C108.398 16.0872 108.398 16.245 108.24 16.5604C108.083 16.7181 108.083 16.8758 107.925 17.0336C107.767 17.1913 107.767 17.5067 107.609 17.6644C107.452 17.8221 107.136 18.2953 107.294 18.453C107.452 18.453 107.452 18.2953 107.609 18.2953C107.767 18.1376 108.083 17.9799 108.24 17.6644C108.714 17.349 109.029 16.8758 109.344 16.4027C109.502 16.245 109.66 16.0872 109.818 15.7718C109.975 15.4564 110.291 15.2987 110.448 14.9832C110.764 14.5101 111.237 14.0369 111.552 13.7215C111.71 13.5638 111.868 13.2483 112.026 13.0906C112.183 12.9329 112.341 12.7752 112.499 12.4597C113.13 11.8289 113.603 11.198 114.234 10.5671C114.707 10.094 115.022 9.4631 115.495 8.98995C115.811 8.5168 116.126 8.04365 116.284 7.57049C116.442 7.41278 116.599 6.93962 116.599 6.7819C116.442 6.46647 116.126 6.30875 115.811 6.30875C115.338 6.30875 114.865 6.30875 114.391 6.30875C113.918 6.46646 113.603 6.62419 113.13 6.7819C112.814 6.93962 112.499 7.25505 112.026 7.41277C111.868 7.72821 111.552 7.88593 111.868 7.72821Z" fill="#FFFF0E"/>
<path fill-rule="evenodd" clip-rule="evenodd" d="M115.653 16.7183C115.496 17.0337 115.338 17.3492 115.18 17.6646C115.022 17.8223 114.865 18.1378 114.707 18.2955C114.391 18.7686 114.234 19.2418 113.918 19.5572C113.445 20.3458 112.814 21.1344 112.499 21.923C112.341 22.2384 112.184 22.5539 112.026 22.8693C111.868 23.1847 111.71 23.6579 111.71 23.9733C111.553 24.2888 111.553 24.6042 111.395 25.0773C111.395 25.3928 111.237 25.7082 111.237 26.0236C111.553 25.7082 111.71 25.2351 112.026 24.9196C112.184 24.6042 112.341 24.2888 112.657 24.131C112.972 23.9733 113.13 23.6579 113.288 23.3424C113.445 23.027 113.761 22.8693 113.918 22.5539C114.076 22.2384 114.234 22.0807 114.392 21.7653C114.549 21.6076 114.707 21.2921 114.865 20.9767C115.022 20.6612 115.18 20.3458 115.338 20.0304C115.496 19.3995 115.811 18.7686 115.969 18.1378C115.969 17.8223 116.126 17.5069 115.969 17.1915C115.969 17.0337 115.653 16.4029 115.653 16.7183Z" fill="#FFFF0E"/>
<path fill-rule="evenodd" clip-rule="evenodd" d="M110.448 26.9698C110.291 27.443 110.133 27.7584 110.133 28.2316C110.133 28.3893 110.133 28.547 110.133 28.547C110.291 28.547 110.448 28.547 110.448 28.3893C110.606 28.3893 110.606 28.2316 110.606 28.0739C110.764 27.9162 110.921 27.6007 110.764 27.2853C110.764 26.9698 110.448 26.8121 110.291 27.1276L110.448 26.9698Z" fill="#FFFF0E"/>
<path fill-rule="evenodd" clip-rule="evenodd" d="M102.72 48.5773C101.931 49.3659 100.827 50.1545 100.196 51.1008C100.196 51.2585 99.7233 51.574 99.881 51.7317C100.039 51.8894 100.354 51.7317 100.512 51.7317C100.985 51.574 101.458 51.2585 101.931 51.1008C102.247 50.9431 102.562 50.6276 102.878 50.4699C103.666 49.9968 104.297 49.3659 104.928 48.5773C105.243 48.2619 105.401 47.9464 105.559 47.631C105.559 47.4733 105.717 47.1579 105.717 47.1579C105.559 46.6847 104.613 47.1579 104.455 47.3156C104.297 47.4733 103.982 47.631 103.824 47.7887C103.666 47.9464 103.509 48.1042 103.351 48.1042C103.193 48.2619 103.035 48.4196 102.72 48.5773C102.72 48.735 102.562 48.8928 102.72 48.5773Z" fill="#FFFF0E"/>
<path fill-rule="evenodd" clip-rule="evenodd" d="M98.9356 52.52C98.6202 52.6778 98.3047 52.8355 98.147 52.9932C98.147 53.1509 97.8316 53.3086 97.9893 53.4663C98.1471 53.6241 98.4625 53.4663 98.4625 53.4663C98.6202 53.4663 98.7779 53.3086 98.9356 53.1509C98.9356 52.8355 98.9356 52.8355 98.9356 52.52Z" fill="#FFFF0E"/>
<path fill-rule="evenodd" clip-rule="evenodd" d="M79.5355 70.973C78.9047 71.4461 78.1161 71.9193 77.3275 72.3924C76.3812 72.8656 75.4349 73.181 74.6463 73.6542C73.2269 74.4428 71.8074 75.0736 70.3879 75.7045C70.2302 75.8622 68.0222 76.6508 68.8107 77.124C69.1262 77.2817 69.5993 77.2817 69.9148 77.2817C70.2302 77.2817 70.5456 77.4394 70.8611 77.4394C71.1765 77.4394 71.4919 77.4394 71.8074 77.4394C73.5423 77.4394 75.4349 76.9662 77.0121 76.3354C77.3275 76.1776 77.8006 76.0199 78.1161 75.8622C78.2738 75.7045 78.4315 75.5468 78.7469 75.3891C79.0624 75.0736 79.3778 74.7582 79.5355 74.285C79.851 73.6542 80.0087 73.181 80.0087 72.3924C80.0087 72.077 79.851 71.9193 79.6933 71.6038C79.6933 71.4461 79.5355 71.2884 79.5355 70.973Z" fill="#FFFF0E"/>
<path fill-rule="evenodd" clip-rule="evenodd" d="M67.2343 76.3355C66.9189 76.1778 66.4457 75.8623 65.9726 75.8623C65.8149 75.8623 65.6571 75.8623 65.4994 75.8623C65.184 75.8623 64.7108 76.0201 64.3954 76.1778C64.08 76.4932 64.8686 76.8086 65.184 76.9664C65.4994 77.1241 66.1303 77.1241 66.4457 76.9664C66.7612 76.9664 67.2343 76.6509 67.2343 76.3355C67.392 76.3355 67.392 76.3355 67.392 76.3355H67.2343Z" fill="#FFFF0E"/>
<path fill-rule="evenodd" clip-rule="evenodd" d="M90.1024 71.4461C91.6796 70.973 93.2568 70.3421 94.6762 69.5535C95.3071 69.2381 95.7802 68.9226 96.4111 68.6072C96.7265 68.4495 97.1997 68.134 97.5151 67.9763C97.6729 67.9763 98.6191 67.3454 98.7769 67.6609C98.9346 67.9763 97.9883 68.6072 97.8306 68.7649C97.5152 69.0803 97.0419 69.3958 96.5688 69.7112C96.2533 70.0266 95.7803 70.0266 95.4648 70.3421C94.9917 70.6575 94.5185 70.8152 93.8877 71.1307C93.5722 71.2884 93.099 71.4461 92.7836 71.6038C92.4682 71.7615 92.1527 71.7615 91.8372 71.9193C91.6795 71.9193 91.3641 71.9193 91.2064 71.9193C90.891 71.7615 90.2601 71.9193 90.1024 71.4461Z" fill="#FFFF0E"/>
<path fill-rule="evenodd" clip-rule="evenodd" d="M125.274 80.1207C126.063 80.1207 127.009 80.2784 127.798 80.1207C128.428 79.9629 128.902 79.9629 129.532 79.8052C130.636 79.6475 131.898 79.3321 133.002 79.3321C133.475 79.3321 133.948 79.3321 134.422 79.3321C134.737 79.3321 135.052 79.3321 135.21 79.3321C135.368 79.3321 135.683 79.4898 135.683 79.6475C135.999 79.9629 135.683 79.9629 135.526 79.9629C135.052 80.1207 134.737 80.4361 134.264 80.4361C133.475 80.5938 132.844 80.7515 132.056 80.9092C131.583 80.9092 131.11 80.9092 130.479 80.9092C129.848 81.067 129.217 81.067 128.428 81.067C127.797 81.067 127.324 81.067 126.693 81.067C126.22 81.067 125.905 80.9092 125.432 80.9092C125.116 80.9092 124.801 80.9092 124.643 80.7515C124.801 80.9092 124.485 80.5938 125.274 80.1207Z" fill="#FFFF0E"/>
<path fill-rule="evenodd" clip-rule="evenodd" d="M144.201 80.9091C145.147 81.0668 145.778 81.0668 146.724 80.9091C147.355 80.7514 147.986 80.7514 148.459 80.5937C149.248 80.436 150.194 80.1205 150.983 79.6474C151.456 79.3319 152.244 78.8588 152.718 79.0165C153.191 79.1742 153.664 79.6474 153.664 80.1205C153.664 80.7514 153.033 81.0668 152.718 81.3823C152.087 81.8554 150.983 82.1708 150.194 82.1708C149.248 82.1708 148.144 82.0131 147.197 81.8554C146.882 81.8554 146.567 81.6977 146.251 81.6977C145.936 81.54 145.305 81.54 144.201 80.9091Z" fill="#FFFF0E"/>
<path fill-rule="evenodd" clip-rule="evenodd" d="M146.409 44.0034C146.409 44.6343 145.935 46.3692 146.724 46.8424C147.197 47.1578 147.355 46.3692 147.355 46.0538C147.513 45.5806 147.197 44.3189 146.409 44.0034Z" fill="#FFFF0E"/>
<path fill-rule="evenodd" clip-rule="evenodd" d="M5.56507 59.4595C6.35366 60.4058 6.8268 61.3521 7.77311 61.8252C8.40398 62.1407 8.87714 62.6138 9.50801 62.7715C10.1389 62.9293 10.9275 63.087 11.5584 63.087C11.8738 63.087 12.0315 63.087 12.0315 62.6138C12.0315 62.4561 11.8738 62.1407 11.716 61.983C11.5583 61.6675 11.2429 61.5098 10.9275 61.1944C10.612 60.8789 10.4543 60.5635 10.1389 60.2481C9.03485 59.3018 7.93084 58.6709 6.51138 58.1977C6.03823 58.04 6.03822 58.04 5.56507 58.1977C5.24963 58.3554 5.24965 58.3554 5.09193 58.6709C5.09193 59.144 5.40736 59.6172 5.7228 60.0903L5.56507 59.4595Z" fill="#FFFF0E"/>
<path fill-rule="evenodd" clip-rule="evenodd" d="M6.19782 74.1276C7.30185 76.0202 8.72131 77.5974 10.1408 79.3323C11.0871 80.4363 11.718 82.0135 12.822 83.1175C12.9797 83.2752 15.03 85.0101 15.03 84.0638C15.03 83.9061 14.3992 82.9598 14.3992 82.8021C14.0837 82.3289 13.7683 81.698 13.2951 81.2249C12.9797 80.7517 12.5066 80.4363 12.3489 79.9632C12.0334 79.49 11.718 79.1746 11.4025 78.7014C10.9294 78.2283 10.6139 77.4397 10.2985 76.9665C9.98306 76.4934 9.50993 75.8625 9.1945 75.3893C8.72135 74.6008 8.09046 73.8122 7.30187 73.4967C7.14415 73.339 6.82871 73.1813 6.51328 73.339C5.72469 73.8122 6.04011 74.7585 6.19782 74.1276Z" fill="#FFFF0E"/>
<path fill-rule="evenodd" clip-rule="evenodd" d="M78.1158 109.299C79.8507 108.983 81.1124 108.668 82.8473 109.141C83.6359 109.299 84.4245 109.614 85.2131 109.772C85.6862 109.929 86.4748 110.087 86.7903 110.403C87.1057 110.876 87.1057 111.507 86.6325 111.822C86.1594 112.295 85.0554 112.137 84.4245 112.137C83.1628 111.98 82.0588 111.822 80.797 111.507C80.1661 111.349 79.2198 111.033 78.589 110.56C78.4313 110.403 77.8004 109.772 78.1158 109.299Z" fill="#FFFF0E"/>
<path fill-rule="evenodd" clip-rule="evenodd" d="M100.985 118.131C100.196 117.973 100.038 116.396 100.354 115.765C100.512 115.45 100.669 114.819 101.142 114.661C101.458 114.503 101.616 114.819 101.931 114.819C101.616 115.607 101.142 116.238 100.669 116.869L100.985 118.131Z" fill="#FFFF0E"/>
<path fill-rule="evenodd" clip-rule="evenodd" d="M132.372 117.658C133.476 116.869 134.265 116.396 135.526 116.08C136.157 115.923 136.788 115.765 137.419 115.607C138.208 115.449 138.838 114.976 139.627 114.976C139.942 114.976 140.1 114.976 140.416 114.819C140.731 114.819 140.573 114.661 140.889 114.819C141.52 115.134 141.204 115.607 140.889 115.923C140.1 116.553 139.469 116.869 138.523 117.027C137.892 117.184 137.577 117.5 136.946 117.658C136.63 117.815 136.315 117.815 135.999 117.973C134.58 118.288 133.161 117.973 132.372 117.658Z" fill="#FFFF0E"/>
<path fill-rule="evenodd" clip-rule="evenodd" d="M32.0631 114.976C32.6939 116.396 33.3248 117.815 34.2711 119.077C34.7443 119.708 35.0597 120.181 35.6906 120.496C36.1637 120.654 36.6369 120.812 36.6369 120.023C36.6369 119.708 36.3214 119.077 36.1637 118.761C35.5328 117.657 34.7443 116.869 34.1134 115.922C33.7979 115.607 33.4825 114.976 33.1671 114.818C32.6939 114.661 31.9054 114.345 32.0631 114.976Z" fill="#FFFF0E"/>
<path fill-rule="evenodd" clip-rule="evenodd" d="M61.2404 146.835C62.9753 146.52 64.3947 145.889 65.9719 145.416C66.6028 145.101 67.2336 145.101 68.0222 145.101L68.1799 144.943C68.3376 144.943 68.6531 144.943 68.8108 144.943C68.9685 144.943 69.7571 144.785 69.9148 144.943C70.5457 145.416 69.2839 146.678 68.9685 146.835C67.8645 147.939 66.1296 148.57 64.3947 148.413C63.6061 148.255 62.8175 147.939 62.0289 147.782C61.5558 147.782 60.4518 147.466 60.4518 146.835C60.6095 146.993 60.6095 146.835 61.2404 146.835Z" fill="#FFFF0E"/>
<path fill-rule="evenodd" clip-rule="evenodd" d="M90.2606 129.96C88.8412 130.906 87.1063 131.852 86.0022 133.429C85.2136 134.533 86.6331 134.218 87.264 134.06C87.7372 133.903 88.2103 133.745 88.5257 133.429C88.8412 133.114 89.1566 132.956 89.472 132.483C89.7875 132.168 89.9452 132.01 90.2606 131.852C90.4183 131.537 90.5761 131.064 90.8915 130.906C90.8915 130.748 90.7338 130.748 90.7338 130.591L90.2606 129.96Z" fill="#FFFF0E"/>
<path fill-rule="evenodd" clip-rule="evenodd" d="M49.5683 107.09C50.6724 106.617 51.7764 106.302 52.7227 105.671C53.669 105.198 54.6153 104.567 55.5616 104.094C56.8234 103.463 58.0851 102.674 59.5046 102.517C59.9777 102.517 60.4509 102.201 60.924 102.517C61.3972 102.674 61.5549 102.832 61.8704 103.147C62.6589 104.251 61.0818 105.198 60.2932 105.671C59.6623 106.144 59.1891 106.617 58.4005 106.933C57.612 107.248 56.8234 107.406 56.0348 107.721C54.773 108.194 53.3536 108.825 51.9341 108.983C51.1455 109.141 50.5147 108.825 49.8838 108.352C49.5684 108.194 49.2529 107.879 49.0952 107.564C48.9375 107.406 48.7798 107.09 49.5683 107.09Z" fill="#FFFF0E"/>
<defs>
<radialGradient id="paint0_radial_4_1513" cx="0" cy="0" r="1" gradientUnits="userSpaceOnUse" gradientTransform="translate(31.6968 39.5084) scale(120.026 120.026)">
<stop offset="0.00558659" stop-color="#DE6863"/>
<stop offset="0.2018" stop-color="#DB6563"/>
<stop offset="0.3542" stop-color="#D15D62"/>
<stop offset="0.4919" stop-color="#C14F60"/>
<stop offset="0.6209" stop-color="#A93B5E"/>
<stop offset="0.7437" stop-color="#8B225B"/>
<stop offset="0.8606" stop-color="#670357"/>
<stop offset="0.8715" stop-color="#630057"/>
</radialGradient>
<linearGradient id="paint1_linear_4_1513" x1="3.25151" y1="53.9583" x2="110.736" y2="53.9583" gradientUnits="userSpaceOnUse">
<stop offset="0.0111732" stop-color="#FF7D85"/>
<stop offset="0.2983" stop-color="#FC7B84"/>
<stop offset="0.5089" stop-color="#F3757F"/>
<stop offset="0.695" stop-color="#E36B77"/>
<stop offset="0.8659" stop-color="#CC5C6C"/>
<stop offset="1" stop-color="#B54D61"/>
</linearGradient>
<linearGradient id="paint2_linear_4_1513" x1="2.90884" y1="42.2877" x2="134.916" y2="42.2877" gradientUnits="userSpaceOnUse">
<stop offset="0.00558659" stop-color="#FFB80B"/>
<stop offset="0.388" stop-color="#FFB60C"/>
<stop offset="0.5789" stop-color="#FEAE10"/>
<stop offset="0.7274" stop-color="#FCA117"/>
<stop offset="0.8539" stop-color="#FA8E21"/>
<stop offset="0.9655" stop-color="#F7762E"/>
<stop offset="1" stop-color="#F66D33"/>
</linearGradient>
<radialGradient id="paint3_radial_4_1513" cx="0" cy="0" r="1" gradientUnits="userSpaceOnUse" gradientTransform="translate(14.4985 109.42) scale(37.951 37.951)">
<stop offset="0.00558659" stop-color="#FFB80B"/>
<stop offset="0.388" stop-color="#FFB60C"/>
<stop offset="0.5789" stop-color="#FEAE10"/>
<stop offset="0.7274" stop-color="#FCA117"/>
<stop offset="0.8539" stop-color="#FA8E21"/>
<stop offset="0.9655" stop-color="#F7762E"/>
<stop offset="1" stop-color="#F66D33"/>
</radialGradient>
<linearGradient id="paint4_linear_4_1513" x1="0.366273" y1="96.7616" x2="155.144" y2="96.7616" gradientUnits="userSpaceOnUse">
<stop offset="0.00558659" stop-color="#FFB80B"/>
<stop offset="0.388" stop-color="#FFB60C"/>
<stop offset="0.5789" stop-color="#FEAE10"/>
<stop offset="0.7274" stop-color="#FCA117"/>
<stop offset="0.8539" stop-color="#FA8E21"/>
<stop offset="0.9655" stop-color="#F7762E"/>
<stop offset="1" stop-color="#F66D33"/>
</linearGradient>
</defs>
</svg>
