<svg width="150" height="150" viewBox="0 0 150 150" fill="none" xmlns="http://www.w3.org/2000/svg">
<path fill-rule="evenodd" clip-rule="evenodd" d="M149.516 74.6005C149.516 96.2078 140.369 115.607 125.701 129.329C118.604 135.795 110.402 141 101.255 144.469C95.4192 146.677 89.1105 148.255 82.6441 148.885C81.0669 149.043 79.332 149.201 77.7548 149.201C76.8085 149.201 75.8622 149.201 74.7582 149.201C71.4461 149.201 68.134 149.043 64.9797 148.57C53.624 147.151 43.0569 143.05 33.9093 137.057C32.963 136.426 32.1744 135.953 31.3858 135.322C29.8087 134.218 28.3892 133.114 26.812 131.852C19.0838 125.386 12.6174 117.342 8.04361 108.352C5.20469 102.674 2.99664 96.5232 1.57718 90.0568C0.946306 86.7447 0.473163 83.4327 0.157727 80.1206C9.62397e-06 78.3857 0 76.4931 0 74.6005C0 59.9327 4.25839 46.0536 11.6711 34.5402C14.8255 29.6509 18.453 25.0771 22.7114 21.1342C36.1174 8.0436 54.5703 0 74.7582 0C76.3354 0 78.0703 -2.40893e-06 79.6474 0.157715C86.1139 0.630868 92.4226 1.89261 98.2581 3.78523C100.151 4.4161 101.886 5.04697 103.621 5.83556C104.882 6.30871 106.144 6.93958 107.406 7.57045C114.661 11.0402 121.285 15.7718 126.963 21.4496C129.802 24.2885 132.483 27.2852 134.849 30.4395C142.261 40.5335 147.308 52.3623 148.886 65.4529C149.201 68.2918 149.516 71.4461 149.516 74.6005Z" fill="url(#paint0_radial_4_1363)"/>
<path fill-rule="evenodd" clip-rule="evenodd" d="M107.563 7.41257C107.247 7.41257 107.09 7.41257 106.774 7.57029C105.986 7.72801 105.197 7.57029 104.408 7.41257C103.778 7.25486 103.462 6.93942 102.674 6.93942C101.727 6.7817 100.939 6.46627 99.9924 6.30855C99.0461 6.15083 98.2575 5.8354 97.3112 5.51996C96.5226 5.20453 96.2072 5.36224 95.5763 5.51996C94.9454 5.67768 94.4723 5.36224 93.8414 5.20452C93.2105 4.88909 92.4219 4.88909 91.7911 4.73137C89.8985 4.41594 88.0059 3.78506 86.1133 3.31191C85.0092 2.99648 83.9052 2.99648 82.6435 2.99648C81.6972 2.99648 80.9086 3.31191 79.9622 3.31191C79.3314 3.31191 78.8582 3.1542 78.2274 3.1542C77.5965 2.99648 76.9656 3.1542 76.3348 3.1542C75.3885 2.99648 74.9153 2.83876 73.969 3.1542C73.1804 3.31191 72.7072 3.31191 71.9187 3.46963C71.1301 3.46963 70.1838 3.78507 69.3952 3.94278C67.9757 4.25822 66.3985 4.57366 64.9791 4.57366C64.0328 4.57366 62.771 4.25822 61.9824 4.57366C61.5093 4.73137 61.1938 5.36224 60.7207 5.67768C59.9321 6.46626 59.1435 7.09714 58.5127 7.88573C57.8818 8.67431 57.2509 9.62062 57.2509 10.7246C57.2509 11.6709 57.7241 12.775 58.1972 13.5636C58.6704 14.5099 58.8281 15.2985 57.8818 15.9293C56.7777 16.7179 55.3583 17.3488 54.0966 17.8219C53.1502 18.1374 52.3617 18.2951 51.7308 17.6642C51.4154 17.5065 51.2576 17.0333 50.9422 16.7179C50.6268 16.5602 50.1536 16.7179 49.8382 16.8756C48.8919 17.1911 47.9456 17.5065 46.9993 17.6642C46.3684 17.8219 45.8952 18.1374 45.2644 18.1374C44.6335 18.2951 44.1603 17.8219 43.3717 17.9797C42.4254 18.1374 41.3214 18.6105 40.3751 18.6105C39.5865 18.6105 38.6402 18.2951 38.0094 17.9797C37.6939 17.8219 37.5362 17.5065 37.063 17.6642C36.7476 17.6642 36.2745 18.1374 36.1167 18.4528C35.8013 18.7682 35.8013 19.2414 35.4859 19.5568C35.1704 20.03 35.0127 20.3454 34.6973 20.8186C34.2241 21.6072 33.751 22.3958 33.2778 23.1843C32.9624 23.6575 32.647 24.4461 32.1738 24.9192C32.0161 25.2347 31.5429 25.3924 31.2275 25.5501C30.4389 26.0233 29.6503 26.6541 28.8617 27.1273C27.4423 28.2313 26.0228 29.4931 24.6033 30.5971C23.4993 31.3857 21.9221 31.8588 20.6604 32.4897C19.8718 32.8051 19.0832 33.1206 18.2946 33.436C17.9792 33.5937 17.506 33.5937 17.3483 33.9091C17.0329 34.2246 16.8752 34.54 16.7175 35.0132C16.0866 35.8018 15.298 36.7481 14.8249 37.6944C14.5094 38.3252 14.3517 38.7984 14.0363 39.4293C13.7208 40.2179 13.2477 41.0064 13.09 41.9527C12.4591 43.6876 12.4591 45.5803 11.6705 47.3152C11.3551 48.2615 10.7242 49.2078 10.251 50.1541C9.46244 51.7313 9.30473 53.6239 9.14701 55.3588C8.98929 56.3051 9.14702 57.5668 9.30474 58.5131C9.46245 59.6171 9.46244 60.7212 9.46244 61.8252C9.46244 62.9292 8.67386 64.1909 8.04299 64.9795C7.41212 65.7681 6.30809 66.0836 5.5195 66.8722C4.88863 67.503 4.10005 68.1339 3.78462 69.0802C3.6269 69.3956 3.78462 69.8688 3.78462 70.3419C3.6269 71.2882 3.31146 72.0768 3.31146 73.0231C3.15374 74.1272 3.15373 75.2312 3.15373 76.4929C3.15373 77.1238 3.15373 77.5969 3.15373 78.2278C3.15373 78.8587 3.31144 79.3318 3.46916 79.805C3.46916 80.1204 3.46916 80.5936 3.46916 80.909C3.46916 81.3822 3.78462 81.8553 3.78462 82.1708C4.10005 83.2748 4.25776 84.2211 4.41548 85.3251C4.5732 86.2714 5.04635 87.2177 5.20407 88.164C5.67722 89.4258 5.83495 90.6875 6.15038 92.107C6.3081 93.0533 6.30809 94.1573 6.46581 95.1036C6.62353 95.8922 6.78124 96.6808 6.78124 97.4694C6.78124 98.7311 6.46581 99.8351 6.46581 101.097C6.46581 103.147 7.25441 105.198 7.72756 107.248C7.88528 107.879 8.04298 108.352 8.20069 108.983C2.99601 98.8888 0.157104 87.3754 0.157104 75.2312C0.157104 60.4057 4.41547 46.6843 11.8282 35.1709C14.9826 30.2816 18.6101 25.7078 22.8684 21.7649C36.2744 8.67432 54.7274 0.630714 74.9153 0.630714C76.4925 0.630714 78.2274 0.630712 79.8045 0.78843C89.583 0.630712 99.0461 3.31191 107.563 7.41257Z" fill="url(#paint1_linear_4_1363)"/>
<g opacity="0.5">
<g opacity="0.4">
<path opacity="0.4" fill-rule="evenodd" clip-rule="evenodd" d="M66.0837 95.4191V95.2614C66.5569 95.7345 67.03 96.2077 67.03 96.8385C66.7146 96.6808 66.2414 95.7345 66.0837 95.4191Z" fill="url(#paint2_linear_4_1363)"/>
<path fill-rule="evenodd" clip-rule="evenodd" d="M148.885 65.2949C148.57 64.664 148.255 64.1909 147.781 63.7177C146.993 62.6137 145.889 62.1405 144.627 61.8251C143.681 61.5097 142.734 61.0365 141.946 61.8251C141.157 62.6137 140.526 63.7177 140.053 64.5063C139.738 65.1372 139.265 66.3989 138.476 66.5566C137.688 66.7143 136.741 65.6103 136.11 64.9795C135.322 64.1909 134.849 62.9291 134.06 62.2983C133.429 61.8251 132.483 61.352 131.852 61.1942C130.432 60.5634 128.855 60.4056 127.278 60.2479C126.174 60.2479 125.386 59.6171 124.439 59.1439C123.493 58.6708 122.231 58.513 121.285 58.3553C120.339 58.1976 119.392 58.0399 118.446 57.7244C117.5 57.5667 116.711 57.409 115.922 56.6204C115.134 55.6741 114.503 54.4124 113.557 53.6238C111.822 52.0466 109.929 53.1506 107.721 53.1506C105.986 53.1506 104.567 52.0466 102.832 51.5735C100.782 51.1003 99.0467 50.7849 97.7849 49.05C96.6809 47.4728 96.9963 45.5802 96.3655 43.8453C95.1037 40.3755 90.3722 39.4292 87.0601 39.1138C84.3789 38.956 82.0132 39.9024 79.4897 39.9024C77.2816 39.9024 75.389 39.4292 73.9696 41.3218C72.3924 43.3721 70.8152 45.5802 69.5535 47.7882C68.6071 49.5231 67.03 51.258 66.3991 53.3084C66.0837 54.4124 66.0837 55.5164 65.9259 56.6204C65.6105 57.8822 64.6642 59.6171 63.8756 60.7211C63.087 61.8251 61.5098 62.6137 60.2481 63.2446C59.1441 63.8754 58.3555 64.664 57.4092 65.6103C56.3052 66.7144 55.2011 67.8184 54.4125 69.0801C54.0971 69.711 53.7817 70.3419 53.1508 70.815C52.6776 71.2882 52.0468 71.4459 51.5736 71.919C51.1005 72.2345 50.785 72.7076 50.4696 73.1808C49.8387 73.8117 48.7347 74.2848 47.7884 74.4425C46.2112 74.4425 44.634 73.1808 43.3723 74.9157C42.5837 75.862 41.6374 77.5969 41.7951 78.8586C41.9528 79.9626 42.8992 80.909 43.53 81.8553C44.6341 83.2747 46.9998 85.7982 46.5267 87.8485C46.3689 88.6371 45.5804 89.1103 45.8958 90.0566C46.0535 90.8452 46.2112 91.6337 46.2112 92.5801C46.2112 93.2109 45.8958 94.315 46.2112 94.7881C46.6844 95.419 48.1038 96.0498 48.8924 96.2076C50.4696 96.8384 51.8891 97.9425 53.4663 98.731C54.5703 99.3619 55.2011 100.151 56.3052 100.466C57.4092 100.781 58.3555 100.624 59.4595 100.781C60.0904 100.939 60.879 100.939 61.5098 101.097C61.983 101.255 62.4562 101.57 62.9293 101.728C64.8219 102.201 67.03 101.728 69.0803 101.728C70.342 101.728 71.6038 102.043 72.7078 101.412C73.9696 100.624 74.285 99.6774 74.285 98.2579C74.285 96.9962 73.6541 95.8921 73.181 94.6304C73.0232 93.9995 72.8655 93.2109 72.3924 92.5801C72.0769 92.1069 71.6038 92.1069 71.1306 91.7915C70.4998 91.3183 70.342 90.8452 69.3957 90.6874C68.7649 90.5297 68.134 90.8452 67.5031 91.1606C66.7145 91.7915 65.2951 93.0532 65.4528 94.1572C65.6105 94.6304 65.9259 95.1035 66.3991 95.419C66.3991 94.9458 66.5568 94.4727 66.7145 93.8418C68.2917 94.1572 70.6575 94.6304 71.7615 95.8921C71.4461 96.9962 70.0266 97.7847 69.0803 97.7847C67.1877 97.7847 65.2951 98.1002 63.8756 96.6807C62.6139 95.5767 62.6139 93.9995 61.8253 92.5801C61.5098 91.7915 61.1944 91.1606 60.5636 90.5297C60.0904 90.0566 59.7749 89.5834 59.4595 88.9526C58.8286 88.0062 58.1978 86.5868 59.1441 85.6405C60.0904 84.6942 61.8253 84.0633 62.9293 83.4324C64.6642 82.4861 66.5568 81.5398 68.2917 80.4358C70.8152 79.0163 72.8655 77.1237 75.8622 76.966C78.2279 76.8083 81.0668 77.2814 82.9595 78.8586C84.2212 79.9626 84.5366 81.2244 85.1675 82.6438C85.7984 83.9056 86.7447 84.8519 87.691 85.6405C89.1105 86.5868 90.5299 87.5331 91.7916 88.4794C93.5265 89.7411 94.946 90.2143 96.2077 92.1069C98.1003 95.2613 99.0467 98.7311 99.993 102.359C100.624 104.093 100.939 105.828 101.255 107.721C101.57 109.14 102.201 110.244 102.832 111.664C103.305 112.926 103.778 113.872 104.409 114.976C104.724 115.449 105.04 115.922 105.198 116.553C105.671 118.761 103.463 120.338 102.359 122.073C101.097 123.966 99.6775 125.543 99.0467 127.751C98.5735 129.486 99.2044 130.275 99.5198 131.852C100.151 134.533 98.8889 136.11 97.1541 138.003C96.2077 138.949 95.2614 139.738 93.9997 140.369C90.6876 141.788 87.691 144.311 85.1675 146.993C84.8521 147.781 83.4326 148.885 82.8017 149.358C89.2682 148.728 95.5769 147.15 101.412 144.942C110.56 141.473 118.761 136.268 125.859 129.801C140.526 116.238 149.674 96.6807 149.674 75.0734C149.516 71.4459 149.201 68.2915 148.885 65.2949ZM65.4528 66.2412C65.1374 67.1875 62.7716 67.6607 61.8253 67.9761C61.5098 68.1338 61.0367 68.2915 60.7213 67.9761C59.9327 67.3452 62.6139 65.1372 62.6139 65.2949L61.8253 64.9795C62.6139 64.9795 62.7716 64.0332 63.4025 64.1909C63.5602 64.1909 64.191 64.5063 64.3488 64.664C64.9796 64.8217 65.7682 65.4526 65.4528 66.2412ZM90.6876 48.8923C90.0567 52.2043 86.2715 54.7278 83.2749 55.6741C81.6977 56.1473 80.2783 56.4627 78.7011 56.4627C77.2816 56.4627 75.7044 56.7781 74.285 56.4627C71.7615 55.8318 71.1306 54.0969 71.9192 52.9929C71.4461 51.7312 70.8152 50.6272 71.2883 49.3654C71.7615 48.4191 72.2346 47.4728 72.8655 46.6842C73.9695 45.107 75.5467 45.107 77.2816 44.4762C80.7514 43.3721 84.5366 42.1104 88.0064 44.003C89.5836 45.107 91.0031 46.8419 90.6876 48.8923ZM124.124 118.919C122.704 123.177 119.077 125.228 115.134 126.647C113.084 127.436 111.191 128.54 109.141 129.328C107.721 129.959 106.775 130.275 105.513 129.801C103.778 129.013 103.305 127.436 104.094 125.701C105.198 123.808 107.248 122.231 106.775 119.865C106.459 118.288 106.302 117.026 106.617 115.449C106.933 113.083 106.933 110.718 106.933 108.352C105.355 111.348 105.198 108.825 105.355 107.09C105.355 105.671 105.829 105.04 107.09 104.251C111.033 101.57 116.396 104.093 119.865 106.301C122.073 107.721 123.651 110.087 124.597 112.452C125.228 114.661 124.912 116.869 124.124 118.919ZM122.862 74.4425C121.758 74.6002 120.023 73.0231 119.235 72.3922C118.446 71.7613 117.815 70.815 117.184 70.0264C116.553 69.3956 115.765 68.607 115.292 67.8184C114.818 66.8721 114.503 65.768 114.03 64.664C113.399 63.0868 112.926 61.8251 111.98 60.2479C111.664 61.1942 111.664 60.2479 112.295 59.9325C112.926 59.6171 113.872 59.9325 114.503 59.9325C116.238 60.2479 117.184 61.0365 118.446 62.1405C119.708 63.56 121.127 64.664 122.231 66.0835C123.177 67.1875 125.228 69.3956 125.228 70.815C125.386 72.2345 124.124 74.4425 122.862 74.4425Z" fill="url(#paint3_linear_4_1363)"/>
<path opacity="0.4" fill-rule="evenodd" clip-rule="evenodd" d="M134.849 30.2816C134.218 30.9125 133.272 31.2279 132.483 31.8588C131.852 32.3319 131.221 33.1205 130.59 33.436C129.644 33.7514 128.382 33.436 127.594 33.1205C125.543 32.3319 124.282 31.5434 122.074 32.3319C121.443 32.6474 120.812 32.4897 120.181 32.6474C119.55 32.8051 119.55 33.1205 118.761 33.1205C117.5 33.1205 116.238 31.8588 115.449 31.0702C114.503 29.9662 114.03 29.9662 112.61 29.9662C111.191 29.9662 109.614 30.2816 109.298 32.0165C108.983 33.9091 111.349 35.4863 112.61 36.4326C114.503 37.8521 112.453 38.1675 111.664 39.587C111.033 40.8487 112.295 41.6373 111.349 42.7413C109.298 44.9494 104.409 46.5265 101.728 45.1071C99.8353 44.0031 98.889 41.9527 97.4696 40.3755C96.681 39.4292 95.577 38.7984 94.7884 37.8521C93.5266 36.5903 92.5803 34.8554 91.9495 33.1205C92.5803 34.8554 91.4763 32.3319 91.1609 30.2816C91.0032 29.3353 91.4763 28.7044 91.634 27.9158C91.7918 26.9695 91.3186 26.6541 90.8454 26.0232C90.0569 24.6038 88.9528 23.4998 90.0569 22.0803C90.6877 21.134 91.4763 20.3454 92.2649 19.5568C93.0535 18.7682 93.9998 17.6642 95.1038 17.191C95.2615 16.5602 93.2112 14.5098 92.7381 14.0367C91.634 12.775 90.6877 11.1978 89.426 10.0938C88.9528 9.6206 88.0065 9.14744 87.6911 8.67429C87.0602 7.41255 89.1105 5.67765 89.8991 5.04678C91.4763 3.94276 92.8958 3.78504 94.6307 3.78504C95.7347 3.78504 96.9964 3.78504 98.2582 3.94276C100.151 4.57363 101.886 5.2045 103.621 5.99309C104.882 6.46624 106.144 7.09711 107.406 7.72798C114.661 11.1978 121.285 15.9293 126.963 21.6071C129.959 23.9729 132.483 26.9695 134.849 30.2816Z" fill="url(#paint4_linear_4_1363)"/>
<path opacity="0.4" fill-rule="evenodd" clip-rule="evenodd" d="M113.399 46.2111C114.976 46.5266 116.553 46.9997 117.973 47.6306C117.815 47.946 117.973 48.2615 118.131 48.5769C117.657 49.05 116.711 49.6809 115.923 49.8386C114.976 49.9963 114.503 49.8386 113.714 49.3655C112.926 48.8923 111.98 48.8923 112.137 47.946C112.137 46.842 113.241 46.5266 114.188 46.3688H113.399V46.2111Z" fill="url(#paint5_linear_4_1363)"/>
<path opacity="0.4" fill-rule="evenodd" clip-rule="evenodd" d="M28.3892 134.849C28.8623 135.164 29.4932 135.479 29.9663 135.637C29.02 135.953 27.916 136.11 26.812 136.11C26.6543 135.164 26.0234 134.06 22.869 132.167C24.9194 133.114 26.4966 133.902 28.3892 134.849Z" fill="url(#paint6_linear_4_1363)"/>
<path opacity="0.4" fill-rule="evenodd" clip-rule="evenodd" d="M95.7346 123.65C95.1038 124.754 94.946 125.859 94.946 126.963C94.946 128.067 94.946 129.171 94.946 130.275C94.946 131.852 93.842 132.798 92.8957 133.902C91.7917 135.322 90.3722 136.268 89.1105 137.372C88.4796 138.003 88.1642 138.791 87.5333 139.422C86.9025 140.053 86.2716 140.526 85.7984 141.157C85.1676 141.946 85.0099 142.419 84.2213 142.892C83.275 143.523 82.6441 144.311 81.8555 145.1C80.436 146.362 79.1743 147.781 77.7548 148.885C76.8085 148.885 75.8622 148.885 74.7582 148.885C71.4461 148.885 68.134 148.728 64.9797 148.254C53.624 146.835 43.0569 142.734 33.9093 136.741C34.8556 136.899 35.6442 137.214 36.5905 137.372C37.5368 137.53 38.4831 138.003 39.4294 138.161C41.1643 138.634 43.3724 138.318 45.1073 138.318C47.7885 138.318 50.312 138.791 52.9932 139.107C54.8858 139.422 56.3052 139.738 58.1978 139.107C59.775 138.634 61.3522 138.003 62.6139 137.214C65.6106 135.479 69.0803 135.479 72.077 133.902C73.3387 133.271 74.4428 132.167 75.7045 131.379C76.3354 131.063 77.2817 130.275 78.0703 130.117C78.7011 129.959 79.1743 129.959 79.8052 129.644C81.3823 129.013 82.9595 128.697 84.5367 128.224C85.7984 127.751 87.8488 126.805 88.9528 125.859C90.3723 124.597 92.2649 122.546 92.8957 120.812C93.3689 119.55 93.3689 118.446 93.3689 117.184C93.3689 116.711 93.3689 116.08 93.3689 115.607C93.3689 114.976 93.2112 114.661 93.0534 114.187C92.738 112.926 93.3689 112.295 93.6843 111.191C93.9998 110.244 94.3152 109.298 94.6306 108.194C94.9461 106.775 94.9461 105.986 94.4729 104.567C94.3152 104.093 93.9997 103.305 93.842 102.832C93.6843 102.359 93.6843 101.728 93.6843 101.255C93.6843 101.885 94.4729 103.463 94.6306 103.936C95.1038 105.04 96.0501 105.986 96.0501 107.406C96.0501 108.667 95.7346 109.614 95.4192 110.875C95.1038 112.137 95.5769 112.926 95.5769 114.187C95.5769 114.661 95.5769 115.291 95.7346 115.765C95.8924 116.395 95.8924 117.026 96.0501 117.499C96.2078 118.604 96.9964 119.55 97.3118 120.496C97.3118 121.916 96.3655 122.704 95.7346 123.65Z" fill="url(#paint7_linear_4_1363)"/>
</g>
<path opacity="0.4" fill-rule="evenodd" clip-rule="evenodd" d="M38.1677 124.912C38.3254 128.698 36.1174 132.01 33.1207 134.218C32.4898 134.691 31.859 135.006 31.2281 135.322C29.6509 134.218 28.2315 133.114 26.6543 131.852C18.9261 125.385 12.4597 117.342 7.88589 108.352C5.04697 102.674 2.83893 96.5231 1.41947 90.0567C0.788603 86.7446 0.315435 83.4326 0 80.1205C0.315435 79.8051 0.473153 79.6473 0.788589 79.3319C0.788589 81.8554 1.73489 83.748 2.36577 86.1138C2.83892 87.8487 3.46979 89.5836 3.94294 91.3185C4.25838 92.7379 4.57381 93.9997 5.52012 95.2614C6.15099 96.05 6.62415 96.3654 7.57045 96.6809C8.20133 96.9963 8.83219 97.4694 9.46306 97.7849C10.8825 98.258 12.7751 98.7312 14.3523 98.5735C15.1409 98.5735 15.6141 98.5735 16.4027 98.8889C16.8758 99.2043 17.349 99.5198 17.8221 99.8352C18.9261 100.624 19.8724 101.412 20.8187 102.359C22.2382 103.936 22.0805 105.986 23.1845 107.721C24.1308 109.141 25.3925 109.614 27.1274 109.614C30.4395 109.614 33.2784 113.557 35.0133 115.922C36.5905 118.604 38.01 122.073 38.1677 124.912Z" fill="url(#paint8_linear_4_1363)"/>
</g>
<defs>
<radialGradient id="paint0_radial_4_1363" cx="0" cy="0" r="1" gradientUnits="userSpaceOnUse" gradientTransform="translate(38.3363 28.7202) scale(125.259 125.259)">
<stop offset="0.00558659" stop-color="#B1FFFF"/>
<stop offset="0.2928" stop-color="#B1FDFF"/>
<stop offset="0.4362" stop-color="#AFF5FF"/>
<stop offset="0.5473" stop-color="#ACE8FF"/>
<stop offset="0.6173" stop-color="#A9DBFF"/>
<stop offset="0.6508" stop-color="#A2D7FE"/>
<stop offset="0.6994" stop-color="#8FCAFC"/>
<stop offset="0.757" stop-color="#6FB5F9"/>
<stop offset="0.8216" stop-color="#4399F4"/>
<stop offset="0.8913" stop-color="#0C75EE"/>
<stop offset="0.905" stop-color="#006DED"/>
</radialGradient>
<linearGradient id="paint1_linear_4_1363" x1="0.0134237" y1="54.0797" x2="107.498" y2="54.0797" gradientUnits="userSpaceOnUse">
<stop offset="0.0111732" stop-color="#B0E1FF"/>
<stop offset="0.2926" stop-color="#ADDEFF"/>
<stop offset="0.499" stop-color="#A5D5FF"/>
<stop offset="0.6813" stop-color="#98C5FF"/>
<stop offset="0.8488" stop-color="#85AEFF"/>
<stop offset="1" stop-color="#6D93FF"/>
</linearGradient>
<linearGradient id="paint2_linear_4_1363" x1="66.0828" y1="95.9477" x2="67.0764" y2="95.9477" gradientUnits="userSpaceOnUse">
<stop stop-color="#E8DDFF"/>
<stop offset="1" stop-color="#AA8AD8"/>
</linearGradient>
<linearGradient id="paint3_linear_4_1363" x1="41.6123" y1="93.9136" x2="149.452" y2="93.9136" gradientUnits="userSpaceOnUse">
<stop stop-color="#E8DDFF"/>
<stop offset="1" stop-color="#AA8AD8"/>
</linearGradient>
<linearGradient id="paint4_linear_4_1363" x1="87.4083" y1="24.5101" x2="134.879" y2="24.5101" gradientUnits="userSpaceOnUse">
<stop stop-color="#E8DDFF"/>
<stop offset="1" stop-color="#AA8AD8"/>
</linearGradient>
<linearGradient id="paint5_linear_4_1363" x1="112.128" y1="47.9823" x2="118.073" y2="47.9823" gradientUnits="userSpaceOnUse">
<stop stop-color="#E8DDFF"/>
<stop offset="1" stop-color="#AA8AD8"/>
</linearGradient>
<linearGradient id="paint6_linear_4_1363" x1="22.8996" y1="134.234" x2="30.0127" y2="134.234" gradientUnits="userSpaceOnUse">
<stop stop-color="#E8DDFF"/>
<stop offset="1" stop-color="#AA8AD8"/>
</linearGradient>
<linearGradient id="paint7_linear_4_1363" x1="33.861" y1="125.354" x2="97.0822" y2="125.354" gradientUnits="userSpaceOnUse">
<stop stop-color="#E8DDFF"/>
<stop offset="1" stop-color="#AA8AD8"/>
</linearGradient>
<linearGradient id="paint8_linear_4_1363" x1="0.219858" y1="107.28" x2="38.2601" y2="107.28" gradientUnits="userSpaceOnUse">
<stop stop-color="#E8DDFF"/>
<stop offset="1" stop-color="#AA8AD8"/>
</linearGradient>
</defs>
</svg>
