<svg width="156" height="151" viewBox="0 0 156 151" fill="none" xmlns="http://www.w3.org/2000/svg">
<path fill-rule="evenodd" clip-rule="evenodd" d="M152.717 74.4428C152.717 81.6978 151.771 88.6374 149.878 95.1038C146.093 108.352 138.838 120.023 128.902 129.171C121.962 135.637 113.603 140.842 104.455 144.312C96.2541 147.466 87.2642 149.201 77.9589 149.201C76.6971 149.201 75.2777 149.201 74.0159 149.043C72.1233 148.886 70.073 148.728 68.1804 148.57C53.8281 146.677 40.5798 140.684 30.0127 131.694C26.0698 128.382 22.4423 124.597 19.1302 120.496C16.7644 117.5 14.5564 114.188 12.6638 110.718C12.1906 109.929 11.7175 108.983 11.2443 108.194C10.7712 107.248 10.298 106.459 9.98259 105.513C8.72085 102.674 7.61682 99.6776 6.67051 96.681C6.03964 94.4729 5.40876 92.2649 4.93561 90.0568C4.62017 88.4796 4.30474 86.9025 4.14702 85.1676C3.67386 81.6978 3.35843 78.228 3.35843 74.6005C3.35843 72.5501 3.35845 70.4998 3.67388 68.4495C3.8316 67.1877 3.83158 65.926 4.14702 64.6643C5.09332 57.2515 7.14363 50.312 10.1403 43.8455C11.5597 40.6912 13.2946 37.5368 15.1873 34.6979C18.3416 29.8086 21.9691 25.2348 26.2275 21.1342C39.6335 8.0436 58.0865 0 78.2743 0C79.0629 0 79.8515 0 80.6401 0C81.4287 0 82.375 3.60752e-06 83.1636 0.157721C87.422 0.473157 91.6803 1.10403 95.6233 2.05033C97.9891 2.68121 100.355 3.31208 102.563 4.10066C104.14 4.57382 105.559 5.20469 107.137 5.83556C108.241 6.30871 109.345 6.78187 110.449 7.25502C110.607 7.41274 110.764 7.41274 111.08 7.57045C118.335 11.0402 124.959 15.7718 130.637 21.4496C131.425 22.2382 132.214 23.0268 133.002 23.8154C133.476 24.4462 134.106 24.9194 134.58 25.5503C135.526 26.4966 136.314 27.6006 137.103 28.5469C140.1 32.3321 142.623 36.4328 144.831 40.6912C147.355 45.7381 149.405 51.1005 150.824 56.6207C151.929 62.2985 152.717 68.2918 152.717 74.4428Z" fill="url(#paint0_radial_4_1433)"/>
<path opacity="0.5" fill-rule="evenodd" clip-rule="evenodd" d="M110.764 7.25511C110.449 7.25511 110.291 7.25511 109.976 7.41283C109.187 7.57054 108.398 7.41283 107.61 7.25511C106.979 7.09739 106.664 6.78196 105.875 6.78196C104.929 6.62424 104.14 6.3088 103.194 6.15109C102.247 5.99337 101.459 5.67793 100.513 5.3625C99.7239 5.04706 99.4085 5.20478 98.7776 5.3625C98.1468 5.52022 97.6737 5.20478 97.0428 5.04706C96.4119 4.73163 95.6233 4.73163 94.9924 4.57391C93.0998 4.25847 91.2072 3.6276 89.3146 3.15445C88.2106 2.83901 87.1065 2.83902 85.8448 2.83902C84.8985 2.83902 84.1099 3.15445 83.1636 3.15445C82.5327 3.15445 82.0596 2.99673 81.4287 2.99673C80.7978 2.83901 80.1669 2.99673 79.5361 2.99673C78.5898 2.83901 78.1166 2.6813 77.1703 2.99673C76.3817 3.15445 75.9086 3.15445 75.12 3.31217C74.3314 3.31217 73.3851 3.6276 72.5965 3.78532C71.177 4.10076 69.5999 4.41619 68.1804 4.41619C67.2341 4.41619 65.9724 4.10076 65.1838 4.41619C64.7106 4.57391 64.3952 5.20478 63.922 5.52021C63.1334 6.3088 62.3449 6.93967 61.714 7.72826C61.0831 8.51685 60.4523 9.46316 60.4523 10.5672C60.4523 11.5135 60.9254 12.6175 61.3985 13.4061C61.8717 14.3524 62.0294 15.141 61.0831 15.7719C59.9791 16.5605 58.5597 17.1913 57.2979 17.6645C56.3516 17.9799 55.563 18.1376 54.9321 17.5068C54.6167 17.349 54.459 16.8759 54.1436 16.5605C53.8281 16.4027 53.3549 16.5605 53.0395 16.7182C52.0932 17.0336 51.1469 17.349 50.2006 17.5068C49.5697 17.6645 49.0966 17.9799 48.4657 17.9799C47.8348 18.1376 47.3617 17.6645 46.5731 17.8222C45.6268 17.9799 44.5228 18.4531 43.5764 18.4531C42.7879 18.4531 41.8416 18.1376 41.2107 17.8222C40.8952 17.6645 40.7375 17.349 40.2644 17.5068C39.9489 17.5068 39.4758 17.9799 39.3181 18.2954C39.0026 18.6108 39.0026 19.0839 38.6872 19.3994C38.3718 19.8725 38.214 20.188 37.8986 20.6611C37.4254 21.4497 36.9523 22.2383 36.4791 23.0269C36.1637 23.5 35.8483 24.2886 35.3751 24.7618C35.2174 25.0772 34.7443 25.2349 34.4288 25.3926C33.6402 25.8658 32.8517 26.4967 32.0631 26.9698C30.6436 28.0738 29.2241 29.3356 27.8047 30.4396C26.7007 31.2282 25.1235 31.7014 23.8617 32.3322C23.0731 32.6477 22.2846 32.9631 21.496 33.2785C21.1805 33.4362 20.7074 33.4362 20.5497 33.7517C20.2342 34.0671 20.0765 34.3825 19.9188 34.8557C19.2879 35.6443 18.4993 36.5906 18.0262 37.5369C17.7107 38.1678 17.553 38.6409 17.2376 39.2718C16.9221 40.0604 16.449 40.849 16.2913 41.7953C15.6604 43.5302 15.6604 45.4228 14.8718 47.1577C14.5564 48.104 13.9255 49.0503 13.4524 49.9966C12.6638 51.5738 12.5061 53.4664 12.3484 55.2013C12.1906 56.1476 12.3483 57.4093 12.506 58.3556C12.6638 59.4597 12.6638 60.5637 12.6638 61.6677C12.6638 62.7717 11.8752 64.0335 11.2443 64.8221C10.6134 65.6107 9.50941 65.9261 8.72082 66.7147C8.08995 67.3456 7.30135 67.9764 6.98592 68.9227C6.8282 69.2382 6.98592 69.7113 6.98592 70.1845C6.8282 71.1308 6.51278 71.9194 6.51278 72.8657C6.35507 73.9697 6.35506 75.0737 6.35506 76.3355C6.35506 76.9663 6.35506 77.4395 6.35506 78.0704C6.35506 78.7012 6.51279 79.1744 6.67051 79.6475C6.67051 79.963 6.67051 80.4361 6.67051 80.7516C6.67051 81.2247 6.98592 81.6979 6.98592 82.0133C7.30135 83.1173 7.45911 84.0636 7.61683 85.1677C7.77454 86.114 8.2477 87.0603 8.40542 88.0066C8.87857 89.2683 9.03625 90.5301 9.35168 91.9495C9.5094 92.8958 9.50942 93.9999 9.66714 94.9462C9.82486 95.7347 9.98259 96.5233 9.98259 97.3119C9.98259 98.5737 9.66714 99.6777 9.66714 100.939C9.66714 102.99 10.4557 105.04 10.9289 107.09C11.0866 107.721 11.2443 108.194 11.402 108.825C6.19736 98.7314 3.35843 87.218 3.35843 75.0737C3.35843 60.2483 7.6168 46.5268 15.0295 35.0134C18.1839 30.1242 21.8114 25.5504 26.0698 21.6074C39.4758 8.51686 57.9287 0.473251 78.1166 0.473251C79.6938 0.473251 81.4287 0.473249 83.0059 0.630967C92.7844 0.473249 102.247 3.15445 110.764 7.25511Z" fill="url(#paint1_linear_4_1433)"/>
<path fill-rule="evenodd" clip-rule="evenodd" d="M35.2173 72.7078C59.3481 76.493 57.9286 82.9595 86.0024 75.2313C114.076 67.5031 134.264 25.3925 134.264 25.3925C134.264 25.3925 135.683 22.2381 134.422 20.3455C133.949 19.5569 130.321 21.1341 130.321 21.1341C130.952 34.6978 112.026 62.7716 90.5762 70.8152C88.2104 71.6038 86.0024 71.9192 83.7944 72.3924C82.8481 71.9192 80.3246 69.5534 91.9957 61.6676C105.875 52.3622 112.026 48.8924 110.764 39.1139C109.502 29.3354 121.804 14.0368 121.804 14.0368C121.804 14.0368 122.751 9.93614 120.385 7.41266C117.388 4.10059 110.764 7.41266 110.764 7.41266C110.764 7.41266 109.029 26.4965 84.8984 36.7482C60.7676 46.9998 47.2039 41.9528 38.0562 39.1139C28.7509 36.275 26.0697 20.9764 26.0697 20.9764C26.0697 20.9764 18.1838 19.3992 15.3449 24.2885C13.2946 27.916 16.2912 32.4898 16.2912 32.4898C16.2912 32.4898 30.9589 37.8522 44.0495 42.8992C57.14 47.9461 82.3749 43.3723 91.2071 39.1139C100.197 34.8555 100.197 27.916 107.294 21.6073C110.291 19.0838 113.288 17.1912 115.811 16.0871C115.811 16.0871 107.925 28.2314 108.872 36.7482C109.818 45.2649 104.455 44.9495 91.2071 59.9327C81.9018 70.342 73.8582 73.8118 69.9152 74.7581C59.8213 75.7044 50.5159 74.6004 38.0562 71.1306C17.7106 65.6105 5.56637 56.7783 5.56637 56.7783C5.56637 56.7783 3.83147 55.9897 3.2006 57.8823C2.88517 58.6709 4.77778 61.0367 4.77778 61.0367C4.77778 61.0367 11.0865 68.7649 35.2173 72.7078Z" fill="url(#paint2_linear_4_1433)"/>
<path fill-rule="evenodd" clip-rule="evenodd" d="M52.2509 144.312C52.2509 144.312 46.2576 140.527 41.8415 129.013C37.4254 117.5 37.8986 118.288 29.5396 111.033C21.1805 103.778 6.67051 96.681 6.67051 96.681C6.67051 96.681 5.7242 96.9965 5.7242 97.3119C5.7242 98.7314 7.4591 99.0468 7.4591 99.0468C7.4591 99.0468 21.0228 104.882 29.5396 114.188C38.0563 123.493 47.204 140.211 40.7375 139.265C40.7375 139.265 42.157 143.365 45.6268 144.312C48.9388 145.258 52.2509 144.312 52.2509 144.312Z" fill="url(#paint3_radial_4_1433)"/>
<path d="M111.71 88.6375C114.549 85.6408 117.861 81.6979 131.425 81.5402C144.989 81.3824 151.928 84.3791 151.928 84.3791C151.928 84.3791 154.767 83.5905 155.083 79.963C155.398 76.3355 152.559 74.6006 152.559 74.6006C152.402 75.7046 150.982 83.275 139.469 78.8589C139.469 78.7012 143.569 75.0737 144.358 67.5033C145.304 59.9328 147.986 49.0503 147.986 49.0503C147.986 49.0503 149.563 46.3691 148.616 44.1611C148.301 43.3725 145.62 43.057 145.62 43.057C147.986 58.3557 142.15 76.6509 135.841 78.8589C128.271 79.0167 118.965 80.2784 114.707 83.1173C109.502 86.5871 104.298 102.043 100.986 112.926C100.197 115.607 98.4622 118.604 96.2541 121.443C87.8951 123.493 90.5762 113.399 86.9487 110.402C83.3212 107.406 76.5394 108.983 71.9655 107.406C67.5495 105.671 66.2877 102.201 61.5562 101.57C56.8246 100.939 49.2542 109.929 40.5797 106.302C31.9053 102.674 3.20062 68.6073 3.20062 68.6073C3.20062 68.6073 0.677134 67.9764 0.0462635 69.7113C-0.42689 71.1308 2.88521 74.7583 2.88521 74.7583C2.88521 74.7583 22.9153 104.882 41.9992 108.825C61.083 112.768 78.432 109.141 84.4252 114.188C90.4185 119.392 90.8917 127.594 90.8917 127.751C84.7407 134.376 77.328 140.053 73.8582 141.788C67.8649 144.785 58.0864 146.835 58.0864 146.835C59.5059 148.412 62.1871 149.674 65.026 150.463C69.2844 151.567 71.9655 149.516 71.9655 149.516C71.9655 149.516 69.5998 147.466 72.7541 144.785C80.7977 138.003 86.6333 135.164 94.9923 133.114C100.039 131.852 101.617 134.218 102.247 133.429C110.133 135.953 116.284 130.117 122.908 124.597C129.533 119.235 138.207 118.446 138.207 118.446C138.207 118.446 142.623 117.658 143.885 115.765C144.989 114.03 142.465 111.98 142.465 111.98C142.465 111.98 138.68 113.557 131.425 117.184C124.328 120.812 116.6 131.379 107.767 131.064C102.878 130.906 103.982 126.017 103.509 125.228C103.509 124.913 103.509 124.597 103.509 124.124C103.351 120.654 102.563 117.342 102.563 114.819C102.563 114.188 102.563 113.557 102.721 112.926C103.982 108.983 108.872 91.4764 111.71 88.6375ZM96.4118 121.285C94.8346 123.335 93.0997 125.386 91.2071 127.436L96.4118 121.285ZM103.194 126.647C103.351 127.436 103.509 128.225 103.351 129.171C103.351 129.644 103.194 129.959 102.878 130.117C102.563 130.275 102.405 130.275 102.09 130.275C101.774 130.433 101.301 130.433 100.986 130.59C100.355 130.748 99.7238 130.59 99.2507 130.59C98.6198 130.59 97.9889 130.59 97.3581 130.59C97.0426 130.59 96.7272 130.433 96.4118 130.433C96.0964 130.433 95.6232 130.433 95.4655 130.275C94.8347 129.959 94.3615 129.171 93.8884 129.013C93.8884 128.382 93.8883 127.909 94.2037 127.436C94.2037 127.278 94.3615 127.121 94.3615 126.805C94.5192 126.49 94.5192 126.174 94.6769 125.859C94.9924 125.07 95.3078 124.282 95.9387 123.651C96.0964 123.335 96.4118 122.862 96.5695 122.547C96.8849 122.074 97.2004 121.758 97.5158 121.443C97.989 120.97 98.4621 120.496 99.093 120.181C99.5662 119.866 100.355 119.55 100.986 119.708C101.617 119.866 101.774 120.654 101.932 121.127C102.09 121.443 102.09 121.916 102.247 122.231C102.405 122.704 102.563 123.178 102.721 123.651C102.878 124.282 102.878 124.755 103.036 125.386C103.036 125.701 103.036 126.174 103.194 126.647Z" fill="url(#paint4_linear_4_1433)"/>
<path fill-rule="evenodd" clip-rule="evenodd" d="M18.0266 22.5538C18.0266 22.5538 21.3387 29.4934 30.0132 35.8021C30.0132 35.8021 27.1743 25.7081 25.1239 21.6075C25.1239 21.6075 22.285 18.9263 18.0266 22.5538Z" fill="#FFFF0E"/>
<path fill-rule="evenodd" clip-rule="evenodd" d="M63.6069 43.8455C63.6069 43.8455 69.4424 41.4797 71.3351 42.426C71.3351 42.2683 65.6572 43.8455 63.6069 43.8455Z" fill="#FFFF0E"/>
<path fill-rule="evenodd" clip-rule="evenodd" d="M83.3218 38.3255C84.4258 38.01 85.5299 37.6946 86.4762 37.2214C87.4225 36.906 88.211 36.4328 89.1573 35.9597C90.2614 35.3288 91.3654 34.6979 92.3117 33.9094C92.6272 33.7516 92.7849 33.5939 93.1003 33.4362C93.4158 33.2785 93.7312 32.963 94.0466 32.8053C94.362 32.6476 94.5197 32.3322 94.8352 32.1745C95.1506 32.0167 95.3083 31.7013 95.6238 31.5436C96.0969 31.2282 96.5701 30.755 96.8855 30.4396C97.0432 30.2818 97.201 30.1241 97.5164 29.8087C97.6741 29.651 97.8318 29.651 97.9895 29.651C97.9895 29.8087 97.8319 30.1241 97.8319 30.2819C97.6741 30.5973 97.5163 30.755 97.3586 31.0704C97.0432 31.7013 96.4124 32.0167 95.9392 32.6476C95.6238 32.9631 95.3083 33.2785 94.8352 33.5939C94.362 33.9094 93.7312 34.2248 93.1003 34.5402C92.4695 34.8557 91.8385 35.0134 91.3654 35.3288C90.8922 35.6442 90.2613 35.9597 89.7882 36.1174C89.4728 36.2751 88.9996 36.5906 88.6842 36.7483C88.3688 36.906 88.0533 37.0637 87.7379 37.2214C87.2647 37.5369 86.7916 37.6946 86.3184 38.01C86.003 38.1677 85.8453 38.1677 85.5298 38.3255C85.0567 38.6409 84.2681 38.7986 83.6372 38.7986C83.4795 38.7986 83.1641 38.7986 83.0063 38.7986C82.8486 38.7986 82.6909 38.6409 82.6909 38.6409C83.0063 38.4832 83.1641 38.3255 83.3218 38.3255Z" fill="#FFFF0E"/>
<path fill-rule="evenodd" clip-rule="evenodd" d="M99.0936 28.0739C98.7781 28.2316 98.6204 28.3894 98.305 28.7048C98.305 28.8625 98.1472 29.0202 98.4627 29.0202C98.7781 29.0202 98.9358 28.8625 99.2512 28.5471C99.409 28.3893 99.5667 28.0739 99.409 27.9162C99.2513 27.7585 98.9358 27.9162 98.7781 28.0739H99.0936Z" fill="#FFFF0E"/>
<path fill-rule="evenodd" clip-rule="evenodd" d="M111.869 7.72821C111.711 8.04364 111.396 8.35908 111.238 8.67451C111.08 8.98995 111.08 9.14767 110.922 9.4631C110.765 9.93625 110.607 10.5671 110.449 11.0403C110.134 11.9866 109.976 13.0906 109.503 14.0369C109.345 14.5101 109.187 14.8255 108.872 15.2987C108.714 15.4564 108.557 15.7718 108.557 15.9295C108.399 16.0872 108.399 16.245 108.241 16.5604C108.083 16.7181 108.083 16.8758 107.926 17.0336C107.768 17.1913 107.768 17.5067 107.61 17.6644C107.453 17.8221 107.137 18.2953 107.295 18.453C107.453 18.453 107.453 18.2953 107.61 18.2953C107.768 18.1376 108.083 17.9799 108.241 17.6644C108.714 17.349 109.03 16.8758 109.345 16.4027C109.503 16.245 109.661 16.0872 109.818 15.7718C109.976 15.4564 110.292 15.2987 110.449 14.9832C110.765 14.5101 111.238 14.0369 111.553 13.7215C111.711 13.5638 111.869 13.2483 112.026 13.0906C112.184 12.9329 112.342 12.7752 112.5 12.4597C113.13 11.8289 113.604 11.198 114.234 10.5671C114.708 10.094 115.023 9.4631 115.496 8.98995C115.812 8.5168 116.127 8.04365 116.285 7.57049C116.442 7.41278 116.6 6.93962 116.6 6.7819C116.442 6.46647 116.127 6.30875 115.812 6.30875C115.338 6.30875 114.865 6.30875 114.392 6.30875C113.919 6.46646 113.604 6.62419 113.13 6.7819C112.815 6.93962 112.5 7.25505 112.026 7.41277C111.869 7.72821 111.553 7.88593 111.869 7.72821Z" fill="#FFFF0E"/>
<path fill-rule="evenodd" clip-rule="evenodd" d="M115.653 16.7183C115.496 17.0338 115.338 17.3492 115.18 17.6646C115.022 17.8223 114.865 18.1378 114.707 18.2955C114.391 18.7686 114.234 19.2418 113.918 19.5572C113.445 20.3458 112.814 21.1344 112.499 21.923C112.341 22.2384 112.183 22.5539 112.026 22.8693C111.868 23.1847 111.71 23.6579 111.71 23.9733C111.553 24.2888 111.553 24.6042 111.395 25.0774C111.395 25.3928 111.237 25.7082 111.237 26.0237C111.553 25.7082 111.71 25.2351 112.026 24.9196C112.183 24.6042 112.341 24.2888 112.657 24.131C112.972 23.9733 113.13 23.6579 113.287 23.3425C113.445 23.027 113.761 22.8693 113.918 22.5539C114.076 22.2384 114.234 22.0807 114.392 21.7653C114.549 21.6076 114.707 21.2921 114.865 20.9767C115.022 20.6613 115.18 20.3458 115.338 20.0304C115.496 19.3995 115.811 18.7686 115.969 18.1378C115.969 17.8223 116.126 17.5069 115.969 17.1915C115.969 17.0337 115.653 16.4029 115.653 16.7183Z" fill="#FFFF0E"/>
<path fill-rule="evenodd" clip-rule="evenodd" d="M110.449 26.9698C110.291 27.443 110.134 27.7584 110.134 28.2316C110.134 28.3893 110.134 28.547 110.134 28.547C110.291 28.547 110.449 28.547 110.449 28.3893C110.607 28.3893 110.607 28.2316 110.607 28.0739C110.764 27.9161 110.922 27.6007 110.764 27.2853C110.764 26.9698 110.449 26.8121 110.291 27.1276L110.449 26.9698Z" fill="#FFFF0E"/>
<path fill-rule="evenodd" clip-rule="evenodd" d="M102.721 48.5773C101.932 49.3659 100.828 50.1545 100.197 51.1008C100.197 51.2585 99.7241 51.574 99.8818 51.7317C100.04 51.8894 100.355 51.7317 100.513 51.7317C100.986 51.574 101.459 51.2585 101.932 51.1008C102.248 50.9431 102.563 50.6276 102.878 50.4699C103.667 49.9968 104.298 49.3659 104.929 48.5773C105.244 48.2619 105.402 47.9465 105.56 47.631C105.56 47.4733 105.717 47.1579 105.717 47.1579C105.56 46.6847 104.613 47.1579 104.456 47.3156C104.298 47.4733 103.982 47.631 103.825 47.7887C103.667 47.9465 103.509 48.1042 103.352 48.1042C103.194 48.2619 103.036 48.4196 102.721 48.5773C102.721 48.735 102.563 48.8928 102.721 48.5773Z" fill="#FFFF0E"/>
<path fill-rule="evenodd" clip-rule="evenodd" d="M98.9356 52.52C98.6202 52.6778 98.3047 52.8355 98.147 52.9932C98.147 53.1509 97.8316 53.3086 97.9893 53.4663C98.147 53.6241 98.4625 53.4663 98.4625 53.4663C98.6202 53.4663 98.7779 53.3086 98.9356 53.1509C98.9356 52.8355 98.9356 52.8355 98.9356 52.52Z" fill="#FFFF0E"/>
<path fill-rule="evenodd" clip-rule="evenodd" d="M79.5363 70.9729C78.9054 71.4461 78.1168 71.9193 77.3282 72.3924C76.3819 72.8656 75.4357 73.181 74.6471 73.6542C73.2276 74.4427 71.8081 75.0736 70.3887 75.7045C70.231 75.8622 68.0229 76.6508 68.8115 77.1239C69.1269 77.2817 69.6001 77.2817 69.9155 77.2817C70.231 77.2817 70.5464 77.4394 70.8618 77.4394C71.1772 77.4394 71.4927 77.4394 71.8081 77.4394C73.543 77.4394 75.4357 76.9662 77.0128 76.3354C77.3283 76.1776 77.8014 76.0199 78.1168 75.8622C78.2745 75.7045 78.4323 75.5468 78.7477 75.389C79.0631 75.0736 79.3786 74.7582 79.5363 74.285C79.8517 73.6541 80.0095 73.181 80.0095 72.3924C80.0095 72.077 79.8517 71.9193 79.694 71.6038C79.694 71.4461 79.5363 71.2884 79.5363 70.9729Z" fill="#FFFF0E"/>
<path fill-rule="evenodd" clip-rule="evenodd" d="M67.2343 76.3355C66.9189 76.1778 66.4457 75.8623 65.9726 75.8623C65.8149 75.8623 65.6571 75.8623 65.4994 75.8623C65.184 75.8623 64.7109 76.0201 64.3954 76.1778C64.08 76.4932 64.8686 76.8087 65.184 76.9664C65.4994 77.1241 66.1303 77.1241 66.4457 76.9664C66.7612 76.9664 67.2343 76.6509 67.2343 76.3355C67.392 76.3355 67.392 76.3355 67.392 76.3355H67.2343Z" fill="#FFFF0E"/>
<path fill-rule="evenodd" clip-rule="evenodd" d="M90.1032 71.4461C91.6803 70.973 93.2576 70.3421 94.677 69.5535C95.3079 69.2381 95.781 68.9226 96.4119 68.6072C96.7273 68.4495 97.2005 68.134 97.5159 67.9763C97.6736 67.9763 98.6199 67.3454 98.7776 67.6609C98.9354 67.9763 97.9891 68.6072 97.8314 68.7649C97.5159 69.0803 97.0427 69.3958 96.5696 69.7112C96.2541 70.0266 95.781 70.0266 95.4656 70.3421C94.9925 70.6575 94.5193 70.8152 93.8884 71.1307C93.573 71.2884 93.0998 71.4461 92.7844 71.6038C92.4689 71.7615 92.1535 71.7615 91.838 71.9193C91.6803 71.9193 91.3649 71.9193 91.2072 71.9193C90.8918 71.7615 90.2609 71.9193 90.1032 71.4461Z" fill="#FFFF0E"/>
<path fill-rule="evenodd" clip-rule="evenodd" d="M125.274 80.1207C126.063 80.1207 127.009 80.2784 127.798 80.1207C128.428 79.9629 128.902 79.9629 129.532 79.8052C130.636 79.6475 131.898 79.3321 133.002 79.3321C133.475 79.3321 133.948 79.3321 134.422 79.3321C134.737 79.3321 135.052 79.3321 135.21 79.3321C135.368 79.3321 135.683 79.4898 135.683 79.6475C135.999 79.9629 135.683 79.9629 135.526 79.9629C135.052 80.1207 134.737 80.4361 134.264 80.4361C133.475 80.5938 132.844 80.7515 132.056 80.9092C131.583 80.9092 131.11 80.9092 130.479 80.9092C129.848 81.067 129.217 81.067 128.428 81.067C127.797 81.067 127.324 81.067 126.693 81.067C126.22 81.067 125.905 80.9092 125.432 80.9092C125.116 80.9092 124.801 80.9092 124.643 80.7515C124.801 80.9092 124.485 80.5938 125.274 80.1207Z" fill="#FFFF0E"/>
<path fill-rule="evenodd" clip-rule="evenodd" d="M144.201 80.9091C145.147 81.0668 145.778 81.0668 146.724 80.9091C147.355 80.7514 147.986 80.7514 148.459 80.5937C149.248 80.436 150.194 80.1205 150.983 79.6474C151.456 79.3319 152.244 78.8588 152.718 79.0165C153.191 79.1742 153.664 79.6474 153.664 80.1205C153.664 80.7514 153.033 81.0668 152.718 81.3823C152.087 81.8554 150.983 82.1708 150.194 82.1708C149.248 82.1708 148.144 82.0131 147.197 81.8554C146.882 81.8554 146.567 81.6977 146.251 81.6977C145.936 81.54 145.305 81.54 144.201 80.9091Z" fill="#FFFF0E"/>
<path fill-rule="evenodd" clip-rule="evenodd" d="M146.409 44.0034C146.409 44.6343 145.935 46.3692 146.724 46.8424C147.197 47.1578 147.355 46.3692 147.355 46.0538C147.512 45.5806 147.197 44.3189 146.409 44.0034Z" fill="#FFFF0E"/>
<path fill-rule="evenodd" clip-rule="evenodd" d="M5.56662 59.4595C6.35521 60.4058 6.82835 61.3521 7.77466 61.8252C8.40553 62.1407 8.87869 62.6138 9.50956 62.7715C10.1404 62.9293 10.929 63.087 11.5599 63.087C11.8754 63.087 12.0331 63.087 12.0331 62.6138C12.0331 62.4561 11.8753 62.1407 11.7176 61.983C11.5599 61.6675 11.2444 61.5098 10.929 61.1944C10.6136 60.8789 10.4559 60.5635 10.1404 60.2481C9.0364 59.3018 7.93239 58.6709 6.51293 58.1977C6.03978 58.04 6.03977 58.04 5.56662 58.1977C5.25118 58.3555 5.2512 58.3555 5.09348 58.6709C5.09348 59.144 5.40891 59.6172 5.72434 60.0903L5.56662 59.4595Z" fill="#FFFF0E"/>
<path fill-rule="evenodd" clip-rule="evenodd" d="M6.1978 74.1276C7.30183 76.0202 8.72128 77.5974 10.1407 79.3323C11.087 80.4363 11.7179 82.0135 12.822 83.1175C12.9797 83.2752 15.03 85.0101 15.03 84.0638C15.03 83.9061 14.3991 82.9598 14.3991 82.8021C14.0837 82.3289 13.7683 81.698 13.2951 81.2249C12.9797 80.7517 12.5065 80.4363 12.3488 79.9632C12.0334 79.49 11.7179 79.1746 11.4025 78.7014C10.9294 78.2283 10.6139 77.4397 10.2985 76.9665C9.98304 76.4934 9.50991 75.8625 9.19448 75.3893C8.72132 74.6007 8.09043 73.8122 7.30184 73.4967C7.14413 73.339 6.82869 73.1813 6.51326 73.339C5.72467 73.8122 6.04008 74.7585 6.1978 74.1276Z" fill="#FFFF0E"/>
<path fill-rule="evenodd" clip-rule="evenodd" d="M78.1166 109.299C79.8514 108.983 81.1132 108.668 82.8481 109.141C83.6367 109.299 84.4253 109.614 85.2138 109.772C85.687 109.929 86.4756 110.087 86.791 110.403C87.1065 110.876 87.1065 111.507 86.6333 111.822C86.1601 112.295 85.0561 112.137 84.4253 112.137C83.1635 111.98 82.0595 111.822 80.7978 111.507C80.1669 111.349 79.2206 111.033 78.5897 110.56C78.432 110.403 77.8011 109.772 78.1166 109.299Z" fill="#FFFF0E"/>
<path fill-rule="evenodd" clip-rule="evenodd" d="M100.986 118.131C100.197 117.973 100.039 116.396 100.355 115.765C100.512 115.45 100.67 114.819 101.143 114.661C101.459 114.503 101.616 114.819 101.932 114.819C101.616 115.607 101.143 116.238 100.67 116.869L100.986 118.131Z" fill="#FFFF0E"/>
<path fill-rule="evenodd" clip-rule="evenodd" d="M132.372 117.658C133.476 116.869 134.265 116.396 135.526 116.08C136.157 115.923 136.788 115.765 137.419 115.607C138.208 115.449 138.838 114.976 139.627 114.976C139.942 114.976 140.1 114.976 140.416 114.819C140.731 114.819 140.573 114.661 140.889 114.819C141.52 115.134 141.204 115.607 140.889 115.923C140.1 116.553 139.469 116.869 138.523 117.027C137.892 117.184 137.577 117.5 136.946 117.658C136.63 117.815 136.315 117.815 135.999 117.973C134.58 118.288 133.161 117.973 132.372 117.658Z" fill="#FFFF0E"/>
<path fill-rule="evenodd" clip-rule="evenodd" d="M32.0631 114.976C32.694 116.396 33.3248 117.815 34.2711 119.077C34.7443 119.708 35.0597 120.181 35.6906 120.496C36.1637 120.654 36.6369 120.812 36.6369 120.023C36.6369 119.708 36.3214 119.077 36.1637 118.761C35.5328 117.657 34.7443 116.869 34.1134 115.922C33.798 115.607 33.4825 114.976 33.1671 114.818C32.6939 114.661 31.9054 114.345 32.0631 114.976Z" fill="#FFFF0E"/>
<path fill-rule="evenodd" clip-rule="evenodd" d="M61.2411 146.835C62.976 146.52 64.3955 145.889 65.9727 145.416C66.6035 145.1 67.2344 145.1 68.023 145.1L68.1807 144.942C68.3384 144.942 68.6538 144.942 68.8116 144.942C68.9693 144.942 69.7579 144.785 69.9156 144.942C70.5465 145.416 69.2847 146.677 68.9693 146.835C67.8653 147.939 66.1304 148.57 64.3955 148.412C63.6069 148.255 62.8183 147.939 62.0297 147.781C61.5566 147.781 60.4525 147.466 60.4525 146.835C60.6103 146.993 60.6103 146.835 61.2411 146.835Z" fill="#FFFF0E"/>
<path fill-rule="evenodd" clip-rule="evenodd" d="M90.2614 129.96C88.8419 130.906 87.107 131.852 86.003 133.429C85.2144 134.533 86.6339 134.218 87.2648 134.06C87.7379 133.903 88.2111 133.745 88.5265 133.429C88.8419 133.114 89.1574 132.956 89.4728 132.483C89.7883 132.168 89.946 132.01 90.2614 131.852C90.4191 131.537 90.5768 131.064 90.8923 130.906C90.8923 130.748 90.7345 130.748 90.7345 130.591L90.2614 129.96Z" fill="#FFFF0E"/>
<path fill-rule="evenodd" clip-rule="evenodd" d="M49.5699 107.09C50.6739 106.617 51.7779 106.302 52.7242 105.671C53.6705 105.198 54.6169 104.567 55.5632 104.094C56.8249 103.463 58.0867 102.674 59.5061 102.517C59.9793 102.517 60.4524 102.201 60.9256 102.517C61.3987 102.674 61.5564 102.832 61.8719 103.147C62.6605 104.251 61.0833 105.198 60.2947 105.671C59.6638 106.144 59.1907 106.617 58.4021 106.933C57.6135 107.248 56.8249 107.406 56.0363 107.721C54.7746 108.194 53.3551 108.825 51.9356 108.983C51.1471 109.141 50.5162 108.825 49.8853 108.352C49.5699 108.194 49.2545 107.879 49.0967 107.564C48.939 107.406 48.7813 107.09 49.5699 107.09Z" fill="#FFFF0E"/>
<defs>
<radialGradient id="paint0_radial_4_1433" cx="0" cy="0" r="1" gradientUnits="userSpaceOnUse" gradientTransform="translate(31.6976 39.5084) scale(120.026 120.026)">
<stop offset="0.00558659" stop-color="#9D9D94"/>
<stop offset="0.2018" stop-color="#DFD2C1"/>
<stop offset="0.3542" stop-color="#C2B5A2"/>
<stop offset="0.4919" stop-color="#D5C8B5"/>
<stop offset="0.6209" stop-color="#A09277"/>
<stop offset="0.7437" stop-color="#847B60"/>
<stop offset="0.8606" stop-color="#736950"/>
<stop offset="0.942708" stop-color="#A09277"/>
</radialGradient>
<linearGradient id="paint1_linear_4_1433" x1="3.25228" y1="53.9583" x2="110.737" y2="53.9583" gradientUnits="userSpaceOnUse">
<stop offset="0.0111732" stop-color="#D7CAB7"/>
<stop offset="0.2983" stop-color="#E1DAC0"/>
<stop offset="0.695" stop-color="#EDE0CE"/>
<stop offset="0.8659" stop-color="#C3B6A2"/>
<stop offset="1" stop-color="#9A968B"/>
</linearGradient>
<linearGradient id="paint2_linear_4_1433" x1="2.9104" y1="42.2877" x2="134.917" y2="42.2877" gradientUnits="userSpaceOnUse">
<stop offset="0.00558659" stop-color="#FFB80B"/>
<stop offset="0.388" stop-color="#FFB60C"/>
<stop offset="0.5789" stop-color="#FEAE10"/>
<stop offset="0.7274" stop-color="#FCA117"/>
<stop offset="0.8539" stop-color="#FA8E21"/>
<stop offset="0.9655" stop-color="#F7762E"/>
<stop offset="1" stop-color="#F66D33"/>
</linearGradient>
<radialGradient id="paint3_radial_4_1433" cx="0" cy="0" r="1" gradientUnits="userSpaceOnUse" gradientTransform="translate(14.4993 109.42) scale(37.951 37.951)">
<stop offset="0.00558659" stop-color="#FFB80B"/>
<stop offset="0.388" stop-color="#FFB60C"/>
<stop offset="0.5789" stop-color="#FEAE10"/>
<stop offset="0.7274" stop-color="#FCA117"/>
<stop offset="0.8539" stop-color="#FA8E21"/>
<stop offset="0.9655" stop-color="#F7762E"/>
<stop offset="1" stop-color="#F66D33"/>
</radialGradient>
<linearGradient id="paint4_linear_4_1433" x1="0.366273" y1="96.7616" x2="155.144" y2="96.7616" gradientUnits="userSpaceOnUse">
<stop offset="0.00558659" stop-color="#FFB80B"/>
<stop offset="0.388" stop-color="#FFB60C"/>
<stop offset="0.5789" stop-color="#FEAE10"/>
<stop offset="0.7274" stop-color="#FCA117"/>
<stop offset="0.8539" stop-color="#FA8E21"/>
<stop offset="0.9655" stop-color="#F7762E"/>
<stop offset="1" stop-color="#F66D33"/>
</linearGradient>
</defs>
</svg>
