<svg width="150" height="150" viewBox="0 0 150 150" fill="none" xmlns="http://www.w3.org/2000/svg">
<path fill-rule="evenodd" clip-rule="evenodd" d="M149.359 74.7579C149.359 81.8552 148.412 88.9525 146.52 95.419C142.735 108.667 135.322 120.338 125.543 129.486C118.604 135.952 110.245 141.157 101.097 144.627C92.8957 147.781 83.9058 149.516 74.6005 149.516C73.3387 149.516 71.9193 149.516 70.6575 149.358C68.7649 149.201 66.7146 149.043 64.8219 148.885C50.4696 146.993 37.2214 140.999 26.6543 132.009C22.7113 128.697 19.0838 124.912 15.7718 120.811C13.406 117.657 11.1979 114.503 9.30534 111.033C8.83218 110.244 8.35904 109.298 7.88589 108.51C7.88589 108.51 7.88589 108.51 7.88589 108.352C7.41273 107.406 6.93955 106.617 6.62411 105.671C5.36237 102.832 4.25834 99.835 3.31203 96.8384C2.68116 94.6304 2.05033 92.4223 1.57718 90.2143C1.26174 88.6371 0.946306 87.0599 0.788589 85.325C0.315435 81.8552 0 78.3854 0 74.7579C0 72.7076 -2.88837e-05 70.6573 0.315407 68.6069C0.473124 67.3452 0.630871 66.0835 0.788589 64.8217C1.73489 57.409 3.78521 50.4694 6.78184 44.003C8.2013 40.8486 9.93622 37.6943 11.8288 34.8554C14.9832 29.9661 18.6107 25.3923 22.8691 21.2916C36.2751 8.20107 54.728 0.157463 74.9159 0.157463C75.7045 0.157463 76.4931 0.157463 77.2817 0.157463C78.0703 0.157463 79.0165 0.157461 79.8051 0.315178C84.0635 0.630614 88.3219 1.26149 92.4225 2.20779C94.7883 2.83866 97.1541 3.46953 99.3622 4.25812C100.939 4.73127 102.359 5.36214 103.936 5.99301C105.04 6.46617 106.144 6.93932 107.248 7.41248C107.406 7.57019 107.563 7.57019 107.879 7.72791C115.134 11.1977 121.758 15.9292 127.436 21.6071C128.224 22.3957 129.013 23.1842 129.802 24.1305C130.275 24.7614 130.906 25.2346 131.379 25.8654C132.325 26.8117 133.114 27.9158 133.902 28.8621C136.899 32.6473 139.422 36.748 141.63 41.0064C144.154 46.0533 146.204 51.4157 147.624 56.9358C148.57 62.456 149.359 68.4492 149.359 74.7579Z" fill="url(#paint0_radial_4_1463)"/>
<path opacity="0.3" fill-rule="evenodd" clip-rule="evenodd" d="M107.406 7.57043C107.09 7.57043 106.933 7.57043 106.617 7.72815C105.829 7.88587 105.04 7.72814 104.251 7.57043C103.62 7.41271 103.305 7.09727 102.517 7.09727C101.57 6.93956 100.782 6.62413 99.8353 6.46641C98.889 6.30869 98.1004 5.99325 97.1541 5.67782C96.3655 5.36238 96.0501 5.5201 95.4192 5.67782C94.7883 5.83554 94.3152 5.5201 93.6843 5.36238C93.0534 5.04695 92.2648 5.04695 91.634 4.88923C89.7413 4.5738 87.8488 3.94292 85.9562 3.46977C84.8521 3.15433 83.7481 3.15433 82.4863 3.15433C81.54 3.15433 80.7514 3.46977 79.8051 3.46977C79.1743 3.46977 78.7011 3.31205 78.0703 3.31205C77.4394 3.15434 76.8085 3.31205 76.1776 3.31205C75.2313 3.15434 74.7582 2.99662 73.8119 3.31205C73.0233 3.46977 72.5501 3.46977 71.7616 3.62748C70.973 3.62748 70.0267 3.94292 69.2381 4.10064C67.8186 4.41608 66.2414 4.73151 64.8219 4.73151C63.8756 4.73151 62.6139 4.41607 61.8253 4.73151C61.3522 4.88923 61.0367 5.5201 60.5636 5.83553C59.775 6.62412 58.9864 7.255 58.3556 8.04358C57.7247 8.83217 57.0938 9.77848 57.0938 10.8825C57.0938 11.8288 57.5669 12.9328 58.0401 13.7214C58.5133 14.6677 58.671 15.4563 57.7246 16.0872C56.6206 16.8758 55.2012 17.5066 53.9394 17.9798C52.9931 18.2952 52.2045 18.4529 51.5737 17.8221C51.2582 17.6644 51.1005 17.1912 50.7851 16.8758C50.4696 16.7181 49.9965 16.8758 49.6811 17.0335C48.7348 17.3489 47.7884 17.6644 46.8421 17.8221C46.2113 17.9798 45.7381 18.2952 45.1072 18.2952C44.4764 18.453 44.0032 17.9798 43.2146 18.1375C42.2683 18.2952 41.1643 18.7684 40.218 18.7684C39.4294 18.7684 38.4831 18.4529 37.8523 18.1375C37.5368 17.9798 37.3791 17.6644 36.9059 17.8221C36.5905 17.8221 36.1173 18.2952 35.9596 18.6107C35.6442 18.9261 35.6442 19.3993 35.3288 19.7147C35.0133 20.1879 34.8556 20.5033 34.5402 20.9764C34.067 21.765 33.5939 22.5536 33.1207 23.3422C32.8053 23.8153 32.4898 24.6039 32.0167 25.0771C31.859 25.3925 31.3858 25.5502 31.0704 25.708C30.2818 26.1811 29.4932 26.812 28.7046 27.2851C27.2851 28.3892 25.8657 29.6509 24.4462 30.7549C23.3422 31.5435 21.765 32.0167 20.5033 32.6475C19.7147 32.963 18.9261 33.2784 18.1375 33.5938C17.8221 33.7516 17.3489 33.7516 17.1912 34.067C16.8758 34.3824 16.7181 34.6979 16.5604 35.171C15.9295 35.9596 15.1409 36.9059 14.6677 37.8522C14.3523 38.4831 14.1946 38.9563 13.8791 39.5871C13.5637 40.3757 13.0905 41.1643 12.9328 42.1106C12.302 43.8455 12.302 45.7381 11.5134 47.473C11.1979 48.4193 10.5671 49.3656 10.0939 50.3119C9.30534 51.8891 9.1476 53.7817 8.98988 55.5166C8.83216 56.4629 8.98989 57.7247 9.14761 58.671C9.30533 59.775 9.30534 60.879 9.30534 61.983C9.30534 63.0871 8.51676 64.3488 7.88589 65.1374C7.25501 65.926 6.15098 66.2414 5.36239 67.03C4.73152 67.6609 3.94292 68.2917 3.62749 69.238C3.46977 69.5535 3.62749 70.0266 3.62749 70.4998C3.46977 71.4461 3.15435 72.2347 3.15435 73.181C2.99664 74.285 2.99663 75.389 2.99663 76.6508C2.99663 77.2817 2.99663 77.7548 2.99663 78.3857C2.99663 79.0165 3.15432 79.4897 3.31203 79.9629C3.31203 80.2783 3.31203 80.7514 3.31203 81.0669C3.31203 81.54 3.62749 82.0132 3.62749 82.3286C3.94292 83.4326 4.10063 84.379 4.25835 85.483C4.41607 86.4293 4.88922 87.3756 5.04694 88.3219C5.52009 89.5836 5.67782 90.8454 5.99325 92.2648C6.15097 93.2112 6.15099 94.3152 6.30871 95.2615C6.46643 96.0501 6.62411 96.8386 6.62411 97.6272C6.62411 98.889 6.30871 99.993 6.30871 101.255C6.30871 103.305 7.09728 105.355 7.57043 107.406C7.72815 108.037 7.88585 108.51 8.04356 109.141C2.83888 99.0467 0 87.5333 0 75.389C0 60.5636 4.25837 46.8421 11.6711 35.3287C14.8255 30.4395 18.453 25.8657 22.7113 21.9227C36.1173 8.83217 54.5703 0.788567 74.7582 0.788567C76.3354 0.788567 78.0703 0.78857 79.6474 0.946288C89.4259 0.78857 98.889 3.31205 107.406 7.57043Z" fill="url(#paint1_linear_4_1463)"/>
<path opacity="0.1" fill-rule="evenodd" clip-rule="evenodd" d="M79.3325 109.772C79.3325 109.772 86.272 120.023 95.5774 128.382C104.883 136.741 106.144 142.419 106.144 142.419C106.144 142.419 123.651 135.164 136.111 117.815C148.571 100.624 79.3325 109.772 79.3325 109.772Z" fill="black" fill-opacity="0.5"/>
<path opacity="0.4" fill-rule="evenodd" clip-rule="evenodd" d="M91.9497 2.05033C87.8491 1.10402 83.7484 0.473157 79.3323 0.157721C78.5437 0.157721 77.5974 0 76.8088 0C78.5437 0.946306 80.2786 2.6812 80.594 4.57382C81.2249 7.72817 82.329 10.5671 82.8021 13.5637C83.433 16.5604 83.2753 20.3456 81.8558 23.0268C81.0672 24.7617 79.9632 26.1811 78.5437 27.6006C77.5974 28.5469 76.6511 29.1778 76.0202 30.4395C75.3894 31.7013 74.6008 32.8053 73.8122 33.9093C72.7082 35.6442 71.4464 37.3791 70.027 38.9563C69.5538 39.5871 69.0807 39.9026 68.6075 40.5335C68.1344 41.322 67.8189 42.1106 67.188 42.7415C65.7686 44.161 63.7183 45.1073 61.9834 45.7381C59.6176 46.6844 57.5673 47.6308 55.3592 48.8925C52.2048 50.6274 49.5236 52.6777 45.8961 52.8354C44.6344 52.8354 43.3727 52.6777 42.1109 52.8354C40.5337 52.9932 39.1143 53.624 37.6949 53.9395C36.4331 54.2549 35.0136 54.4126 33.7519 54.728C31.5439 55.0435 29.8089 55.8321 27.7586 56.3052C25.0774 56.9361 22.2385 56.7784 19.3996 57.2515C16.8761 57.567 14.8258 57.8824 12.3023 57.2515C8.51707 56.3052 6.46672 54.5703 7.2553 50.4697C7.72846 47.7885 7.57078 45.7381 6.30904 43.8455C3.3124 50.3119 1.26204 57.4093 0.315735 64.6643C2.05063 65.4529 4.10096 65.7683 5.83585 65.926C11.356 66.5569 17.3492 64.0334 22.3962 62.1408C24.9197 61.1945 27.6009 59.775 30.4398 59.4596C33.4365 59.1441 35.9599 59.4596 38.9566 58.8287C49.0505 56.3052 58.9867 52.8354 68.1343 47.473C71.9196 45.265 73.4968 42.1106 76.178 38.9563C78.386 36.1174 81.0672 33.9093 83.7484 31.5435C86.4296 29.1778 88.7954 26.9697 90.3726 23.8154C92.1075 20.5033 93.5269 16.7181 94.3155 13.0906C95.1041 8.98991 94.0001 5.20468 91.9497 2.05033ZM91.4766 12.1443C91.3189 12.9329 91.1611 13.8792 91.0034 14.6677C90.3725 16.7181 89.1108 18.7684 87.2182 19.7147C86.4296 20.1879 85.1679 19.8724 84.6947 19.0838C84.3793 18.6107 84.3793 17.9798 84.3793 17.5067C84.2216 16.4026 84.0638 15.4563 84.0638 14.3523C84.0638 11.8288 84.0638 9.30534 83.7484 6.78186C84.0638 8.20132 83.7484 4.57381 85.9565 3.62751C87.0605 3.15435 88.6376 3.62751 89.4262 4.41609C90.3725 5.52012 90.688 7.25502 91.0034 8.51676C91.3188 9.93622 91.6343 10.8825 91.4766 12.1443Z" fill="url(#paint2_linear_4_1463)" fill-opacity="0.5"/>
<path opacity="0.4" fill-rule="evenodd" clip-rule="evenodd" d="M80.5937 131.536C80.436 131.536 80.1206 131.694 79.9628 131.694L81.3823 131.852C81.3823 131.694 81.0668 131.536 80.5937 131.536ZM80.5937 131.536C80.436 131.536 80.1206 131.694 79.9628 131.694L81.3823 131.852C81.3823 131.694 81.0668 131.536 80.5937 131.536ZM147.151 56.6205C147.151 58.5131 146.52 60.5634 146.52 62.456C146.52 65.1372 146.047 67.1876 145.416 69.7111C144.943 71.4459 143.996 72.7077 143.523 74.4426C142.892 76.3352 141.946 78.0701 141 79.805C139.107 83.2748 137.057 86.9023 136.268 90.8452C135.479 94.4727 135.322 97.4694 133.587 100.781C131.852 103.936 129.328 106.617 127.436 109.771C126.647 111.191 126.016 111.191 124.597 112.137C123.178 113.241 121.758 114.818 120.339 115.922C117.342 118.288 114.503 120.023 110.718 121.442C108.352 122.389 106.144 123.02 103.62 123.335C102.043 123.651 100.466 123.335 98.889 123.651C96.3655 124.124 93.9997 124.755 91.4763 125.543C87.5333 126.805 83.4326 127.593 79.4897 128.855C76.6508 129.644 73.9696 130.275 71.1306 130.748C69.3957 131.063 67.9763 132.01 66.2414 131.694C64.5065 131.379 62.7716 130.748 61.0367 130.117C58.8287 129.486 56.936 129.328 54.5703 129.328C51.4159 129.328 47.6307 129.801 44.3186 129.171C40.6911 128.54 37.2213 127.436 33.5938 126.805C31.3858 126.332 29.8086 125.385 27.7583 124.597C25.8657 123.651 23.9731 123.493 21.9227 122.862C19.8724 122.231 17.8221 121.285 15.7718 120.812C18.9261 124.912 22.5536 128.697 26.6543 132.01C37.2214 140.999 50.3119 146.993 64.8219 148.885C66.7145 149.043 68.6072 149.358 70.6575 149.358C74.9159 148.412 79.0165 147.15 83.2749 145.889C90.3722 143.681 96.5232 139.422 103.62 137.372C106.302 136.583 108.667 135.795 111.033 134.533C112.926 133.587 114.818 133.429 116.553 132.64C123.178 129.801 128.067 123.493 131.063 117.184C132.325 114.345 133.587 111.191 136.11 108.983C137.057 108.036 138.318 107.406 139.107 106.302C140.053 105.198 140.684 103.936 141.63 102.674C143.208 100.624 144.627 98.4157 146.047 96.3653C146.204 96.0499 146.362 95.8922 146.52 95.5768C148.412 88.9526 149.359 82.013 149.359 74.9157C149.359 68.4493 148.57 62.456 147.151 56.6205ZM78.5434 132.01C78.8588 131.852 79.1743 131.536 79.4897 131.379C79.8051 131.221 80.2783 131.379 80.5937 131.536C81.2246 131.379 81.6977 131.379 82.1709 131.694C82.4863 131.852 82.9595 132.167 83.1172 132.483C83.2749 132.798 83.1172 132.956 82.8018 133.271C82.4864 133.587 82.3286 133.587 81.8555 133.587C81.0669 133.744 80.2783 133.902 79.332 133.744C78.8588 133.744 78.0702 133.587 77.7548 133.271C77.7548 132.64 78.228 132.325 78.5434 132.01ZM83.4326 141.788C82.9595 142.419 82.4863 143.05 81.8555 143.365C81.2246 143.838 80.5937 143.996 80.1206 144.469C78.5434 145.258 76.9662 146.204 75.389 146.677C74.7582 146.835 73.9696 146.835 73.3387 146.835C72.5501 146.993 71.6038 146.993 70.8152 146.993C69.8689 146.993 68.7649 147.15 67.8186 147.308C66.8723 147.308 65.7682 147.466 64.8219 147.466C63.087 147.624 61.6676 147.308 60.0904 146.677C58.6709 146.204 57.2515 145.416 55.9898 144.627C55.0435 143.996 54.2549 143.208 53.624 142.419C52.8354 141.788 52.3623 140.999 51.8891 140.053C51.7314 139.738 51.5737 139.422 51.7314 138.949C51.7314 138.791 51.8891 138.634 51.8891 138.634C52.2045 138.476 52.52 138.161 52.6777 138.161C53.1508 137.845 53.7817 137.845 54.4126 137.687C55.8321 137.53 57.2515 137.687 58.6709 137.845C59.4595 137.845 60.2481 138.003 61.0367 137.845C62.1407 137.687 63.2448 137.372 64.1911 137.057C66.7146 136.426 69.2381 135.795 71.7615 135.637C74.285 135.322 77.1239 135.006 79.6474 135.479C80.5937 135.637 81.8555 135.952 82.6441 136.426C83.2749 136.899 83.7481 137.53 84.0635 138.161C84.5367 139.422 84.2212 140.684 83.4326 141.788ZM103.305 135.322C102.832 135.795 102.201 136.11 101.57 136.583C100.782 137.214 99.993 137.53 99.2044 138.003C98.5735 138.476 97.7849 138.791 97.1541 139.107C96.3655 139.422 95.7346 139.738 94.946 140.211C94.1574 140.526 93.3688 140.842 92.5803 141.157C91.9494 141.315 91.3185 141.63 90.6877 141.473C90.2145 141.315 89.5836 141.157 89.2682 140.842C88.6373 140.211 88.795 139.58 88.9528 139.265C88.9528 138.791 88.795 138.003 88.9528 137.372C89.1105 137.057 89.4259 136.583 89.5836 136.268C90.2145 135.006 91.1608 134.218 92.1071 133.271C92.8957 132.483 93.842 131.852 94.946 131.379C96.2078 130.906 97.7849 130.748 99.0467 130.59C100.466 130.432 102.99 130.275 103.778 132.01C104.251 133.114 104.094 134.218 103.305 135.322ZM81.54 131.694C81.3823 131.694 81.0669 131.536 80.7514 131.379C80.5937 131.379 80.2783 131.536 80.1206 131.536L81.54 131.694Z" fill="url(#paint3_linear_4_1463)" fill-opacity="0.5"/>
<path opacity="0.4" fill-rule="evenodd" clip-rule="evenodd" d="M141.158 40.6909V41.0064C141 43.0567 140.212 44.4761 139.423 46.3687C138.792 47.9459 138.161 49.2077 137.373 50.6271C136.111 52.9929 135.48 55.2009 134.534 57.8821C132.957 61.8251 132.326 66.0835 129.96 69.711C127.91 73.023 127.279 76.966 125.702 80.4358C123.809 84.3787 120.812 87.0599 117.658 89.8988C116.239 91.1606 114.977 92.7378 113.715 94.1572C112.296 95.5767 111.349 97.4693 109.614 98.731C106.145 101.255 102.202 103.463 98.7319 106.144C96.6815 107.721 95.2621 109.929 92.8963 111.191C90.6883 112.61 88.1648 113.556 85.9568 114.818C83.9064 116.08 81.8561 117.342 79.6481 118.288C77.1246 119.234 75.0742 118.919 72.3931 119.077C69.5541 119.234 66.5575 120.023 63.8763 120.969C61.6683 121.758 59.7756 122.546 57.4099 121.758C55.8327 121.285 54.5709 120.181 52.9937 119.865C49.2085 119.077 45.1079 119.865 41.3226 119.707C38.326 119.55 35.1717 118.919 32.175 118.288C29.3361 117.815 26.9704 115.765 24.2892 114.976C20.8194 114.03 16.8764 114.818 13.722 113.557C12.3026 113.083 11.0409 111.979 9.93683 111.191C9.62139 111.033 9.46368 110.875 9.14824 110.718C8.67509 109.929 8.20194 108.983 7.72879 108.194C8.51738 108.51 9.30597 108.825 10.0946 109.298C14.3529 111.348 19.7153 111.033 24.2892 111.822C29.4938 112.768 34.6985 114.03 39.9032 114.661C42.1112 114.976 44.1616 114.818 46.3696 114.661C49.3663 114.345 52.3629 114.345 55.3595 113.872C60.4065 112.926 65.4535 110.56 70.6581 111.191C71.6045 111.348 72.7085 111.822 73.6548 111.822C75.0742 111.822 76.1783 110.56 77.2823 109.771C79.3326 108.51 81.5407 108.667 83.4333 106.932C85.1682 105.197 87.2185 104.093 89.4265 102.989C95.1044 100.15 99.6782 95.419 104.252 90.8451C108.037 87.0599 111.665 83.117 114.188 78.5432C116.712 73.9693 116.239 68.4492 118.131 63.7177C119.551 60.2479 120.655 57.0936 122.863 54.0969C123.967 52.6775 125.228 51.4157 126.332 49.9963C127.594 48.5768 128.225 46.9996 129.171 45.2647C130.118 43.3721 131.537 41.7949 132.326 39.7446C133.114 37.852 132.957 36.2748 132.957 34.2245C132.957 32.1742 132.957 29.9661 132.957 27.7581C136.269 32.3319 138.95 36.4325 141.158 40.6909Z" fill="url(#paint4_linear_4_1463)" fill-opacity="0.5"/>
<path opacity="0.4" fill-rule="evenodd" clip-rule="evenodd" d="M129.329 23.8154C128.54 23.0268 127.751 22.0805 126.963 21.2919C121.285 15.6141 114.661 11.0403 107.406 7.41277C107.248 7.25505 107.09 7.25505 106.775 7.09733C105.671 6.62418 104.567 6.15103 103.463 5.67788C101.886 5.04701 100.466 4.41613 98.889 3.94298C99.3621 4.25841 99.993 4.57385 100.151 4.57385C101.097 5.047 101.886 5.36244 102.517 6.15103C103.147 6.93962 103.463 7.57049 103.463 8.67451C103.463 9.62082 103.621 10.7248 103.778 11.6711C103.936 12.6175 104.409 13.406 104.567 14.3524C104.725 14.8255 104.725 15.2987 104.882 15.9295C105.198 17.1913 105.671 18.453 105.986 19.7148C106.459 22.0805 105.198 23.9731 104.409 26.0235C103.147 29.3355 102.359 32.6476 101.255 36.1174C100.466 38.7986 99.0467 41.4798 96.9964 43.5301C94.9461 45.4227 91.9494 45.8959 90.2145 47.9462C88.6373 49.8388 86.7447 51.5737 84.5366 52.52C82.0132 53.7818 79.1743 54.7281 76.4931 55.5167C74.6005 56.1475 72.5501 56.1475 70.4998 56.6207C67.9763 57.2516 65.7683 58.5133 63.5602 59.4596C61.0367 60.5636 58.8287 61.8254 56.3052 62.9294C53.7817 64.0334 51.5736 65.4529 49.0502 66.3992C47.7884 66.8723 46.5267 67.1878 45.4227 67.5032C42.8992 68.4495 40.5334 70.0267 37.8522 70.3421C36.9059 70.4999 35.9596 70.6576 35.0133 70.6576C34.2247 70.6576 33.5939 70.8153 32.963 70.973C30.5972 71.9193 29.1778 74.4428 26.4966 74.6005C23.9731 74.6005 21.6073 74.4428 19.2415 74.7582C17.9798 74.9159 16.8758 74.7582 15.7718 74.916C15.4563 74.916 14.9832 75.0737 14.6677 74.916C14.3523 74.7582 13.8792 74.4428 13.406 74.1274C12.4597 73.6542 11.6711 73.0233 10.8825 72.3925C9.30533 71.1307 7.25501 71.9193 5.52012 71.4462C5.04697 71.2884 4.25837 71.4462 3.78521 71.1307C2.68119 70.4999 1.26171 69.0804 0.315407 68.2918C0.157689 70.3421 0 72.3925 0 74.4428C0 78.0703 0.315435 81.5401 0.788588 85.0099C0.946306 86.5871 1.26174 88.1642 1.57718 89.8991C2.05033 92.1072 2.68116 94.4729 3.31203 96.5233C4.25834 99.5199 5.36237 102.517 6.62411 105.355C8.67444 105.671 10.7248 105.986 12.7751 105.671C15.7717 105.198 18.6107 104.725 21.6073 104.882C24.4462 105.04 26.9697 105.986 29.6509 106.459C32.6475 106.933 35.8019 107.406 38.9562 107.564C41.7952 107.721 44.6341 108.037 47.3153 108.352C49.3656 108.668 51.5737 108.983 53.624 109.141C59.1441 109.456 64.5065 108.037 69.8689 107.564C72.5501 107.248 75.2313 106.617 77.9125 105.986C79.4897 105.671 81.0669 105.198 82.4863 104.251C84.3789 102.99 85.6407 101.255 87.2179 99.8353C89.1105 98.2582 91.0031 96.681 92.8957 95.2615C94.4729 93.9998 96.0501 92.5803 97.785 91.4763C99.0467 90.6877 100.466 89.7414 101.728 88.7951C104.094 86.9025 106.144 84.6944 108.194 82.3287C111.033 79.0166 112.137 74.4428 113.241 70.3421C114.345 66.5569 114.976 62.9294 117.026 59.4596C117.973 57.8824 118.761 55.9898 119.235 54.0972C119.55 52.9932 119.708 51.5737 120.181 50.4697C120.969 48.7348 122.704 47.3154 123.651 45.7382C124.439 44.4764 125.386 43.2147 125.859 41.6375C126.963 38.7986 127.751 35.9597 128.224 32.8053C128.54 30.5973 129.328 28.3892 129.959 26.1812C130.117 25.8657 130.117 25.3926 130.275 25.0771C130.275 24.9194 129.802 24.2886 129.329 23.8154ZM32.0167 74.916C32.1744 74.6005 35.0133 73.4965 35.3288 73.3388C35.3288 73.3388 35.3287 73.3388 35.171 73.3388L33.2784 74.1274C35.3287 73.4965 38.9562 75.5468 37.2213 77.7549C36.7482 78.3857 35.3288 78.7012 34.5402 78.8589C33.7516 79.0166 33.2784 78.7012 32.8053 78.0703C32.3321 77.4394 32.0167 76.4931 32.0167 75.7045C32.0167 75.5468 32.0167 75.0737 32.0167 74.916ZM9.77847 94.9461C7.57042 94.3152 6.15095 93.5266 4.88921 91.634C3.9429 90.3723 3.31206 89.2683 2.99663 87.8488C2.83891 86.5871 2.36574 85.6408 2.68117 84.379C2.83889 83.4327 3.31206 82.3287 3.78521 81.5401C4.25837 80.5938 5.04694 79.4898 5.04694 79.1743C7.25498 79.0166 9.30532 78.8589 11.3556 78.8589C13.7214 78.8589 16.2449 79.1743 18.6107 79.1743C19.7147 79.1743 20.8187 79.1743 21.9228 79.0166C23.0268 78.8589 23.9731 78.5435 25.0771 78.3857C26.9697 78.0703 28.7046 77.9126 30.4395 78.7012C31.7012 79.332 32.3321 80.9092 32.963 82.171C33.2784 82.9595 33.5938 83.4327 33.5938 84.379C33.5938 85.483 33.5938 86.4293 33.4361 87.3756C33.4361 87.6911 33.2784 88.1642 33.2784 88.4797C31.7012 91.7917 27.6006 92.8958 24.4462 94.1575C19.7147 96.0501 14.51 96.2078 9.77847 94.9461ZM43.3724 102.201C42.4261 104.725 38.3254 105.513 35.9596 105.671C34.8556 105.671 33.4361 105.513 32.3321 104.882C31.7013 104.567 31.2281 103.936 30.7549 103.305C30.4395 102.832 29.9663 102.043 28.7046 102.359C29.02 100.939 29.3355 99.6776 29.9664 98.4159C30.4395 97.785 31.0703 97.3119 31.7012 96.681C32.8052 95.7347 34.067 94.7884 35.3288 94.1575C37.3791 93.0535 39.5871 93.8421 41.4797 94.7884C42.8992 95.4193 43.8455 96.3656 44.161 97.785C44.6341 99.5199 44.0032 100.624 43.3724 102.201ZM71.1306 101.728C70.3421 103.463 69.2381 103.936 67.6609 104.882C65.7683 105.829 63.2448 106.617 61.1944 106.617C60.0904 106.617 58.9864 106.144 58.0401 105.671C57.4092 105.355 56.6206 105.198 56.1475 104.725C54.728 103.305 54.4126 101.413 55.3589 101.728C54.728 100.466 54.4126 99.2045 54.2549 97.9427C54.5703 97.785 54.728 97.4696 54.728 97.1541C55.5166 95.7347 56.9361 94.4729 58.5132 93.6843C61.0367 92.2649 64.3488 91.9495 67.1877 93.2112C68.4494 93.6844 69.2381 94.3152 70.0266 95.2615C70.4998 95.7347 70.9729 96.0501 71.4461 96.681C71.9193 97.9427 71.6038 100.309 71.1306 101.728ZM79.4897 101.413C79.0166 101.728 78.228 102.359 77.7548 102.359C77.2816 102.201 76.4931 101.413 76.4931 100.782L76.1776 100.466C76.8085 99.3622 77.4394 98.4159 78.0703 97.3119C79.0166 97.785 79.9628 97.6273 80.5937 98.7313C81.3823 99.8353 80.2783 100.782 79.4897 101.413ZM100.782 51.7314C99.993 52.8355 98.889 53.9395 97.6272 54.4127C96.0501 55.0435 93.842 55.6744 93.6843 53.1509C93.6843 51.7314 93.842 50.6274 94.4729 49.3657C95.4192 47.4731 96.2078 46.9999 98.1004 46.0536C98.7312 46.0536 99.5199 46.369 99.993 46.5268C100.939 46.8422 101.886 47.7885 102.043 48.8925C102.201 49.9966 101.412 50.9429 100.782 51.7314ZM120.496 41.1644C119.708 43.6878 118.604 46.0536 117.5 48.2617C116.238 51.1006 116.08 54.0972 115.292 57.0938C114.976 58.8287 114.03 60.7213 112.453 61.3522C111.664 61.6677 111.033 61.5099 110.245 61.5099C109.456 61.5099 108.194 61.8254 108.194 62.4562C107.721 61.1945 107.09 59.6173 106.775 58.3556C106.459 56.9361 106.302 55.359 106.144 53.7818C105.829 52.2046 105.829 50.6274 105.671 49.0502C105.513 47.6308 105.198 46.0536 105.198 44.6341C105.198 39.7449 108.037 33.5939 112.61 31.3859C114.03 30.755 115.449 30.4395 117.026 30.5973C118.761 30.9127 119.865 31.3859 120.654 33.1208C121.6 35.4865 121.127 38.6409 120.496 41.1644Z" fill="url(#paint5_linear_4_1463)" fill-opacity="0.5"/>
<path opacity="0.4" fill-rule="evenodd" clip-rule="evenodd" d="M98.7313 45.7381C98.5735 45.8958 98.2581 45.8958 98.1004 46.0535C97.6272 46.0535 97.3118 45.8958 96.9964 46.0535L98.7313 45.7381Z" fill="url(#paint6_linear_4_1463)" fill-opacity="0.5"/>
<path opacity="0.4" fill-rule="evenodd" clip-rule="evenodd" d="M4.88984 79.1743C4.73212 79.1743 4.57443 79.1743 4.57443 79.1743C4.88987 79.0166 4.88984 79.0166 4.88984 79.1743Z" fill="url(#paint7_linear_4_1463)" fill-opacity="0.5"/>
<path opacity="0.3" fill-rule="evenodd" clip-rule="evenodd" d="M32.0172 136.268C32.0172 136.268 38.799 138.792 43.6883 137.372C43.6883 137.372 45.5809 121.443 39.5876 111.191C33.5943 100.939 23.3427 116.396 23.3427 116.396L20.9769 126.174C20.9769 126.174 26.6548 132.956 32.0172 136.268Z" fill="black" fill-opacity="0.5"/>
<path fill-rule="evenodd" clip-rule="evenodd" d="M15.4568 139.738C15.6145 139.896 15.7723 140.054 15.7723 140.369C15.4568 140.369 15.4568 140.211 15.4568 139.896C15.4568 139.58 15.6146 139.738 15.7723 139.423C15.7723 139.423 15.7722 139.423 15.93 139.423L15.4568 139.738Z" fill="#0EDBFF"/>
<defs>
<radialGradient id="paint0_radial_4_1463" cx="0" cy="0" r="1" gradientUnits="userSpaceOnUse" gradientTransform="translate(28.3062 39.7541) scale(120.026 120.026)">
<stop offset="0.00558659" stop-color="#B1B8BE"/>
<stop offset="0.0937306" stop-color="#C0C8CB"/>
<stop offset="0.211" stop-color="#C0CAC9"/>
<stop offset="0.3446" stop-color="#B7C0C7"/>
<stop offset="0.4903" stop-color="#BCC6C7"/>
<stop offset="0.6442" stop-color="#959EA3"/>
<stop offset="0.6844" stop-color="#4C535D"/>
<stop offset="0.7432" stop-color="#636A74"/>
<stop offset="0.8282" stop-color="#3C4451"/>
<stop offset="0.9287" stop-color="#2E353F"/>
<stop offset="1" stop-color="#283039"/>
</radialGradient>
<linearGradient id="paint1_linear_4_1463" x1="-0.139107" y1="54.2041" x2="107.345" y2="54.2041" gradientUnits="userSpaceOnUse">
<stop offset="0.0111732" stop-color="#001218"/>
<stop offset="0.3224"/>
<stop offset="0.5506"/>
<stop offset="0.7523"/>
<stop offset="0.9375"/>
<stop offset="1"/>
</linearGradient>
<linearGradient id="paint2_linear_4_1463" x1="0.542691" y1="33.0546" x2="94.5122" y2="33.0546" gradientUnits="userSpaceOnUse">
<stop stop-color="#B8C2FF"/>
<stop offset="1" stop-color="#7D72B3"/>
</linearGradient>
<linearGradient id="paint3_linear_4_1463" x1="15.7937" y1="103" x2="149.302" y2="103" gradientUnits="userSpaceOnUse">
<stop stop-color="#B8C2FF"/>
<stop offset="1" stop-color="#7D72B3"/>
</linearGradient>
<linearGradient id="paint4_linear_4_1463" x1="7.90843" y1="75.385" x2="141.149" y2="75.385" gradientUnits="userSpaceOnUse">
<stop stop-color="#B8C2FF"/>
<stop offset="1" stop-color="#7D72B3"/>
</linearGradient>
<linearGradient id="paint5_linear_4_1463" x1="-0.135795" y1="56.7655" x2="130.833" y2="56.7655" gradientUnits="userSpaceOnUse">
<stop stop-color="#B8C2FF"/>
<stop offset="1" stop-color="#7D72B3"/>
</linearGradient>
<linearGradient id="paint6_linear_4_1463" x1="96.8923" y1="45.9698" x2="98.6901" y2="45.9698" gradientUnits="userSpaceOnUse">
<stop stop-color="#E8DDFF"/>
<stop offset="1" stop-color="#AA8AD8"/>
</linearGradient>
<linearGradient id="paint7_linear_4_1463" x1="4.54904" y1="79.191" x2="4.92233" y2="79.191" gradientUnits="userSpaceOnUse">
<stop stop-color="#E8DDFF"/>
<stop offset="1" stop-color="#AA8AD8"/>
</linearGradient>
</defs>
</svg>
