<svg width="150" height="150" viewBox="0 0 150 150" fill="none" xmlns="http://www.w3.org/2000/svg">
<path fill-rule="evenodd" clip-rule="evenodd" d="M149.359 74.6005C149.359 81.8555 148.412 88.7951 146.52 95.2615C142.735 108.51 135.322 120.181 125.543 129.329C118.604 135.795 110.245 141 101.255 144.469C93.0536 147.624 84.0637 149.359 74.7583 149.359C73.4966 149.359 72.0771 149.359 70.8154 149.201C68.9228 149.043 66.8724 148.885 64.9798 148.728C50.4698 146.835 37.3792 140.842 26.8121 131.852C22.8692 128.54 19.2417 124.755 15.9296 120.654C13.5639 117.657 11.3558 114.345 9.30548 110.876C8.83232 110.087 8.35919 109.298 8.04375 108.352C8.04375 108.352 8.04375 108.352 8.04375 108.194C7.5706 107.248 7.09744 106.459 6.78201 105.513C5.52026 102.674 4.41623 99.6776 3.46992 96.6809C2.83905 94.4729 2.2082 92.2649 1.73504 90.0568C1.41961 88.4796 1.10417 86.9025 0.946456 85.1676C0.473303 81.6978 0.157867 78.228 0.157867 74.6005C0.157867 72.5501 0.31558 70.4998 0.473298 68.4495C0.631016 67.1877 0.788738 65.926 0.946456 64.6643C1.89276 57.2515 3.94307 50.3119 6.93971 43.8455C8.35917 40.6911 10.0941 37.5368 11.9867 34.5402C15.141 29.6509 18.7686 25.0771 23.0269 21.1342C36.4329 8.04359 54.8859 0 75.0738 0C75.8624 0 76.651 0 77.4395 0C78.2281 0 79.1744 9.62397e-06 79.963 0.157727C84.2214 0.473163 88.4798 1.10403 92.4227 2.05033C94.7885 2.68121 97.1542 3.31208 99.3623 4.10067C100.939 4.57382 102.359 5.20468 103.936 5.83555C105.04 6.3087 106.144 6.78187 107.248 7.25502C107.406 7.41274 107.564 7.41274 107.879 7.57045C115.134 11.0402 121.758 15.7718 127.436 21.4496C128.225 22.2382 129.013 23.0268 129.802 23.8154C130.275 24.4463 130.906 24.9194 131.379 25.5503C132.325 26.4966 133.114 27.6006 133.902 28.5469C136.899 32.3321 139.423 36.4328 141.631 40.6911C144.154 45.7381 146.204 51.1005 147.624 56.6206C148.57 62.2985 149.359 68.2917 149.359 74.6005Z" fill="url(#paint0_radial_4_1244)"/>
<g opacity="0.4">
<path opacity="0.4" fill-rule="evenodd" clip-rule="evenodd" d="M18.7681 41.0067C17.3486 43.8456 16.2446 46.2113 15.9292 49.5234C15.7715 51.8892 15.2983 54.0972 15.6137 56.463C15.9292 58.9865 16.8755 61.0368 17.5064 63.4026C18.4527 66.2415 19.8721 68.765 21.9224 70.8153C25.5499 74.2851 30.5969 74.4428 34.8553 72.0771C37.0634 70.8153 38.7983 69.2381 41.164 68.2918C44.3184 66.8723 47.315 65.6106 49.523 62.7717C51.8888 59.775 52.8351 56.1476 53.1506 52.3623C53.3083 50.1543 53.6237 47.9462 53.1506 45.7382C52.6774 44.0033 52.0465 42.1107 51.1002 40.5335C50.4693 39.2718 49.523 38.01 48.7345 36.906C47.4727 35.3288 46.0533 34.6979 44.3184 33.9094C43.2144 33.4362 42.268 32.8053 41.0063 32.8053C39.5868 32.8053 38.0097 32.8053 36.7479 32.963C35.1707 33.1208 33.5936 33.7517 32.0164 34.2248C30.5969 34.698 29.0197 35.0134 27.6003 35.6443C26.1808 36.2751 24.7614 36.7483 23.3419 37.0637C21.4493 37.5369 19.8721 38.1677 18.4527 39.5872C18.1372 39.9026 17.5063 40.3758 17.1909 40.6912C16.56 41.4798 16.7178 42.2684 18.7681 41.0067Z" fill="#B9BFE2"/>
<path opacity="0.4" fill-rule="evenodd" clip-rule="evenodd" d="M45.8955 73.0233C46.3687 71.6038 46.5264 69.0804 47.9458 67.9763C48.419 67.5032 49.2076 67.1877 49.8385 67.03C50.9425 66.7146 51.7311 67.1877 52.6774 67.6609C55.0431 68.9226 54.57 72.5501 53.3083 74.6005C52.2042 76.3353 49.3653 77.7548 47.4727 76.3354C46.211 75.3891 45.5801 73.3387 45.8955 71.7616C46.0533 71.7616 46.0533 71.7616 46.211 71.7616L45.8955 73.0233Z" fill="#B9BFE2"/>
<path opacity="0.4" fill-rule="evenodd" clip-rule="evenodd" d="M90.8451 95.7346C90.6874 97.154 90.2142 99.5198 90.5296 101.097C90.6873 102.674 91.0028 104.251 91.4759 105.671C92.1068 108.352 93.2108 111.506 96.0497 112.453C98.5732 113.399 101.728 112.453 104.093 111.506C106.617 110.402 109.613 109.614 111.979 108.037C114.345 106.459 116.553 104.567 118.288 102.359C120.181 99.9929 120.969 97.7849 121.127 94.6305C121.285 90.2144 119.392 86.2715 117.184 82.644C114.66 78.5433 110.087 77.2816 105.671 79.0165C101.885 80.2782 99.9927 84.3789 97.3115 87.0601C96.5229 87.8487 95.892 88.795 94.9457 89.5835C93.8417 90.3721 93.5263 91.1607 92.8954 92.2648C92.4222 93.0534 91.6337 93.6842 91.3182 94.6305C90.6873 95.7346 90.8451 97.154 90.8451 95.7346Z" fill="#B9BFE2"/>
<path opacity="0.4" fill-rule="evenodd" clip-rule="evenodd" d="M125.07 93.2111C125.385 92.8957 127.12 88.9528 128.697 89.1105C129.486 89.2682 130.117 90.0568 130.432 90.6876C131.063 91.634 131.536 92.5803 130.748 93.6843C129.801 95.1037 125.701 96.2077 125.543 93.5265C125.385 93.5265 125.385 93.5265 125.228 93.5265V93.2111H125.07Z" fill="#B9BFE2"/>
<path opacity="0.4" fill-rule="evenodd" clip-rule="evenodd" d="M64.3485 13.5638C64.6639 13.2483 66.3988 9.30537 67.976 9.46309C68.7646 9.6208 69.3954 10.4094 69.7109 11.0403C70.3417 11.9866 70.8149 12.9329 70.0263 14.0369C69.08 15.4563 64.9794 16.5604 64.8216 13.8792C64.6639 13.8792 64.6639 13.8792 64.5062 13.8792V13.5638H64.3485Z" fill="#B9BFE2"/>
<path opacity="0.4" fill-rule="evenodd" clip-rule="evenodd" d="M105.828 69.8689C106.144 69.5535 107.879 65.6106 109.456 65.7683C110.244 65.926 110.875 66.7146 111.191 67.3455C111.822 68.2918 112.295 69.2381 111.506 70.3421C110.56 71.7616 106.459 72.8656 106.301 70.1844C106.144 70.1844 106.144 70.1844 105.986 70.1844V69.8689H105.828Z" fill="#B9BFE2"/>
<path opacity="0.4" fill-rule="evenodd" clip-rule="evenodd" d="M95.5766 51.416C94.6303 53.7817 93.5263 55.3589 94.3149 57.567C94.6303 58.671 94.788 59.775 95.1034 60.879C95.7343 63.0871 97.4692 64.3488 98.8887 65.926C100.939 67.9763 102.674 68.6072 105.355 67.3455C106.301 66.8723 107.09 66.3992 107.879 65.7683C109.14 64.822 109.613 64.3488 110.244 62.9294C110.875 61.8253 111.033 60.7213 111.506 59.4596C111.979 58.1979 112.61 57.0938 112.61 55.6743C112.61 54.2549 112.768 52.6777 112.452 51.416C111.979 49.6811 111.033 48.1039 110.087 46.6845C109.298 45.4227 108.352 44.1609 107.09 43.0569C106.144 42.2683 104.724 42.2684 103.462 41.9529C101.254 41.4798 98.1001 43.2147 96.9961 45.1073C95.4189 47.6308 94.6303 50.4697 95.5766 51.416Z" fill="#B9BFE2"/>
<path opacity="0.4" fill-rule="evenodd" clip-rule="evenodd" d="M90.5297 65.7683C90.6874 67.5032 91.3183 69.0803 92.1069 70.4998C92.4223 70.3421 92.8955 70.1843 93.2109 70.0266C93.2109 69.5535 93.5263 69.3958 93.684 68.9226C93.8418 68.4495 93.684 67.8186 93.684 67.3455C93.684 66.3991 93.3686 65.7683 93.0532 64.9797C92.7377 64.3488 92.4223 63.2448 91.6337 63.4025C90.0565 63.7179 90.2142 64.9797 90.5297 65.7683Z" fill="#B9BFE2"/>
<path opacity="0.4" fill-rule="evenodd" clip-rule="evenodd" d="M15.7714 113.557C15.9291 114.976 15.7714 116.08 16.56 117.184C17.3486 118.288 18.2949 119.392 19.2412 120.339C19.8721 120.969 20.9761 122.389 22.0801 121.758C23.0264 121.285 23.1841 119.55 23.1841 118.604C23.1841 117.815 22.8687 117.026 22.711 116.396C22.5533 115.607 22.2378 114.818 21.607 114.03C20.8184 112.768 18.9258 110.718 17.1909 111.664C16.7177 111.979 16.2446 112.137 15.9291 112.768C15.6137 113.399 15.7714 113.872 15.7714 113.557Z" fill="#B9BFE2"/>
<path opacity="0.4" fill-rule="evenodd" clip-rule="evenodd" d="M53.3083 107.564C52.9928 106.933 52.8351 106.144 52.6774 105.356C52.5197 105.198 52.6774 104.882 52.8351 104.725C53.1506 103.936 53.3083 103.147 53.7814 102.359C54.57 101.097 55.3586 99.6777 56.6203 98.7314C57.0935 98.416 57.5666 98.4159 58.1975 98.2582C58.6707 98.1005 59.3015 97.9428 59.7747 97.7851C60.721 97.6274 61.825 97.7851 62.7713 98.1005C63.8754 98.416 65.1371 98.7314 65.9257 99.2045C66.872 99.6777 67.3452 100.624 67.976 101.413C69.08 103.147 69.5532 105.513 67.976 107.248C67.5029 107.721 67.0297 108.037 66.5566 108.352C66.0834 108.668 65.4525 109.141 64.8217 109.456C64.1908 109.772 63.2445 109.929 62.4559 110.087C61.0364 110.402 59.4593 110.403 57.8821 109.929C56.3049 109.772 55.2009 108.668 53.3083 107.564Z" fill="#B9BFE2"/>
</g>
<path fill-rule="evenodd" clip-rule="evenodd" d="M107.406 7.41257C107.09 7.41257 106.933 7.41258 106.617 7.5703C105.829 7.72802 105.04 7.57029 104.251 7.41257C103.621 7.25486 103.305 6.93941 102.517 6.93941C101.57 6.7817 100.782 6.46627 99.8353 6.30855C98.889 6.15084 98.1004 5.8354 97.1541 5.51997C96.3655 5.20453 96.0501 5.36225 95.4192 5.51997C94.7883 5.67768 94.3152 5.36225 93.6843 5.20453C93.0534 4.8891 92.2649 4.88909 91.634 4.73138C89.7414 4.41594 87.8488 3.78508 85.9561 3.31193C84.8521 2.99649 83.7481 2.99647 82.4864 2.99647C81.5401 2.99647 80.7515 3.31193 79.8052 3.31193C79.1743 3.31193 78.7011 3.1542 78.0703 3.1542C77.4394 2.99648 76.8085 3.1542 76.1777 3.1542C75.2314 2.99648 74.7582 2.83876 73.8119 3.1542C73.0233 3.31192 72.5501 3.31191 71.7616 3.46963C70.973 3.46963 70.0266 3.78507 69.2381 3.94279C67.8186 4.25822 66.2414 4.57365 64.822 4.57365C63.8757 4.57365 62.6139 4.25821 61.8253 4.57365C61.3522 4.73137 61.0367 5.36226 60.5636 5.67769C59.775 6.46628 58.9864 7.09714 58.3556 7.88573C57.7247 8.67432 57.0938 9.62061 57.0938 10.7246C57.0938 11.6709 57.567 12.775 58.0401 13.5636C58.5133 14.5099 58.671 15.2985 57.7247 15.9293C56.6207 16.7179 55.2012 17.3488 53.9394 17.8219C52.9931 18.1374 52.2046 18.2951 51.5737 17.6642C51.2582 17.5065 51.1005 17.0334 50.7851 16.7179C50.4697 16.5602 49.9965 16.7179 49.6811 16.8757C48.7348 17.1911 47.7885 17.5065 46.8422 17.6642C46.2113 17.822 45.7381 18.1374 45.1073 18.1374C44.4764 18.2951 44.0032 17.8219 43.2146 17.9797C42.2683 18.1374 41.1643 18.6105 40.218 18.6105C39.4294 18.6105 38.4831 18.2951 37.8522 17.9797C37.5368 17.8219 37.3791 17.5065 36.9059 17.6642C36.5905 17.6642 36.1174 18.1374 35.9596 18.4528C35.6442 18.7683 35.6442 19.2414 35.3288 19.5568C35.0133 20.03 34.8556 20.3454 34.5402 20.8186C34.067 21.6072 33.5939 22.3958 33.1207 23.1844C32.8053 23.6575 32.4899 24.4461 32.0167 24.9192C31.859 25.2347 31.3858 25.3924 31.0704 25.5501C30.2818 26.0233 29.4932 26.6542 28.7046 27.1273C27.2852 28.2313 25.8657 29.493 24.4462 30.5971C23.3422 31.3857 21.765 31.8588 20.5033 32.4897C19.7147 32.8051 18.9261 33.1206 18.1375 33.436C17.8221 33.5937 17.3489 33.5937 17.1912 33.9092C16.8758 34.2246 16.7181 34.54 16.5604 35.0132C15.9295 35.8018 15.1409 36.7481 14.6678 37.6944C14.3523 38.3252 14.1946 38.7984 13.8792 39.4293C13.5637 40.2179 13.0906 41.0065 12.9328 41.9528C12.302 43.6877 12.302 45.5803 11.5134 47.3152C11.198 48.2615 10.5671 49.2077 10.0939 50.1541C9.30534 51.7312 9.14762 53.6239 8.9899 55.3588C8.83219 56.3051 8.98991 57.5668 9.14763 58.5131C9.30535 59.6171 9.30534 60.7212 9.30534 61.8252C9.30534 62.9292 8.51676 64.191 7.88589 64.9796C7.25501 65.7682 6.15098 66.0836 5.36239 66.8721C4.73152 67.503 3.94295 68.1339 3.62751 69.0802C3.46979 69.3956 3.62751 69.8688 3.62751 70.3419C3.46979 71.2883 3.15435 72.0768 3.15435 73.0231C2.99664 74.1271 2.99663 75.2312 2.99663 76.4929C2.99663 77.1238 2.99663 77.597 2.99663 78.2278C2.99663 78.8587 3.15436 79.3319 3.31208 79.805C3.31208 80.1205 3.31208 80.5936 3.31208 80.909C3.31208 81.3822 3.62751 81.8553 3.62751 82.1708C3.94295 83.2748 4.10066 84.2211 4.25837 85.3251C4.41609 86.2714 4.88924 87.2177 5.04696 88.164C5.52011 89.4258 5.67784 90.6875 5.99328 92.107C6.151 93.0533 6.15099 94.1573 6.30871 95.1036C6.46643 95.8922 6.62414 96.6808 6.62414 97.4694C6.62414 98.7311 6.30871 99.8352 6.30871 101.097C6.30871 103.147 7.0973 105.198 7.57045 107.248C7.72817 107.879 7.88589 108.352 8.04361 108.983C2.83893 98.8889 0 87.3755 0 75.2312C0 60.4057 4.25837 46.6843 11.6711 35.1709C14.8255 30.2816 18.453 25.7078 22.7113 21.7649C36.1173 8.6743 54.5703 0.630707 74.7582 0.630707C76.3354 0.630707 78.0703 0.630716 79.6474 0.788434C89.4259 0.630716 98.889 3.15419 107.406 7.41257Z" fill="url(#paint1_linear_4_1244)"/>
<defs>
<radialGradient id="paint0_radial_4_1244" cx="0" cy="0" r="1" gradientUnits="userSpaceOnUse" gradientTransform="translate(28.3936 39.5715) scale(120.026 120.026)">
<stop offset="0.00558659" stop-color="#0CC463"/>
<stop offset="0.2058" stop-color="#0CC163"/>
<stop offset="0.3613" stop-color="#0BB765"/>
<stop offset="0.5018" stop-color="#09A767"/>
<stop offset="0.6334" stop-color="#078F6B"/>
<stop offset="0.7576" stop-color="#04726F"/>
<stop offset="0.8715" stop-color="#004F74"/>
</radialGradient>
<linearGradient id="paint1_linear_4_1244" x1="-0.0520469" y1="54.0212" x2="107.432" y2="54.0212" gradientUnits="userSpaceOnUse">
<stop offset="0.0111732" stop-color="#92FF2C"/>
<stop offset="0.2325" stop-color="#8FFC2D"/>
<stop offset="0.3947" stop-color="#86F332"/>
<stop offset="0.5382" stop-color="#76E33A"/>
<stop offset="0.6707" stop-color="#5FCD44"/>
<stop offset="0.7958" stop-color="#42B152"/>
<stop offset="0.9136" stop-color="#1F8E63"/>
<stop offset="1" stop-color="#007072"/>
</linearGradient>
</defs>
</svg>
