<svg width="150" height="150" viewBox="0 0 150 150" fill="none" xmlns="http://www.w3.org/2000/svg">
<path fill-rule="evenodd" clip-rule="evenodd" d="M149.359 74.7582C149.359 96.3655 140.211 115.765 125.543 129.486C118.604 135.953 110.245 141.157 101.255 144.627C93.0534 147.782 84.0635 149.516 74.7582 149.516C71.4461 149.516 68.134 149.359 64.9797 148.886C61.9831 148.57 59.1441 147.939 56.3052 147.151C49.5234 145.416 43.2146 142.735 37.3791 139.422C33.5939 137.214 30.1241 134.849 26.812 132.01C19.0838 125.543 12.6174 117.5 8.0436 108.51C5.20468 102.832 2.99664 96.681 1.57718 90.2146C0.473153 85.1676 0 80.1206 0 74.7582C0 59.9327 4.25838 46.2113 11.6711 34.6979C14.8255 29.8086 18.453 25.2348 22.7114 21.1342C36.1174 8.04359 54.5703 0 74.7582 0C76.3354 0 78.0703 9.62398e-06 79.6474 0.157727C88.1642 0.788598 96.2078 2.6812 103.621 5.83555C104.882 6.3087 106.144 6.93958 107.406 7.57046C112.768 10.2517 117.815 13.5637 122.547 17.3489C124.124 18.6107 125.543 20.0302 126.963 21.4496C127.436 21.9228 128.067 22.3959 128.54 23.0268C141.473 36.4328 149.359 54.728 149.359 74.7582Z" fill="url(#paint0_radial_4_1508)"/>
<path opacity="0.5" fill-rule="evenodd" clip-rule="evenodd" d="M0.788605 85.8991L3.07906 97.5898C3.07906 97.5898 15.6766 105.805 45.023 102.803C74.3694 99.8016 81.2408 84.0033 92.693 74.8402C104.145 65.6772 126.334 58.4099 132.06 51.1427C137.786 44.0334 132.919 29.6569 132.919 29.6569L130.629 26.1813C130.629 26.1813 134.78 38.504 129.77 47.5091C124.903 56.5142 103 60.7797 91.1183 72.3125C79.2366 83.8453 55.0437 92.6923 34.2865 92.8503C13.9587 93.0083 0.788605 85.8991 0.788605 85.8991Z" fill="#4E79A6"/>
<path opacity="0.5" fill-rule="evenodd" clip-rule="evenodd" d="M13.406 116.651L18.0019 124.094C18.0019 124.094 39.1145 130.904 70.8552 124.094C102.596 117.284 126.581 97.4882 137.64 86.2441C148.842 75 147.406 59.3215 147.406 59.3215L146.401 54.5705C146.401 54.5705 144.39 70.8824 132.039 86.2441C119.687 101.606 99.0053 115.542 69.2753 121.243C39.689 127.103 13.406 116.651 13.406 116.651Z" fill="#386293"/>
<path opacity="0.5" fill-rule="evenodd" clip-rule="evenodd" d="M5.52011 45.8081C5.52011 45.8081 46.0234 61.2536 77.2767 54.389C108.53 47.6803 116.939 25.214 117.5 13.6688L111.754 8.83237C111.754 8.83237 111.894 31.9227 92.1326 45.9641C72.3715 59.8495 21.6373 51.5807 8.0428 39.5675L5.52011 45.8081Z" fill="#2A3D67"/>
<defs>
<radialGradient id="paint0_radial_4_1508" cx="0" cy="0" r="1" gradientUnits="userSpaceOnUse" gradientTransform="translate(53.5106 53.5833) scale(109.603)">
<stop offset="0.00558659" stop-color="#48719F"/>
<stop offset="0.348958" stop-color="#386294"/>
<stop offset="0.692708" stop-color="#264063"/>
<stop offset="1" stop-color="#19344F"/>
</radialGradient>
</defs>
</svg>
