<svg width="150" height="150" viewBox="0 0 150 150" fill="none" xmlns="http://www.w3.org/2000/svg">
<path fill-rule="evenodd" clip-rule="evenodd" d="M149.516 74.7582C149.516 96.3655 140.369 115.765 125.701 129.486C118.761 135.953 110.402 141.157 101.255 144.627C93.0534 147.781 84.0635 149.516 74.7582 149.516C71.4461 149.516 68.134 149.359 64.9797 148.885C50.6274 146.993 37.3791 141 26.812 132.01C19.0838 125.543 12.6174 117.5 8.0436 108.51C5.20468 102.832 2.99664 96.6809 1.57718 90.2145C0.473153 85.1675 0 80.1206 0 74.7582C0 59.9327 4.25837 46.2113 11.6711 34.6979C14.8255 29.8086 18.453 25.2348 22.7114 21.2919C36.1174 8.2013 54.5703 0.1577 74.7582 0.1577C76.3354 0.1577 78.0703 0.157703 79.6474 0.315421C88.1642 0.788574 96.2078 2.8389 103.778 5.99326C105.04 6.46641 106.302 7.09728 107.563 7.72815C114.818 11.1979 121.443 15.9295 127.12 21.6073C141 35.0133 149.516 53.9394 149.516 74.7582Z" fill="url(#paint0_radial_4_1375)"/>
<path fill-rule="evenodd" clip-rule="evenodd" d="M35.3288 124.282C29.0201 124.282 17.5067 115.134 11.9865 103.463C5.20468 88.7951 5.04697 73.3388 8.35904 70.4999C9.30534 69.7113 10.5671 69.2381 12.1443 69.2381C13.0906 69.2381 14.3523 69.3958 15.4563 69.7113C23.3422 72.077 34.3825 82.9596 39.114 93.9998C43.6878 104.725 42.4261 113.241 41.0066 118.446C40.0603 123.335 37.3791 124.282 35.3288 124.282Z" fill="url(#paint1_linear_4_1375)"/>
<path fill-rule="evenodd" clip-rule="evenodd" d="M40.0603 118.131C39.2717 121.127 37.8523 123.02 35.3288 123.02C29.9664 123.02 18.6107 114.503 13.2483 102.832C6.30871 88.1642 6.78186 73.6542 9.30534 71.4461C10.5671 70.3421 12.7751 70.1844 15.2986 70.973C23.3422 73.3388 35.4865 83.5904 38.01 94.3152C40.3757 103.305 41.4798 112.768 40.0603 118.131Z" fill="url(#paint2_linear_4_1375)"/>
<path fill-rule="evenodd" clip-rule="evenodd" d="M14.1946 64.3489C13.406 64.3489 12.6174 64.0334 12.1443 63.4025C10.0939 61.0368 13.0906 52.6777 14.3523 49.6811C16.4026 44.9496 18.6107 42.4261 20.5033 42.4261C21.2919 42.4261 21.9227 42.7415 22.5536 43.2147L22.8691 43.5301C25.0771 45.7382 26.1811 50.9428 24.1308 55.0435C22.5536 58.0401 17.9798 63.2448 14.8255 64.0334C14.8255 64.3489 14.51 64.3489 14.1946 64.3489Z" fill="url(#paint3_linear_4_1375)"/>
<path fill-rule="evenodd" clip-rule="evenodd" d="M23.6576 54.728C22.2382 57.5669 17.5067 62.7716 14.6677 63.5602C13.8792 63.7179 13.2483 63.7179 12.9328 63.2448C10.8825 60.7213 16.8758 43.5301 20.9764 43.3723C21.6073 43.3723 22.2382 43.6878 22.7113 44.1609C24.4462 45.8958 25.5503 50.7851 23.6576 54.728Z" fill="url(#paint4_linear_4_1375)"/>
<path fill-rule="evenodd" clip-rule="evenodd" d="M119.865 122.389C117.342 122.389 115.449 121.443 114.661 119.55C113.084 116.08 113.872 103.305 118.919 92.1071C126.332 75.389 136.741 70.9729 141 70.9729C141.315 70.9729 141.631 70.9729 141.788 70.9729C141.946 70.9729 142.104 70.973 142.261 71.1307C143.365 71.4461 144.469 72.3924 145.1 73.8119C148.097 79.9629 146.362 95.1038 141.473 105.671C137.214 115.607 126.647 122.389 119.865 122.389Z" fill="url(#paint5_linear_4_1375)"/>
<path fill-rule="evenodd" clip-rule="evenodd" d="M140.526 105.355C134.533 118.288 118.604 124.755 115.923 119.077C114.503 116.238 115.134 104.094 120.181 92.738C127.751 75.8622 138.161 71.9192 141.788 72.3924H141.946C147.151 73.8118 146.362 92.5802 140.526 105.355Z" fill="url(#paint6_linear_4_1375)"/>
<path fill-rule="evenodd" clip-rule="evenodd" d="M139.422 70.0267C138.792 70.0267 138.318 69.869 137.845 69.5535C134.691 67.6609 132.641 55.5166 134.849 51.7314C135.479 50.6274 136.268 50.312 136.741 50.312C136.899 50.312 137.214 50.312 137.53 50.312C141 50.312 144.469 54.4126 145.731 59.775C146.52 63.5602 144.943 66.7146 143.05 68.2918C141.946 69.3958 140.684 70.0267 139.422 70.0267Z" fill="url(#paint7_linear_4_1375)"/>
<path fill-rule="evenodd" clip-rule="evenodd" d="M142.261 67.3454C141 68.6072 139.58 69.0803 138.634 68.4494C136.11 67.03 134.218 55.6743 136.11 52.3622C136.426 51.8891 136.741 51.5736 137.057 51.5736C139.58 51.1005 143.208 54.4126 144.469 60.0904C145.1 63.087 143.839 65.7682 142.261 67.3454Z" fill="url(#paint8_linear_4_1375)"/>
<path fill-rule="evenodd" clip-rule="evenodd" d="M79.4897 148.57C79.0166 148.57 78.5434 148.57 78.0703 148.57C70.3421 148.412 64.5065 145.1 63.5602 142.261C63.2448 141.157 63.4025 140.053 64.1911 139.422C66.5569 137.372 76.4931 137.214 78.5434 137.214C85.0098 137.214 92.8957 137.845 93.5266 140.842C93.6843 141.631 93.6843 142.735 92.4226 144.154C90.6877 145.889 88.3219 148.57 79.4897 148.57Z" fill="url(#paint9_linear_4_1375)"/>
<path fill-rule="evenodd" clip-rule="evenodd" d="M91.4763 143.05C89.5837 145.1 87.3756 147.466 78.0703 147.308C69.0804 146.993 62.7717 142.261 64.9797 140.369C67.9763 137.845 91.3186 137.688 92.1072 141.157C92.4226 141.63 92.2649 142.419 91.4763 143.05Z" fill="url(#paint10_linear_4_1375)"/>
<path fill-rule="evenodd" clip-rule="evenodd" d="M115.765 75.8622C110.718 75.8622 106.933 73.4964 104.882 69.238C100.151 58.8287 100.151 38.6408 103.621 30.5972C104.567 28.5469 105.513 27.2851 106.775 26.812C108.037 26.3388 109.298 26.0234 110.718 26.0234C115.134 26.0234 119.708 29.02 123.966 34.5402C130.906 43.6878 135.795 58.5132 133.902 65.1374C133.271 67.1877 131.537 69.5535 128.698 71.4461C124.755 74.1273 120.023 75.8622 115.765 75.8622Z" fill="url(#paint11_linear_4_1375)"/>
<path fill-rule="evenodd" clip-rule="evenodd" d="M132.641 64.6642C132.167 66.5569 130.433 68.6072 127.909 70.3421C121.443 75.0736 110.087 77.5971 105.986 68.7649C101.412 58.671 101.412 38.9563 104.725 31.0704C105.355 29.4932 106.302 28.3892 107.248 27.916C121.285 22.0805 135.322 54.8857 132.641 64.6642Z" fill="url(#paint12_linear_4_1375)"/>
<path fill-rule="evenodd" clip-rule="evenodd" d="M40.0603 118.131C32.8053 120.812 21.4496 111.664 15.614 96.6809C10.4094 83.5904 14.3523 73.181 15.4563 70.9729C23.4999 73.3387 35.6442 83.5904 38.1677 94.3152C40.3757 103.305 41.4798 112.768 40.0603 118.131Z" fill="#FFFF45"/>
<path fill-rule="evenodd" clip-rule="evenodd" d="M91.4763 143.05C76.0199 147.781 64.9797 140.211 64.9797 140.211C67.9763 137.688 91.3185 137.53 92.1071 141C92.4226 141.631 92.2648 142.419 91.4763 143.05Z" fill="#FFFF45"/>
<path fill-rule="evenodd" clip-rule="evenodd" d="M138.003 104.094C127.436 121.285 115.765 119.077 115.765 119.077C114.345 116.238 114.976 104.094 120.023 92.738C127.594 75.8622 138.003 71.9192 141.631 72.3924H141.788C143.996 78.8588 145.573 91.7916 138.003 104.094Z" fill="#FFFF45"/>
<path fill-rule="evenodd" clip-rule="evenodd" d="M127.909 70.3421C121.443 75.0737 110.087 77.5971 105.986 68.765C101.412 58.671 101.412 38.9563 104.725 31.0704C107.563 30.755 113.084 31.7013 119.235 40.8489C128.067 53.4663 130.906 63.0871 127.909 70.3421Z" fill="#FFFF45"/>
<path fill-rule="evenodd" clip-rule="evenodd" d="M142.261 67.3455C141 68.6073 139.58 69.0804 138.634 68.4495C136.11 67.0301 134.218 55.6744 136.11 52.3623C138.003 53.4664 141 55.8321 141.788 60.0905C142.104 62.7717 142.261 65.2952 142.261 67.3455Z" fill="#FFFF45"/>
<path fill-rule="evenodd" clip-rule="evenodd" d="M23.6577 54.7281C22.2382 57.567 17.5067 62.7717 14.6678 63.5603C14.8255 62.4563 17.0335 49.0502 22.5536 44.161C24.4462 45.8959 25.5503 50.7851 23.6577 54.7281Z" fill="#FFFF45"/>
<path opacity="0.3" fill-rule="evenodd" clip-rule="evenodd" d="M113.557 92.4226C112.768 94.1575 111.98 95.7346 110.876 97.3118C109.929 98.4158 108.825 99.3622 108.194 100.624C105.829 105.04 106.302 110.087 105.04 114.661C104.251 117.184 102.359 119.235 101.57 121.758C101.255 122.862 101.412 123.966 101.412 125.228C101.412 126.647 100.624 127.594 99.8353 128.698C98.889 129.959 97.6273 130.748 96.2078 131.379C95.1038 131.852 93.842 131.694 92.5803 131.694C89.8991 131.694 87.3756 131.379 84.6944 130.59C82.3286 129.959 80.1206 128.855 77.7548 128.067C76.1776 127.594 74.9159 127.751 73.3387 128.067C71.9193 128.382 70.3421 128.225 68.9226 128.225C66.3991 128.225 64.0334 129.644 61.8253 130.748C60.2481 131.537 59.1441 132.483 58.5133 134.218C57.7247 136.268 57.7247 138.161 55.3589 138.949C53.9394 139.422 52.2045 138.949 50.7851 138.634C49.5233 138.318 48.1039 138.476 46.8421 138.476C44.3187 138.476 41.9529 137.688 39.5871 136.584C36.9059 135.164 34.5402 133.114 32.4898 131.063C31.3858 129.959 29.8086 129.329 28.7046 128.225C27.1274 126.805 25.3925 125.386 23.9731 123.966C21.6073 121.6 19.0838 119.235 16.5604 117.027C14.6677 115.607 13.0906 113.714 11.5134 111.98C10.2516 110.56 9.46305 108.51 8.51674 106.775C6.62413 103.463 5.04696 99.6776 4.10065 95.8924C2.99663 91.634 1.73488 87.0602 1.8926 82.6441C1.8926 78.8588 1.41945 75.3891 1.41945 71.6038C1.10401 78.7011 1.41945 84.5367 2.20804 90.0568C1.10401 85.0098 0.630859 79.9629 0.630859 74.6005C0.630859 59.775 4.88924 46.0536 12.302 34.5402C15.4563 29.6509 19.0838 25.0771 23.3422 21.1342C36.7482 8.0436 55.2012 0 75.389 0C76.9662 0 78.7011 -2.40893e-06 80.2783 0.157715C88.7951 0.630868 96.8387 2.6812 104.409 5.83556C106.302 7.88589 108.194 10.2517 109.614 12.6174C110.245 13.5637 110.56 14.6677 111.191 15.614C111.664 16.5604 112.295 16.8758 112.137 17.9798C111.98 18.6107 111.664 19.3993 111.349 20.0301C110.56 22.0805 108.194 23.4999 106.459 24.604C103.936 26.1811 101.097 26.812 98.4158 28.2315C96.6809 29.1778 96.2078 29.9664 94.946 31.3858C94.3152 32.1744 93.5266 32.6476 93.0534 33.4362C91.634 35.6442 90.8454 38.7986 91.0031 41.322C91.1608 46.369 95.1038 49.9965 96.0501 54.728C96.8387 58.8287 96.2078 63.2448 97.6273 67.1877C99.0467 71.7616 102.99 75.3891 106.775 78.0703C108.352 79.1743 109.772 80.1206 111.191 81.3823C112.453 82.6441 114.188 83.2749 115.134 84.8521C115.923 87.3756 114.503 90.0568 113.557 92.4226Z" fill="url(#paint13_linear_4_1375)"/>
<path fill-rule="evenodd" clip-rule="evenodd" d="M107.563 7.57043C107.248 7.57043 107.09 7.57042 106.775 7.72814C105.986 7.88586 105.198 7.72814 104.409 7.57043C103.778 7.41271 103.463 7.09727 102.674 7.09727C101.728 6.93956 100.939 6.62412 99.993 6.4664C99.0467 6.30868 98.2581 5.99325 97.3118 5.67781C96.5232 5.36238 96.2078 5.5201 95.5769 5.67781C94.9461 5.83553 94.4729 5.52009 93.842 5.36238C93.2112 5.04694 92.4226 5.04694 91.7917 4.88922C89.8991 4.57379 88.0065 3.94292 86.1139 3.46977C85.0099 3.15433 83.9058 3.15433 82.6441 3.15433C81.6978 3.15433 80.9092 3.46977 79.9629 3.46977C79.332 3.46977 78.8589 3.31205 78.228 3.31205C77.5971 3.15433 76.9663 3.31205 76.3354 3.31205C75.3891 3.15433 74.9159 2.99661 73.9696 3.31205C73.181 3.46977 72.7079 3.46977 71.9193 3.62748C71.1307 3.62748 70.1844 3.94292 69.3958 4.10064C67.9763 4.41607 66.3992 4.73151 64.9797 4.73151C64.0334 4.73151 62.7717 4.41607 61.9831 4.73151C61.5099 4.88923 61.1945 5.5201 60.7213 5.83553C59.9327 6.62412 59.1442 7.25499 58.5133 8.04358C57.8824 8.83217 57.2515 9.77847 57.2515 10.8825C57.2515 11.8288 57.7247 12.9328 58.1978 13.7214C58.671 14.6677 58.8287 15.4563 57.8824 16.0872C56.7784 16.8758 55.3589 17.5066 54.0972 17.9798C53.1509 18.2952 52.3623 18.4529 51.7314 17.8221C51.416 17.6644 51.2583 17.1912 50.9428 16.8758C50.6274 16.7181 50.1542 16.8758 49.8388 17.0335C48.8925 17.3489 47.9462 17.6644 46.9999 17.8221C46.369 17.9798 45.8959 18.2952 45.265 18.2952C44.6341 18.453 44.161 17.9798 43.3724 18.1375C42.4261 18.2952 41.3221 18.7684 40.3757 18.7684C39.5872 18.7684 38.6409 18.4529 38.01 18.1375C37.6945 17.9798 37.5368 17.6644 37.0637 17.8221C36.7482 17.8221 36.2751 18.2952 36.1174 18.6107C35.8019 18.9261 35.8019 19.3993 35.4865 19.7147C35.1711 20.1878 35.0133 20.5033 34.6979 20.9764C34.2248 21.765 33.7516 22.5536 33.2785 23.3422C32.963 23.8153 32.6476 24.6039 32.1744 25.0771C32.0167 25.3925 31.5435 25.5502 31.2281 25.708C30.4395 26.1811 29.6509 26.812 28.8623 27.2851C27.4429 28.3892 26.0234 29.6509 24.604 30.7549C23.5 31.5435 21.9228 32.0167 20.661 32.6475C19.8724 32.963 19.0839 33.2784 18.2953 33.5938C17.9798 33.7516 17.5067 33.7516 17.349 34.067C17.0335 34.3824 16.8758 34.6979 16.7181 35.171C16.0872 35.9596 15.2986 36.9059 14.8255 37.8522C14.51 38.4831 14.3523 38.9563 14.0369 39.5871C13.7215 40.3757 13.2483 41.1643 13.0906 42.1106C12.4597 43.8455 12.4597 45.7381 11.6711 47.473C11.3557 48.4193 10.7248 49.3656 10.2517 50.3119C9.46308 51.8891 9.30536 53.7817 9.14764 55.5166C8.98992 56.4629 9.14764 57.7247 9.30536 58.671C9.46307 59.775 9.46308 60.879 9.46308 61.983C9.46308 63.0871 8.67449 64.3488 8.04362 65.1374C7.41274 65.926 6.30872 66.2414 5.52013 67.03C4.88926 67.6609 4.10067 68.2917 3.78524 69.238C3.62752 69.5535 3.78524 70.0266 3.78524 70.4998C3.62752 71.4461 3.31208 72.2347 3.31208 73.181C3.15437 74.285 3.15437 75.389 3.15437 76.6508C3.15437 77.2817 3.15437 77.7548 3.15437 78.3857C3.15437 79.0165 3.31208 79.4897 3.4698 79.9629C3.4698 80.2783 3.4698 80.7514 3.4698 81.0669C3.4698 81.54 3.78524 82.0132 3.78524 82.3286C4.10067 83.4326 4.25839 84.379 4.41611 85.483C4.57383 86.4293 5.04698 87.3756 5.2047 88.3219C5.67785 89.5836 5.83557 90.8454 6.151 92.2648C6.30872 93.2111 6.30872 94.3152 6.46644 95.2615C6.62416 96.0501 6.78188 96.8386 6.78188 97.6272C6.78188 98.889 6.46644 99.993 6.46644 101.255C6.46644 103.305 7.25503 105.355 7.72818 107.406C7.8859 108.037 8.04361 108.51 8.20133 109.141C2.99665 99.0467 0.15773 87.5333 0.15773 75.389C0.15773 60.5636 4.41611 46.8421 11.8288 35.3287C14.9832 30.4395 18.6107 25.8657 22.8691 21.9227C36.2751 8.83217 54.7281 0.788567 74.9159 0.788567C76.4931 0.788567 78.228 0.788564 79.8052 0.946282C89.5837 0.946282 99.0467 3.46977 107.563 7.57043Z" fill="url(#paint14_linear_4_1375)"/>
<path opacity="0.3" fill-rule="evenodd" clip-rule="evenodd" d="M101.097 131.694C102.516 130.748 103.936 129.959 105.513 129.013C107.09 128.067 108.667 127.594 110.402 126.805C111.664 126.332 111.822 126.332 112.768 127.12C113.714 127.909 114.818 128.067 115.923 128.067C117.5 128.067 119.235 128.224 119.392 130.275C119.55 133.114 115.449 135.48 113.399 136.584C111.822 137.53 110.087 138.161 108.352 138.949C106.933 139.58 105.355 140.369 103.778 140.526C102.359 140.684 101.57 140.053 100.624 139.107C99.5199 137.845 99.6776 136.741 99.6776 135.322C99.6776 133.429 99.6776 132.167 101.097 131.694Z" fill="url(#paint15_linear_4_1375)"/>
<path opacity="0.3" fill-rule="evenodd" clip-rule="evenodd" d="M123.335 27.1274C124.439 29.3355 125.228 32.3321 126.963 34.2247C127.909 35.171 128.54 35.3288 129.802 35.3288C130.432 35.3288 131.537 35.4865 132.167 35.3288C132.956 35.0133 132.956 34.067 132.956 33.2784C132.798 30.2818 130.906 27.6006 129.013 25.5503C127.751 24.1308 125.859 22.5536 123.808 22.8691C123.177 24.2885 123.02 25.708 123.335 27.1274Z" fill="url(#paint16_linear_4_1375)"/>
<path fill-rule="evenodd" clip-rule="evenodd" d="M82.1709 144.785C82.0132 145.1 81.6978 145.258 81.8555 145.573C82.0132 145.731 82.3286 145.889 82.4863 145.889C82.8018 146.047 83.4326 145.889 83.7481 145.731C84.0635 145.573 83.9058 145.258 83.7481 144.943C83.4326 144.469 82.9595 144.312 82.4863 144.627L82.1709 144.785Z" fill="#FFFF45"/>
<path fill-rule="evenodd" clip-rule="evenodd" d="M33.2784 19.3993C32.4898 19.7147 32.1744 19.7147 31.3858 20.3456C30.7549 20.8187 30.1241 21.2919 29.4932 21.9227C28.7046 22.7113 28.3892 23.4999 28.2315 24.2885C27.916 25.0771 27.7583 26.0234 28.0737 26.4966C28.2314 26.6543 28.7046 26.6543 29.1778 26.6543C29.8086 26.4965 30.4395 26.0234 31.0704 25.708C31.859 25.2348 32.4898 24.4462 33.1207 23.6576C33.5939 23.0268 33.7516 22.3959 34.067 21.765C34.2247 21.2919 34.3824 20.9764 34.5402 20.661C34.6979 20.3456 34.6979 20.0301 34.5402 19.8724C34.3824 19.3993 34.2247 19.3993 33.2784 19.3993Z" fill="#FFFF45"/>
<path fill-rule="evenodd" clip-rule="evenodd" d="M42.1106 17.9798C41.7952 18.2952 41.1643 18.7684 41.6375 19.0838C41.7952 19.2415 41.9529 19.0838 42.1106 19.2415C42.2683 19.2415 42.2684 19.3992 42.4261 19.2415C42.8992 19.2415 42.7415 17.822 42.1106 17.9798Z" fill="#FFFF45"/>
<path fill-rule="evenodd" clip-rule="evenodd" d="M44.4764 22.7113C44.6341 22.5536 44.9495 22.5536 45.1073 22.5536C45.1073 22.869 45.4227 23.3422 44.9495 23.6576C44.6341 23.8153 44.7918 23.1845 44.6341 23.1845L44.4764 22.7113Z" fill="#FFFF45"/>
<path fill-rule="evenodd" clip-rule="evenodd" d="M49.0502 22.7114C49.5233 22.8691 49.8388 23.0268 50.3119 23.1845C50.4697 23.0268 50.6274 23.0268 50.7851 23.0268C50.9428 22.8691 51.1005 22.5537 51.2582 22.3959C51.416 22.0805 51.2582 21.7651 51.1005 21.4496C50.9428 21.2919 50.9428 20.9765 50.7851 20.8188C50.6274 20.661 50.1542 20.661 49.9965 20.8188C49.6811 20.9765 49.5233 21.1342 49.3656 21.4496C49.2079 21.6073 49.0502 22.0805 49.0502 22.2382C49.0502 22.5537 49.2079 22.8691 49.5233 23.0268L49.0502 22.7114Z" fill="#FFFF45"/>
<path fill-rule="evenodd" clip-rule="evenodd" d="M52.8354 109.141C53.3086 109.298 53.624 109.456 54.0972 109.614C54.2549 109.456 54.4126 109.456 54.5703 109.456C54.728 109.298 54.8858 108.983 55.0435 108.825C55.2012 108.51 55.0435 108.194 54.8858 107.879C54.728 107.721 54.728 107.406 54.5703 107.248C54.4126 107.09 53.9395 107.09 53.7817 107.248C53.4663 107.406 53.3086 107.564 53.1509 107.879C52.9931 108.037 52.8354 108.51 52.8354 108.668C52.8354 108.983 52.9931 109.298 53.3086 109.456L52.8354 109.141Z" fill="#FFFF45"/>
<path fill-rule="evenodd" clip-rule="evenodd" d="M36.9059 26.812C36.7482 26.9697 36.5905 27.1274 36.4328 27.2852C36.5905 27.4429 36.7482 27.7583 37.0636 27.7583C37.2214 27.7583 37.3791 27.7583 37.3791 27.7583C37.5368 27.6006 37.3791 27.4429 37.5368 27.4429C37.6945 27.1274 37.6945 27.1274 37.5368 26.812C37.3791 26.6543 37.3791 26.6543 37.2214 26.6543C37.0636 26.6543 36.9059 26.6543 36.7482 26.812H36.9059Z" fill="#FFFF45"/>
<path fill-rule="evenodd" clip-rule="evenodd" d="M37.8522 33.5939C37.8522 33.5939 37.5368 34.5402 37.8522 34.2248C38.1677 34.0671 38.1677 33.7516 37.8522 33.5939C38.01 33.5939 38.01 33.5939 37.8522 33.5939Z" fill="#FFFF45"/>
<path fill-rule="evenodd" clip-rule="evenodd" d="M31.7013 44.9495C31.3858 45.265 31.3858 45.4227 31.2281 45.8958C31.3858 46.0536 31.5435 46.0536 31.7013 46.0536C32.0167 46.0536 32.0167 45.8958 32.0167 45.7381C32.0167 45.5804 32.1744 45.4227 32.0167 45.265C32.0167 44.9495 31.859 44.7918 31.7013 44.9495Z" fill="#FFFF45"/>
<path fill-rule="evenodd" clip-rule="evenodd" d="M41.1643 27.6006C41.322 27.7583 41.4797 27.916 41.4797 28.0737C41.322 28.0737 41.1643 27.916 41.1643 27.7583C41.1643 27.4429 41.1643 27.6006 41.322 27.2851L41.1643 27.6006Z" fill="#FFFF45"/>
<path fill-rule="evenodd" clip-rule="evenodd" d="M38.9563 18.7684C38.7985 18.9261 38.6408 19.0838 38.4831 19.2415C38.6408 19.3993 38.4831 19.557 38.7985 19.557C38.9563 19.557 39.114 19.3993 39.2717 19.2415C39.4294 19.0838 39.4294 18.9261 39.4294 18.7684C39.4294 18.6107 39.4294 18.2952 39.2717 18.6107L38.9563 18.7684Z" fill="#FFFF45"/>
<path fill-rule="evenodd" clip-rule="evenodd" d="M67.6609 14.1945C67.6609 14.0368 67.8186 13.7214 67.8186 13.5637L67.9763 13.406C68.134 13.2482 68.134 13.2482 68.2917 13.2482C68.4495 13.2482 68.6072 13.2482 68.9226 13.406C69.5535 13.8791 67.9763 14.3523 67.8186 13.8791L67.6609 14.1945Z" fill="#FFFF45"/>
<path fill-rule="evenodd" clip-rule="evenodd" d="M73.0233 16.2449C72.8656 16.5604 72.7078 17.0335 73.0233 17.349C73.3387 17.5067 73.9696 17.1913 74.1273 17.0335C74.6005 16.7181 75.0736 15.9295 74.6004 15.4564C74.4427 15.1409 73.6541 14.9832 73.3387 14.9832C72.5501 14.9832 72.3924 15.9295 72.2347 16.7181L73.0233 16.2449Z" fill="#FFFF45"/>
<path fill-rule="evenodd" clip-rule="evenodd" d="M75.3891 8.83214C75.2314 8.20127 75.2314 7.5704 75.7045 7.25496C76.0199 7.09724 76.4931 6.93953 76.8085 7.25496C76.9662 7.41268 77.124 7.72812 77.2817 7.88584C77.4394 8.20127 77.4394 8.20127 77.2817 8.5167C77.124 9.14757 76.9662 9.62073 76.1777 9.62073C75.2314 9.62073 75.2314 8.98986 75.2314 8.04355V8.83214H75.3891Z" fill="#FFFF45"/>
<path fill-rule="evenodd" clip-rule="evenodd" d="M83.4327 19.8724C83.9058 19.7147 84.379 19.557 84.6944 19.0838C84.379 18.9261 83.5904 18.4529 83.4327 19.0838V19.8724Z" fill="#FFFF45"/>
<path fill-rule="evenodd" clip-rule="evenodd" d="M55.6743 119.235C56.1475 119.077 56.6206 118.919 56.9361 118.446C56.6206 118.288 55.832 117.815 55.6743 118.446V119.235Z" fill="#FFC445"/>
<path fill-rule="evenodd" clip-rule="evenodd" d="M106.933 129.959C107.406 129.802 107.879 129.644 108.194 129.171C107.879 129.013 107.09 128.54 106.933 129.171V129.959Z" fill="#FFC445"/>
<path fill-rule="evenodd" clip-rule="evenodd" d="M89.5836 29.4932C90.0568 28.8623 90.6877 27.916 91.634 28.3892C92.1071 28.7046 92.2648 29.6509 91.7917 29.9663C91.3185 30.2818 91.0031 30.4395 90.3722 30.5972C90.0568 30.7549 89.4259 30.4395 89.5836 29.8086V29.4932Z" fill="#FFFF45"/>
<path fill-rule="evenodd" clip-rule="evenodd" d="M56.3052 43.2146C56.7784 42.5838 57.4092 41.6375 58.3556 42.1106C58.8287 42.426 58.9864 43.3724 58.5133 43.6878C58.0401 44.0032 57.7247 44.1609 57.0938 44.3187C56.7784 44.4764 56.1475 44.1609 56.3052 43.5301V43.2146Z" fill="#FFC445"/>
<path fill-rule="evenodd" clip-rule="evenodd" d="M111.506 18.7684C111.98 18.1375 112.61 17.1912 113.557 17.6643C114.03 17.9798 114.188 18.9261 113.714 19.2415C113.241 19.557 112.926 19.7147 112.295 19.8724C111.98 20.0301 111.349 19.7147 111.506 19.0838V18.7684Z" fill="#FFC445"/>
<path fill-rule="evenodd" clip-rule="evenodd" d="M80.5937 69.7112C81.0669 69.0803 81.6978 68.134 82.6441 68.6072C83.1172 68.9226 83.2749 69.8689 82.8018 70.1844C82.3286 70.4998 82.0132 70.6575 81.3823 70.8152C81.0669 70.9729 80.436 70.6575 80.5937 70.0266V69.7112Z" fill="#FFC445"/>
<path fill-rule="evenodd" clip-rule="evenodd" d="M53.624 22.5537C52.9932 22.8691 52.0468 23.3422 51.8891 24.2885C51.8891 24.7617 52.0468 25.0771 52.52 25.2349C52.8354 25.3926 53.4663 25.3926 53.9395 25.2349C54.5703 24.9194 55.2012 24.4463 55.3589 23.9731C55.5166 23.5 55.5166 23.1845 55.3589 22.8691C55.2012 22.7114 55.0435 22.3959 54.728 22.2382C53.9395 21.9228 53.4663 22.7114 52.8354 23.0268L53.624 22.5537Z" fill="#FFFF45"/>
<path fill-rule="evenodd" clip-rule="evenodd" d="M55.5166 20.3455C55.832 20.5032 56.1475 20.6609 56.3052 20.9764C55.9898 21.1341 55.6743 21.2918 55.3589 21.2918C54.8857 21.1341 54.8857 20.6609 54.8857 20.3455C54.8857 20.1878 55.3589 19.7146 55.5166 19.8724C55.6743 19.8724 55.6743 20.0301 55.6743 20.1878C55.832 20.3455 55.832 20.3455 55.6743 20.661H55.5166V20.3455Z" fill="#FFFF45"/>
<path fill-rule="evenodd" clip-rule="evenodd" d="M22.2382 34.2248C21.6073 34.8556 20.9765 35.4865 20.661 36.2751C20.5033 36.7483 20.8187 36.7483 21.1342 36.5905C21.9228 36.4328 22.5536 36.2751 23.3422 36.1174C23.8154 35.9597 24.4462 35.8019 24.604 35.4865C24.7617 35.1711 24.9194 34.6979 24.9194 34.3825C24.9194 33.9093 24.4462 33.7516 24.1308 33.5939C23.1845 33.2785 21.765 33.9093 21.4496 34.8556L22.2382 34.2248Z" fill="#FFFF45"/>
<path fill-rule="evenodd" clip-rule="evenodd" d="M22.7114 37.5368C23.1845 37.5368 23.6577 37.6945 24.1308 37.8522C23.9731 38.01 23.9731 38.1677 23.9731 38.3254C23.8154 38.6408 23.6577 38.7986 23.3422 38.9563C22.8691 39.2717 22.2382 39.2717 21.7651 39.114C20.3456 38.6408 22.5536 37.0637 22.8691 37.5368H22.7114Z" fill="#FFFF45"/>
<path fill-rule="evenodd" clip-rule="evenodd" d="M65.4528 7.57045C65.926 7.25501 66.3992 7.09729 66.8723 6.93958C67.5032 6.78186 68.134 6.78186 68.7649 6.78186C69.0804 6.78186 69.8689 6.78186 69.5535 7.25501C69.3958 7.88588 68.1341 8.35904 67.6609 8.51675C66.8723 8.83219 66.0837 9.30534 65.1374 9.46306C64.6643 9.46306 63.8757 9.62078 63.5602 9.14763C63.4025 8.67447 63.4025 8.35904 63.718 8.0436C63.8757 7.72817 64.1911 7.57045 64.6643 7.41273C64.822 7.41273 65.926 7.0973 65.926 7.41273L65.4528 7.57045Z" fill="#FFFF45"/>
<path fill-rule="evenodd" clip-rule="evenodd" d="M57.0938 7.72813C56.9361 7.88584 55.2012 8.83215 55.9898 9.3053C56.4629 9.46302 57.2515 9.46302 57.7247 9.3053C58.0401 9.14759 58.5133 8.83215 58.1978 8.359C57.7247 7.41269 56.4629 8.04356 55.8321 8.359L57.0938 7.72813Z" fill="#FFFF45"/>
<path fill-rule="evenodd" clip-rule="evenodd" d="M33.5939 69.5535C33.7516 70.1844 33.9093 70.973 34.5402 71.4461C35.1711 71.9193 35.9596 71.7616 36.4328 71.2884C36.9059 70.973 37.3791 70.6576 37.6945 70.4998C38.01 70.3421 38.1677 70.3421 38.1677 69.869C38.1677 69.3958 37.8523 68.9227 37.5368 68.6072C37.2214 68.2918 36.7482 67.8186 36.2751 67.6609C35.3288 67.3455 33.5939 67.6609 33.5939 68.9227V69.5535Z" fill="#FFD32F"/>
<path fill-rule="evenodd" clip-rule="evenodd" d="M87.2179 70.3422C87.3756 70.9731 87.5333 71.7616 88.1642 72.2348C88.7951 72.7079 89.5836 72.5502 90.0568 72.0771C90.5299 71.7616 91.0031 71.4462 91.3185 71.2885C91.634 71.1308 91.7917 71.1308 91.7917 70.6576C91.7917 70.1845 91.4762 69.7113 91.1608 69.3959C90.8454 69.0804 90.3722 68.6073 89.8991 68.4496C88.9528 68.1341 87.2179 68.4496 87.2179 69.7113V70.3422Z" fill="#FFBA00"/>
<path fill-rule="evenodd" clip-rule="evenodd" d="M10.8825 97.3118C10.8825 97.3118 10.2517 99.993 12.1443 103.463C14.0369 106.933 15.4563 106.617 15.4563 106.617C15.4563 106.617 13.7214 100.308 10.8825 97.3118Z" fill="#FFFF59"/>
<path fill-rule="evenodd" clip-rule="evenodd" d="M132.798 60.5636C132.798 60.5636 130.59 66.8723 130.275 67.8186C130.275 67.6609 133.745 66.7146 132.798 60.5636Z" fill="#FFFF59"/>
<path fill-rule="evenodd" clip-rule="evenodd" d="M144.627 62.4562C144.627 62.4562 143.05 63.5602 142.261 66.5569C142.261 66.5569 144.154 67.5032 144.627 62.4562Z" fill="#FFFF59"/>
<path fill-rule="evenodd" clip-rule="evenodd" d="M120.496 121.127C120.496 121.127 127.594 116.553 131.694 116.238C131.694 116.238 126.963 121.916 120.496 121.127Z" fill="#FFFF59"/>
<defs>
<radialGradient id="paint0_radial_4_1375" cx="0" cy="0" r="1" gradientUnits="userSpaceOnUse" gradientTransform="translate(28.5658 39.8634) scale(120.026 120.026)">
<stop offset="0.00558659" stop-color="#FFB80B"/>
<stop offset="0.258" stop-color="#FFB60C"/>
<stop offset="0.384" stop-color="#FEAE10"/>
<stop offset="0.4821" stop-color="#FCA117"/>
<stop offset="0.5656" stop-color="#FA8E21"/>
<stop offset="0.6392" stop-color="#F7762E"/>
<stop offset="0.662" stop-color="#F66D33"/>
<stop offset="0.7209" stop-color="#EF6836"/>
<stop offset="0.8061" stop-color="#DC593D"/>
<stop offset="0.9068" stop-color="#BD4049"/>
<stop offset="0.9832" stop-color="#A02A54"/>
</radialGradient>
<linearGradient id="paint1_linear_4_1375" x1="6.38031" y1="96.7919" x2="42.5589" y2="96.7919" gradientUnits="userSpaceOnUse">
<stop offset="0.0111732" stop-color="#FFA90B"/>
<stop offset="0.3713" stop-color="#FFA60E"/>
<stop offset="0.6354" stop-color="#FF9D16"/>
<stop offset="0.868" stop-color="#FF8D25"/>
<stop offset="1" stop-color="#FF8031"/>
</linearGradient>
<linearGradient id="paint2_linear_4_1375" x1="7.6564" y1="96.7919" x2="40.6476" y2="96.7919" gradientUnits="userSpaceOnUse">
<stop offset="0.0111732" stop-color="#FFE00B"/>
<stop offset="0.3061" stop-color="#FFDD0D"/>
<stop offset="0.5224" stop-color="#FFD412"/>
<stop offset="0.7136" stop-color="#FFC41B"/>
<stop offset="0.8891" stop-color="#FFAD27"/>
<stop offset="1" stop-color="#FF9B31"/>
</linearGradient>
<linearGradient id="paint3_linear_4_1375" x1="11.2822" y1="53.6167" x2="25.687" y2="53.1598" gradientUnits="userSpaceOnUse">
<stop offset="0.0111732" stop-color="#FFA90B"/>
<stop offset="0.3713" stop-color="#FFA60E"/>
<stop offset="0.6354" stop-color="#FF9D16"/>
<stop offset="0.868" stop-color="#FF8D25"/>
<stop offset="1" stop-color="#FF8031"/>
</linearGradient>
<linearGradient id="paint4_linear_4_1375" x1="12.1695" y1="53.5885" x2="24.7685" y2="53.1889" gradientUnits="userSpaceOnUse">
<stop offset="0.0111732" stop-color="#FFE00B"/>
<stop offset="0.3061" stop-color="#FFDD0D"/>
<stop offset="0.5224" stop-color="#FFD412"/>
<stop offset="0.7136" stop-color="#FFC41B"/>
<stop offset="0.8891" stop-color="#FFAD27"/>
<stop offset="1" stop-color="#FF9B31"/>
</linearGradient>
<linearGradient id="paint5_linear_4_1375" x1="130.318" y1="122.417" x2="130.318" y2="71.1598" gradientUnits="userSpaceOnUse">
<stop offset="0.0111732" stop-color="#FF8E0B"/>
<stop offset="0.3475" stop-color="#FD8B0D"/>
<stop offset="0.5941" stop-color="#F98215"/>
<stop offset="0.8113" stop-color="#F17221"/>
<stop offset="1" stop-color="#E65D31"/>
</linearGradient>
<linearGradient id="paint6_linear_4_1375" x1="115.218" y1="96.7883" x2="145.387" y2="96.7883" gradientUnits="userSpaceOnUse">
<stop offset="0.0111732" stop-color="#FFE00B"/>
<stop offset="0.3061" stop-color="#FFDD0D"/>
<stop offset="0.5224" stop-color="#FFD412"/>
<stop offset="0.7136" stop-color="#FFC41B"/>
<stop offset="0.8891" stop-color="#FFAD27"/>
<stop offset="1" stop-color="#FF9B31"/>
</linearGradient>
<linearGradient id="paint7_linear_4_1375" x1="139.965" y1="69.9656" x2="139.965" y2="50.1833" gradientUnits="userSpaceOnUse">
<stop offset="0.0111732" stop-color="#FFA90B"/>
<stop offset="0.3713" stop-color="#FFA60E"/>
<stop offset="0.6354" stop-color="#FF9D16"/>
<stop offset="0.868" stop-color="#FF8D25"/>
<stop offset="1" stop-color="#FF8031"/>
</linearGradient>
<linearGradient id="paint8_linear_4_1375" x1="139.955" y1="68.6691" x2="139.955" y2="51.4798" gradientUnits="userSpaceOnUse">
<stop offset="0.0111732" stop-color="#FFE00B"/>
<stop offset="0.3061" stop-color="#FFDD0D"/>
<stop offset="0.5224" stop-color="#FFD412"/>
<stop offset="0.7136" stop-color="#FFC41B"/>
<stop offset="0.8891" stop-color="#FFAD27"/>
<stop offset="1" stop-color="#FF9B31"/>
</linearGradient>
<linearGradient id="paint9_linear_4_1375" x1="78.5032" y1="148.576" x2="78.5032" y2="137.051" gradientUnits="userSpaceOnUse">
<stop offset="0.0111732" stop-color="#FFA90B"/>
<stop offset="0.3713" stop-color="#FFA60E"/>
<stop offset="0.6354" stop-color="#FF9D16"/>
<stop offset="0.868" stop-color="#FF8D25"/>
<stop offset="1" stop-color="#FF8031"/>
</linearGradient>
<linearGradient id="paint10_linear_4_1375" x1="78.5018" y1="147.28" x2="78.5018" y2="138.347" gradientUnits="userSpaceOnUse">
<stop offset="0.0111732" stop-color="#FFE00B"/>
<stop offset="0.3061" stop-color="#FFDD0D"/>
<stop offset="0.5224" stop-color="#FFD412"/>
<stop offset="0.7136" stop-color="#FFC41B"/>
<stop offset="0.8891" stop-color="#FFAD27"/>
<stop offset="1" stop-color="#FF9B31"/>
</linearGradient>
<linearGradient id="paint11_linear_4_1375" x1="114.632" y1="75.878" x2="121.096" y2="27.1861" gradientUnits="userSpaceOnUse">
<stop offset="0.0111732" stop-color="#FFA90B"/>
<stop offset="0.3713" stop-color="#FFA60E"/>
<stop offset="0.6354" stop-color="#FF9D16"/>
<stop offset="0.868" stop-color="#FF8D25"/>
<stop offset="1" stop-color="#FF8031"/>
</linearGradient>
<linearGradient id="paint12_linear_4_1375" x1="114.799" y1="74.5945" x2="120.922" y2="28.4701" gradientUnits="userSpaceOnUse">
<stop offset="0.0111732" stop-color="#FFE00B"/>
<stop offset="0.3061" stop-color="#FFDD0D"/>
<stop offset="0.5224" stop-color="#FFD412"/>
<stop offset="0.7136" stop-color="#FFC41B"/>
<stop offset="0.8891" stop-color="#FFAD27"/>
<stop offset="1" stop-color="#FF9B31"/>
</linearGradient>
<linearGradient id="paint13_linear_4_1375" x1="0.123639" y1="69.609" x2="115.044" y2="69.609" gradientUnits="userSpaceOnUse">
<stop offset="0.0111732" stop-color="#FFE00B"/>
<stop offset="0.3061" stop-color="#FFDD0D"/>
<stop offset="0.5224" stop-color="#FFD412"/>
<stop offset="0.7136" stop-color="#F67C27"/>
<stop offset="0.8891" stop-color="#ED6930"/>
<stop offset="1" stop-color="#E76332"/>
</linearGradient>
<linearGradient id="paint14_linear_4_1375" x1="0.123663" y1="54.3097" x2="107.608" y2="54.3097" gradientUnits="userSpaceOnUse">
<stop offset="0.0111732" stop-color="#FFE00B"/>
<stop offset="0.3061" stop-color="#FFDD0D"/>
<stop offset="0.5224" stop-color="#FFD412"/>
<stop offset="0.7136" stop-color="#FFC41B"/>
<stop offset="0.8891" stop-color="#FFAD27"/>
<stop offset="1" stop-color="#FF9B31"/>
</linearGradient>
<linearGradient id="paint15_linear_4_1375" x1="99.7301" y1="133.501" x2="119.44" y2="133.501" gradientUnits="userSpaceOnUse">
<stop offset="0.0111732" stop-color="#FFE00B"/>
<stop offset="0.3061" stop-color="#FFDD0D"/>
<stop offset="0.5224" stop-color="#FFD412"/>
<stop offset="0.7136" stop-color="#FFC41B"/>
<stop offset="0.8891" stop-color="#FFAD27"/>
<stop offset="1" stop-color="#FF9B31"/>
</linearGradient>
<linearGradient id="paint16_linear_4_1375" x1="123.132" y1="29.1808" x2="132.833" y2="29.1808" gradientUnits="userSpaceOnUse">
<stop offset="0.0111732" stop-color="#FFE00B"/>
<stop offset="0.3061" stop-color="#FFDD0D"/>
<stop offset="0.5224" stop-color="#FFD412"/>
<stop offset="0.7136" stop-color="#FFC41B"/>
<stop offset="0.8891" stop-color="#FFAD27"/>
<stop offset="1" stop-color="#FF9B31"/>
</linearGradient>
</defs>
</svg>
